  0
SECTION
  2
HEADER
  9
$ACADVER
  1
AC1009
  9
$INSBASE
 10
0.0
 20
0.0
 30
0.0
  9
$EXTMIN
 10
0.0
 20
0.0
 30
0.0
  9
$EXTMAX
 10
100.0
 20
100.0
 30
0.0
  9
$UNITMODE
 70
0
  9
$AUNITS
 70
0
  9
$ANGBASE
 50
0.0
  9
$ANGDIR
 70
0
  0
ENDSEC
  0
SECTION
  2
TABLES
  0
TABLE
  2
LTYPE
 70
19
  0
LTYPE
  2
CONTINUOUS
 70
0
  3
Solid
 72
65
 73
0
 40
0.0
  0
LTYPE
  2
CENTER
 70
0
  3
Center ____ _ ____ _ ____ _ ____ _ ____ _ ____
 72
65
 73
4
 40
2.0
 49
1.25
 49
-0.25
 49
0.25
 49
-0.25
  0
LTYPE
  2
CENTERX2
 70
0
  3
Center (2x) ________  __  ________  __  ________
 72
65
 73
4
 40
3.5
 49
2.5
 49
-0.25
 49
0.5
 49
-0.25
  0
LTYPE
  2
CENTER2
 70
0
  3
Center (.5x) ____ _ ____ _ ____ _ ____ _ ____
 72
65
 73
4
 40
1.0
 49
0.625
 49
-0.125
 49
0.125
 49
-0.125
  0
LTYPE
  2
DASHED
 70
0
  3
Dashed __ __ __ __ __ __ __ __ __ __ __ __ __ _
 72
65
 73
2
 40
0.6
 49
0.5
 49
-0.1
  0
LTYPE
  2
DASHEDX2
 70
0
  3
Dashed (2x) ____  ____  ____  ____  ____  ____
 72
65
 73
2
 40
1.2
 49
1.0
 49
-0.2
  0
LTYPE
  2
DASHED2
 70
0
  3
Dashed (.5x) _ _ _ _ _ _ _ _ _ _ _ _ _ _
 72
65
 73
2
 40
0.3
 49
0.25
 49
-0.05
  0
LTYPE
  2
PHANTOM
 70
0
  3
Phantom ______  __  __  ______  __  __  ______
 72
65
 73
6
 40
2.5
 49
1.25
 49
-0.25
 49
0.25
 49
-0.25
 49
0.25
 49
-0.25
  0
LTYPE
  2
PHANTOMX2
 70
0
  3
Phantom (2x)____________    ____    ____    ____________
 72
65
 73
6
 40
4.25
 49
2.5
 49
-0.25
 49
0.5
 49
-0.25
 49
0.5
 49
-0.25
  0
LTYPE
  2
PHANTOM2
 70
0
  3
Phantom (.5x) ___ _ _ ___ _ _ ___ _ _ ___ _ _ ___
 72
65
 73
6
 40
1.25
 49
0.625
 49
-0.125
 49
0.125
 49
-0.125
 49
0.125
 49
-0.125
  0
LTYPE
  2
DASHDOT
 70
0
  3
Dash dot __ . __ . __ . __ . __ . __ . __ . __
 72
65
 73
4
 40
1.4
 49
1.0
 49
-0.2
 49
0.0
 49
-0.2
  0
LTYPE
  2
DASHDOTX2
 70
0
  3
Dash dot (2x) ____  .  ____  .  ____  .  ____
 72
65
 73
4
 40
2.4
 49
2.0
 49
-0.2
 49
0.0
 49
-0.2
  0
LTYPE
  2
DASHDOT2
 70
0
  3
Dash dot (.5x) _ . _ . _ . _ . _ . _ . _ . _
 72
65
 73
4
 40
0.7
 49
0.5
 49
-0.1
 49
0.0
 49
-0.1
  0
LTYPE
  2
DOT
 70
0
  3
Dot .  .  .  .  .  .  .  .  .  .  .  .  .  .  .  .
 72
65
 73
2
 40
0.2
 49
0.0
 49
-0.2
  0
LTYPE
  2
DOTX2
 70
0
  3
Dot (2x) .    .    .    .    .    .    .    . 
 72
65
 73
2
 40
0.4
 49
0.0
 49
-0.4
  0
LTYPE
  2
DOT2
 70
0
  3
Dot (.5) . . . . . . . . . . . . . . . . . . . 
 72
65
 73
2
 40
0.1
 49
0.0
 49
-0.1
  0
LTYPE
  2
DIVIDE
 70
0
  3
Divide __ . . __ . . __ . . __ . . __ . . __
 72
65
 73
6
 40
1.6
 49
1.0
 49
-0.2
 49
0.0
 49
-0.2
 49
0.0
 49
-0.2
  0
LTYPE
  2
DIVIDEX2
 70
0
  3
Divide (2x) ____  . .  ____  . .  ____  . .  ____
 72
65
 73
6
 40
2.6
 49
2.0
 49
-0.2
 49
0.0
 49
-0.2
 49
0.0
 49
-0.2
  0
LTYPE
  2
DIVIDE2
 70
0
  3
Divide(.5x) _ . _ . _ . _ . _ . _ . _ . _
 72
65
 73
6
 40
0.8
 49
0.5
 49
-0.1
 49
0.0
 49
-0.1
 49
0.0
 49
-0.1
  0
ENDTAB
  0
TABLE
  2
LAYER
 70
5
  0
LAYER
  2
DIMENSIONS
 70
0
 62
1
  6
CONTINUOUS
  0
LAYER
  2
TABLEBACKGROUND
 70
0
 62
1
  6
CONTINUOUS
  0
LAYER
  2
TABLECONTENT
 70
0
 62
1
  6
CONTINUOUS
  0
LAYER
  2
TABLEGRID
 70
0
 62
1
  6
CONTINUOUS
  0
LAYER
  2
VIEWPORTS
 70
0
 62
7
  6
CONTINUOUS
  0
ENDTAB
  0
TABLE
  2
STYLE
 70
12
  0
STYLE
  2
STANDARD
 70
0
 40
0.0
 41
1.0
 42
1.0
 50
0.0
 71
0
  3
arial.ttf
  4

  0
STYLE
  2
ARIAL
 70
0
 40
0.0
 41
1.0
 42
1.0
 50
0.0
 71
0
  3
arial.ttf
  4

  0
STYLE
  2
ARIAL_BOLD
 70
0
 40
0.0
 41
1.0
 42
1.0
 50
0.0
 71
0
  3
arialbd.ttf
  4

  0
STYLE
  2
ARIAL_ITALIC
 70
0
 40
0.0
 41
1.0
 42
1.0
 50
0.0
 71
0
  3
ariali.ttf
  4

  0
STYLE
  2
ARIAL_BOLD_ITALIC
 70
0
 40
0.0
 41
1.0
 42
1.0
 50
0.0
 71
0
  3
arialbi.ttf
  4

  0
STYLE
  2
ARIAL_BLACK
 70
0
 40
0.0
 41
1.0
 42
1.0
 50
0.0
 71
0
  3
ariblk.ttf
  4

  0
STYLE
  2
ISOCPEUR
 70
0
 40
0.0
 41
1.0
 42
1.0
 50
0.0
 71
0
  3
isocpeur.ttf
  4

  0
STYLE
  2
ISOCPEUR_ITALIC
 70
0
 40
0.0
 41
1.0
 42
1.0
 50
0.0
 71
0
  3
isocpeui.ttf
  4

  0
STYLE
  2
TIMES
 70
0
 40
0.0
 41
1.0
 42
1.0
 50
0.0
 71
0
  3
times.ttf
  4

  0
STYLE
  2
TIMES_BOLD
 70
0
 40
0.0
 41
1.0
 42
1.0
 50
0.0
 71
0
  3
timesbd.ttf
  4

  0
STYLE
  2
TIMES_ITALIC
 70
0
 40
0.0
 41
1.0
 42
1.0
 50
0.0
 71
0
  3
timesi.ttf
  4

  0
STYLE
  2
TIMES_BOLD_ITALIC
 70
0
 40
0.0
 41
1.0
 42
1.0
 50
0.0
 71
0
  3
timesbi.ttf
  4

  0
ENDTAB
  0
TABLE
  2
VIEW
 70
0
  0
ENDTAB
  0
TABLE
  2
APPID
 70
1
  0
APPID
  2
DXFWRITE
 70
0
  0
ENDTAB
  0
TABLE
  2
VPORT
 70
0
  0
ENDTAB
  0
TABLE
  2
UCS
 70
0
  0
ENDTAB
  0
ENDSEC
  0
SECTION
  2
BLOCKS
  0
ENDSEC
  0
SECTION
  2
ENTITIES
  0
VIEWPORT
  8
VIEWPORTS
 67
1
 10
0.0
 20
0.0
 30
0.0
 40
1.0
 41
1.0
 68
1
 69
1
1001
ACAD
1000
MVIEW
1002
{
1070
16
1010
0.0
1020
0.0
1030
0.0
1010
0.0
1020
0.0
1030
0.0
1040
0.0
1040
1.0
1040
0.0
1040
0.0
1040
50.0
1040
0.0
1040
0.0
1070
0
1070
100
1070
1
1070
3
1070
0
1070
0
1070
0
1070
0
1040
0.0
1040
0.0
1040
0.0
1040
0.1
1040
0.1
1040
0.1
1040
0.1
1070
0
1002
{
1002
}
1002
}
  0
LINE
  8
0
 10
0.0
 20
8.881784197001252e-16
 30
0.0
 11
0.0881373587019543
 21
0.08704330624890488
 31
0.0
  0
LINE
  8
0
 10
0.0881373587019543
 20
0.08704330624890488
 30
0.0
 11
0.1762747174039086
 21
0.17191642601379442
 31
0.0
  0
LINE
  8
0
 10
0.1762747174039086
 20
0.17191642601379442
 30
0.0
 11
0.26441207610586287
 21
0.2546457324119462
 31
0.0
  0
LINE
  8
0
 10
0.26441207610586287
 20
0.2546457324119462
 30
0.0
 11
0.3525494348078172
 21
0.3352569324010677
 31
0.0
  0
LINE
  8
0
 10
0.3525494348078172
 20
0.3352569324010677
 30
0.0
 11
0.44068679350977147
 21
0.41377507476735786
 31
0.0
  0
LINE
  8
0
 10
0.44068679350977147
 20
0.41377507476735786
 30
0.0
 11
0.5288241522117257
 21
0.4902245579090767
 31
0.0
  0
LINE
  8
0
 10
0.5288241522117257
 20
0.4902245579090767
 30
0.0
 11
0.6169615109136801
 21
0.5646291374179864
 31
0.0
  0
LINE
  8
0
 10
0.6169615109136801
 20
0.5646291374179864
 30
0.0
 11
0.7050988696156344
 21
0.6370119334610695
 31
0.0
  0
LINE
  8
0
 10
0.7050988696156344
 20
0.6370119334610695
 30
0.0
 11
0.7932362283175887
 21
0.7073954379648013
 31
0.0
  0
LINE
  8
0
 10
0.7932362283175887
 20
0.7073954379648013
 30
0.0
 11
0.8813735870195429
 21
0.7758015216041816
 31
0.0
  0
LINE
  8
0
 10
0.8813735870195429
 20
0.7758015216041816
 30
0.0
 11
0.9695109457214973
 21
0.842251440598746
 31
0.0
  0
LINE
  8
0
 10
0.9695109457214973
 20
0.842251440598746
 30
0.0
 11
1.0576483044234515
 21
0.9067658433176327
 31
0.0
  0
LINE
  8
0
 10
1.0576483044234515
 20
0.9067658433176327
 30
0.0
 11
1.145785663125406
 21
0.9693647766957749
 31
0.0
  0
LINE
  8
0
 10
1.145785663125406
 20
0.9693647766957749
 30
0.0
 11
1.2339230218273602
 21
1.0300676924631862
 31
0.0
  0
LINE
  8
0
 10
1.2339230218273602
 20
1.0300676924631862
 30
0.0
 11
1.3220603805293143
 21
1.0888934531893302
 31
0.0
  0
LINE
  8
0
 10
1.3220603805293143
 20
1.0888934531893302
 30
0.0
 11
1.4101977392312688
 21
1.1458603381443773
 31
0.0
  0
LINE
  8
0
 10
1.4101977392312688
 20
1.1458603381443773
 30
0.0
 11
1.4983350979332233
 21
1.2009860489792423
 31
0.0
  0
LINE
  8
0
 10
1.4983350979332233
 20
1.2009860489792423
 30
0.0
 11
1.5864724566351773
 21
1.2542877152261127
 31
0.0
  0
LINE
  8
0
 10
1.5864724566351773
 20
1.2542877152261127
 30
0.0
 11
1.6746098153371316
 21
1.3057818996212145
 31
0.0
  0
LINE
  8
0
 10
1.6746098153371316
 20
1.3057818996212145
 30
0.0
 11
1.7627471740390859
 21
1.3554846032514378
 31
0.0
  0
LINE
  8
0
 10
1.7627471740390859
 20
1.3554846032514378
 30
0.0
 11
1.8508845327410404
 21
1.4034112705264574
 31
0.0
  0
LINE
  8
0
 10
1.8508845327410404
 20
1.4034112705264574
 30
0.0
 11
1.9390218914429946
 21
1.4495767939778599
 31
0.0
  0
LINE
  8
0
 10
1.9390218914429946
 20
1.4495767939778599
 30
0.0
 11
2.027159250144949
 21
1.493995518886786
 31
0.0
  0
LINE
  8
0
 10
2.027159250144949
 20
1.493995518886786
 30
0.0
 11
2.115296608846903
 21
1.5366812477415204
 31
0.0
  0
LINE
  8
0
 10
2.115296608846903
 20
1.5366812477415204
 30
0.0
 11
2.2034339675488575
 21
1.5776472445264256
 31
0.0
  0
LINE
  8
0
 10
2.2034339675488575
 20
1.5776472445264256
 30
0.0
 11
2.291571326250812
 21
1.6169062388435318
 31
0.0
  0
LINE
  8
0
 10
2.291571326250812
 20
1.6169062388435318
 30
0.0
 11
2.379708684952766
 21
1.6544704298680806
 31
0.0
  0
LINE
  8
0
 10
2.379708684952766
 20
1.6544704298680806
 30
0.0
 11
2.4678460436547205
 21
1.6903514901392516
 31
0.0
  0
LINE
  8
0
 10
2.4678460436547205
 20
1.6903514901392516
 30
0.0
 11
2.555983402356675
 21
1.724560569187223
 31
0.0
  0
LINE
  8
0
 10
2.555983402356675
 20
1.724560569187223
 30
0.0
 11
2.6441207610586286
 21
1.7571082969977496
 31
0.0
  0
LINE
  8
0
 10
2.6441207610586286
 20
1.7571082969977496
 30
0.0
 11
2.732258119760583
 21
1.7880047873152662
 31
0.0
  0
LINE
  8
0
 10
2.732258119760583
 20
1.7880047873152662
 30
0.0
 11
2.8203954784625376
 21
1.8172596407855943
 31
0.0
  0
LINE
  8
0
 10
2.8203954784625376
 20
1.8172596407855943
 30
0.0
 11
2.908532837164492
 21
1.844881947939209
 31
0.0
  0
LINE
  8
0
 10
2.908532837164492
 20
1.844881947939209
 30
0.0
 11
2.9966701958664466
 21
1.8708802920159835
 31
0.0
  0
LINE
  8
0
 10
2.9966701958664466
 20
1.8708802920159835
 30
0.0
 11
3.0848075545684
 21
1.8952627516323233
 31
0.0
  0
LINE
  8
0
 10
3.0848075545684
 20
1.8952627516323233
 30
0.0
 11
3.1729449132703547
 21
1.91803690329147
 31
0.0
  0
LINE
  8
0
 10
3.1729449132703547
 20
1.91803690329147
 30
0.0
 11
3.261082271972309
 21
1.9392098237377953
 31
0.0
  0
LINE
  8
0
 10
3.261082271972309
 20
1.9392098237377953
 30
0.0
 11
3.349219630674263
 21
1.9587880921557979
 31
0.0
  0
LINE
  8
0
 10
3.349219630674263
 20
1.9587880921557979
 30
0.0
 11
3.4373569893762177
 21
1.9767777922144978
 31
0.0
  0
LINE
  8
0
 10
3.4373569893762177
 20
1.9767777922144978
 30
0.0
 11
3.5254943480781717
 21
1.993184513957841
 31
0.0
  0
LINE
  8
0
 10
3.5254943480781717
 20
1.993184513957841
 30
0.0
 11
3.6136317067801262
 21
2.008013355541733
 31
0.0
  0
LINE
  8
0
 10
3.6136317067801262
 20
2.008013355541733
 30
0.0
 11
3.7017690654820807
 21
2.0212689248182167
 31
0.0
  0
LINE
  8
0
 10
3.7017690654820807
 20
2.0212689248182167
 30
0.0
 11
3.789906424184035
 21
2.0329553407672947
 31
0.0
  0
LINE
  8
0
 10
3.789906424184035
 20
2.0329553407672947
 30
0.0
 11
3.8780437828859893
 21
2.043076234776847
 31
0.0
  0
LINE
  8
0
 10
3.8780437828859893
 20
2.043076234776847
 30
0.0
 11
3.9661811415879438
 21
2.051634751771031
 31
0.0
  0
LINE
  8
0
 10
3.9661811415879438
 20
2.051634751771031
 30
0.0
 11
4.054318500289898
 21
2.058633551187522
 31
0.0
  0
LINE
  8
0
 10
4.054318500289898
 20
2.058633551187522
 30
0.0
 11
4.142455858991852
 21
2.064074807803899
 31
0.0
  0
LINE
  8
0
 10
4.142455858991852
 20
2.064074807803899
 30
0.0
 11
4.230593217693806
 21
2.067960212413422
 31
0.0
  0
LINE
  8
0
 10
4.230593217693806
 20
2.067960212413422
 30
0.0
 11
4.318730576395761
 21
2.070290972350426
 31
0.0
  0
LINE
  8
0
 10
4.318730576395761
 20
2.070290972350426
 30
0.0
 11
4.406867935097715
 21
2.0710678118654755
 31
0.0
  0
LINE
  8
0
 10
4.406867935097715
 20
2.0710678118654755
 30
0.0
 11
4.495005293799669
 21
2.070290972350426
 31
0.0
  0
LINE
  8
0
 10
4.495005293799669
 20
2.070290972350426
 30
0.0
 11
4.583142652501624
 21
2.067960212413422
 31
0.0
  0
LINE
  8
0
 10
4.583142652501624
 20
2.067960212413422
 30
0.0
 11
4.671280011203578
 21
2.064074807803899
 31
0.0
  0
LINE
  8
0
 10
4.671280011203578
 20
2.064074807803899
 30
0.0
 11
4.759417369905532
 21
2.058633551187522
 31
0.0
  0
LINE
  8
0
 10
4.759417369905532
 20
2.058633551187522
 30
0.0
 11
4.847554728607486
 21
2.051634751771031
 31
0.0
  0
LINE
  8
0
 10
4.847554728607486
 20
2.051634751771031
 30
0.0
 11
4.935692087309441
 21
2.043076234776847
 31
0.0
  0
LINE
  8
0
 10
4.935692087309441
 20
2.043076234776847
 30
0.0
 11
5.023829446011395
 21
2.0329553407672947
 31
0.0
  0
LINE
  8
0
 10
5.023829446011395
 20
2.0329553407672947
 30
0.0
 11
5.11196680471335
 21
2.0212689248182167
 31
0.0
  0
LINE
  8
0
 10
5.11196680471335
 20
2.0212689248182167
 30
0.0
 11
5.200104163415303
 21
2.008013355541733
 31
0.0
  0
LINE
  8
0
 10
5.200104163415303
 20
2.008013355541733
 30
0.0
 11
5.288241522117257
 21
1.993184513957841
 31
0.0
  0
LINE
  8
0
 10
5.288241522117257
 20
1.993184513957841
 30
0.0
 11
5.376378880819212
 21
1.9767777922144978
 31
0.0
  0
LINE
  8
0
 10
5.376378880819212
 20
1.9767777922144978
 30
0.0
 11
5.464516239521166
 21
1.9587880921557987
 31
0.0
  0
LINE
  8
0
 10
5.464516239521166
 20
1.9587880921557987
 30
0.0
 11
5.552653598223121
 21
1.9392098237377953
 31
0.0
  0
LINE
  8
0
 10
5.552653598223121
 20
1.9392098237377953
 30
0.0
 11
5.640790956925075
 21
1.91803690329147
 31
0.0
  0
LINE
  8
0
 10
5.640790956925075
 20
1.91803690329147
 30
0.0
 11
5.728928315627029
 21
1.8952627516323233
 31
0.0
  0
LINE
  8
0
 10
5.728928315627029
 20
1.8952627516323233
 30
0.0
 11
5.817065674328984
 21
1.8708802920159835
 31
0.0
  0
LINE
  8
0
 10
5.817065674328984
 20
1.8708802920159835
 30
0.0
 11
5.905203033030938
 21
1.844881947939209
 31
0.0
  0
LINE
  8
0
 10
5.905203033030938
 20
1.844881947939209
 30
0.0
 11
5.993340391732893
 21
1.8172596407855943
 31
0.0
  0
LINE
  8
0
 10
5.993340391732893
 20
1.8172596407855943
 30
0.0
 11
6.081477750434846
 21
1.7880047873152662
 31
0.0
  0
LINE
  8
0
 10
6.081477750434846
 20
1.7880047873152662
 30
0.0
 11
6.1696151091368
 21
1.7571082969977496
 31
0.0
  0
LINE
  8
0
 10
6.1696151091368
 20
1.7571082969977496
 30
0.0
 11
6.257752467838755
 21
1.724560569187223
 31
0.0
  0
LINE
  8
0
 10
6.257752467838755
 20
1.724560569187223
 30
0.0
 11
6.345889826540709
 21
1.6903514901392516
 31
0.0
  0
LINE
  8
0
 10
6.345889826540709
 20
1.6903514901392516
 30
0.0
 11
6.434027185242663
 21
1.6544704298680823
 31
0.0
  0
LINE
  8
0
 10
6.434027185242663
 20
1.6544704298680823
 30
0.0
 11
6.522164543944618
 21
1.6169062388435318
 31
0.0
  0
LINE
  8
0
 10
6.522164543944618
 20
1.6169062388435318
 30
0.0
 11
6.610301902646572
 21
1.5776472445264256
 31
0.0
  0
LINE
  8
0
 10
6.610301902646572
 20
1.5776472445264256
 30
0.0
 11
6.698439261348526
 21
1.5366812477415213
 31
0.0
  0
LINE
  8
0
 10
6.698439261348526
 20
1.5366812477415213
 30
0.0
 11
6.786576620050481
 21
1.493995518886786
 31
0.0
  0
LINE
  8
0
 10
6.786576620050481
 20
1.493995518886786
 30
0.0
 11
6.874713978752435
 21
1.4495767939778599
 31
0.0
  0
LINE
  8
0
 10
6.874713978752435
 20
1.4495767939778599
 30
0.0
 11
6.96285133745439
 21
1.4034112705264574
 31
0.0
  0
LINE
  8
0
 10
6.96285133745439
 20
1.4034112705264574
 30
0.0
 11
7.0509886961563435
 21
1.3554846032514378
 31
0.0
  0
LINE
  8
0
 10
7.0509886961563435
 20
1.3554846032514378
 30
0.0
 11
7.1391260548582975
 21
1.3057818996212145
 31
0.0
  0
LINE
  8
0
 10
7.1391260548582975
 20
1.3057818996212145
 30
0.0
 11
7.2272634135602525
 21
1.2542877152261127
 31
0.0
  0
LINE
  8
0
 10
7.2272634135602525
 20
1.2542877152261127
 30
0.0
 11
7.3154007722622065
 21
1.2009860489792423
 31
0.0
  0
LINE
  8
0
 10
7.3154007722622065
 20
1.2009860489792423
 30
0.0
 11
7.4035381309641615
 21
1.1458603381443764
 31
0.0
  0
LINE
  8
0
 10
7.4035381309641615
 20
1.1458603381443764
 30
0.0
 11
7.4916754896661155
 21
1.0888934531893302
 31
0.0
  0
LINE
  8
0
 10
7.4916754896661155
 20
1.0888934531893302
 30
0.0
 11
7.57981284836807
 21
1.0300676924631862
 31
0.0
  0
LINE
  8
0
 10
7.57981284836807
 20
1.0300676924631862
 30
0.0
 11
7.6679502070700245
 21
0.9693647766957731
 31
0.0
  0
LINE
  8
0
 10
7.6679502070700245
 20
0.9693647766957731
 30
0.0
 11
7.7560875657719786
 21
0.9067658433176327
 31
0.0
  0
LINE
  8
0
 10
7.7560875657719786
 20
0.9067658433176327
 30
0.0
 11
7.844224924473932
 21
0.842251440598746
 31
0.0
  0
LINE
  8
0
 10
7.844224924473932
 20
0.842251440598746
 30
0.0
 11
7.9323622831758875
 21
0.7758015216041816
 31
0.0
  0
LINE
  8
0
 10
7.9323622831758875
 20
0.7758015216041816
 30
0.0
 11
8.02049964187784
 21
0.7073954379648013
 31
0.0
  0
LINE
  8
0
 10
8.02049964187784
 20
0.7073954379648013
 30
0.0
 11
8.108637000579796
 21
0.6370119334610695
 31
0.0
  0
LINE
  8
0
 10
8.108637000579796
 20
0.6370119334610695
 30
0.0
 11
8.19677435928175
 21
0.5646291374179855
 31
0.0
  0
LINE
  8
0
 10
8.19677435928175
 20
0.5646291374179855
 30
0.0
 11
8.284911717983704
 21
0.4902245579090776
 31
0.0
  0
LINE
  8
0
 10
8.284911717983704
 20
0.4902245579090776
 30
0.0
 11
8.373049076685659
 21
0.41377507476735786
 31
0.0
  0
LINE
  8
0
 10
8.373049076685659
 20
0.41377507476735786
 30
0.0
 11
8.461186435387612
 21
0.3352569324010677
 31
0.0
  0
LINE
  8
0
 10
8.461186435387612
 20
0.3352569324010677
 30
0.0
 11
8.549323794089567
 21
0.2546457324119462
 31
0.0
  0
LINE
  8
0
 10
8.549323794089567
 20
0.2546457324119462
 30
0.0
 11
8.637461152791522
 21
0.17191642601379442
 31
0.0
  0
LINE
  8
0
 10
8.637461152791522
 20
0.17191642601379442
 30
0.0
 11
8.725598511493475
 21
0.08704330624890666
 31
0.0
  0
LINE
  8
0
 10
8.725598511493475
 20
0.08704330624890666
 30
0.0
 11
8.81373587019543
 21
8.881784197001252e-16
 31
0.0
  0
LINE
  8
0
 10
8.81373587019543
 20
8.881784197001252e-16
 30
0.0
 11
8.901873228897385
 21
0.08704330624890666
 31
0.0
  0
LINE
  8
0
 10
8.901873228897385
 20
0.08704330624890666
 30
0.0
 11
8.990010587599338
 21
0.17191642601379442
 31
0.0
  0
LINE
  8
0
 10
8.990010587599338
 20
0.17191642601379442
 30
0.0
 11
9.078147946301293
 21
0.2546457324119462
 31
0.0
  0
LINE
  8
0
 10
9.078147946301293
 20
0.2546457324119462
 30
0.0
 11
9.166285305003248
 21
0.3352569324010677
 31
0.0
  0
LINE
  8
0
 10
9.166285305003248
 20
0.3352569324010677
 30
0.0
 11
9.254422663705201
 21
0.41377507476735786
 31
0.0
  0
LINE
  8
0
 10
9.254422663705201
 20
0.41377507476735786
 30
0.0
 11
9.342560022407156
 21
0.4902245579090776
 31
0.0
  0
LINE
  8
0
 10
9.342560022407156
 20
0.4902245579090776
 30
0.0
 11
9.430697381109109
 21
0.5646291374179855
 31
0.0
  0
LINE
  8
0
 10
9.430697381109109
 20
0.5646291374179855
 30
0.0
 11
9.518834739811064
 21
0.6370119334610695
 31
0.0
  0
LINE
  8
0
 10
9.518834739811064
 20
0.6370119334610695
 30
0.0
 11
9.606972098513019
 21
0.7073954379648013
 31
0.0
  0
LINE
  8
0
 10
9.606972098513019
 20
0.7073954379648013
 30
0.0
 11
9.695109457214972
 21
0.7758015216041816
 31
0.0
  0
LINE
  8
0
 10
9.695109457214972
 20
0.7758015216041816
 30
0.0
 11
9.783246815916927
 21
0.842251440598746
 31
0.0
  0
LINE
  8
0
 10
9.783246815916927
 20
0.842251440598746
 30
0.0
 11
9.871384174618882
 21
0.9067658433176335
 31
0.0
  0
LINE
  8
0
 10
9.871384174618882
 20
0.9067658433176335
 30
0.0
 11
9.959521533320835
 21
0.9693647766957731
 31
0.0
  0
LINE
  8
0
 10
9.959521533320835
 20
0.9693647766957731
 30
0.0
 11
10.04765889202279
 21
1.0300676924631862
 31
0.0
  0
LINE
  8
0
 10
10.04765889202279
 20
1.0300676924631862
 30
0.0
 11
10.135796250724745
 21
1.0888934531893302
 31
0.0
  0
LINE
  8
0
 10
10.135796250724745
 20
1.0888934531893302
 30
0.0
 11
10.2239336094267
 21
1.1458603381443773
 31
0.0
  0
LINE
  8
0
 10
10.2239336094267
 20
1.1458603381443773
 30
0.0
 11
10.312070968128653
 21
1.2009860489792423
 31
0.0
  0
LINE
  8
0
 10
10.312070968128653
 20
1.2009860489792423
 30
0.0
 11
10.400208326830606
 21
1.2542877152261127
 31
0.0
  0
LINE
  8
0
 10
10.400208326830606
 20
1.2542877152261127
 30
0.0
 11
10.488345685532561
 21
1.3057818996212145
 31
0.0
  0
LINE
  8
0
 10
10.488345685532561
 20
1.3057818996212145
 30
0.0
 11
10.576483044234514
 21
1.355484603251437
 31
0.0
  0
LINE
  8
0
 10
10.576483044234514
 20
1.355484603251437
 30
0.0
 11
10.664620402936471
 21
1.4034112705264583
 31
0.0
  0
LINE
  8
0
 10
10.664620402936471
 20
1.4034112705264583
 30
0.0
 11
10.752757761638424
 21
1.4495767939778599
 31
0.0
  0
LINE
  8
0
 10
10.752757761638424
 20
1.4495767939778599
 30
0.0
 11
10.84089512034038
 21
1.4939955188867868
 31
0.0
  0
LINE
  8
0
 10
10.84089512034038
 20
1.4939955188867868
 30
0.0
 11
10.929032479042332
 21
1.5366812477415204
 31
0.0
  0
LINE
  8
0
 10
10.929032479042332
 20
1.5366812477415204
 30
0.0
 11
11.017169837744285
 21
1.5776472445264256
 31
0.0
  0
LINE
  8
0
 10
11.017169837744285
 20
1.5776472445264256
 30
0.0
 11
11.105307196446242
 21
1.6169062388435327
 31
0.0
  0
LINE
  8
0
 10
11.105307196446242
 20
1.6169062388435327
 30
0.0
 11
11.193444555148197
 21
1.6544704298680823
 31
0.0
  0
LINE
  8
0
 10
11.193444555148197
 20
1.6544704298680823
 30
0.0
 11
11.28158191385015
 21
1.6903514901392516
 31
0.0
  0
LINE
  8
0
 10
11.28158191385015
 20
1.6903514901392516
 30
0.0
 11
11.369719272552103
 21
1.7245605691872221
 31
0.0
  0
LINE
  8
0
 10
11.369719272552103
 20
1.7245605691872221
 30
0.0
 11
11.457856631254058
 21
1.7571082969977496
 31
0.0
  0
LINE
  8
0
 10
11.457856631254058
 20
1.7571082969977496
 30
0.0
 11
11.545993989956013
 21
1.7880047873152662
 31
0.0
  0
LINE
  8
0
 10
11.545993989956013
 20
1.7880047873152662
 30
0.0
 11
11.634131348657968
 21
1.8172596407855952
 31
0.0
  0
LINE
  8
0
 10
11.634131348657968
 20
1.8172596407855952
 30
0.0
 11
11.722268707359921
 21
1.844881947939209
 31
0.0
  0
LINE
  8
0
 10
11.722268707359921
 20
1.844881947939209
 30
0.0
 11
11.810406066061876
 21
1.8708802920159835
 31
0.0
  0
LINE
  8
0
 10
11.810406066061876
 20
1.8708802920159835
 30
0.0
 11
11.89854342476383
 21
1.8952627516323233
 31
0.0
  0
LINE
  8
0
 10
11.89854342476383
 20
1.8952627516323233
 30
0.0
 11
11.986680783465786
 21
1.9180369032914708
 31
0.0
  0
LINE
  8
0
 10
11.986680783465786
 20
1.9180369032914708
 30
0.0
 11
12.07481814216774
 21
1.9392098237377953
 31
0.0
  0
LINE
  8
0
 10
12.07481814216774
 20
1.9392098237377953
 30
0.0
 11
12.162955500869693
 21
1.9587880921557979
 31
0.0
  0
LINE
  8
0
 10
12.162955500869693
 20
1.9587880921557979
 30
0.0
 11
12.251092859571648
 21
1.9767777922144978
 31
0.0
  0
LINE
  8
0
 10
12.251092859571648
 20
1.9767777922144978
 30
0.0
 11
12.3392302182736
 21
1.993184513957841
 31
0.0
  0
LINE
  8
0
 10
12.3392302182736
 20
1.993184513957841
 30
0.0
 11
12.427367576975556
 21
2.008013355541733
 31
0.0
  0
LINE
  8
0
 10
12.427367576975556
 20
2.008013355541733
 30
0.0
 11
12.51550493567751
 21
2.0212689248182167
 31
0.0
  0
LINE
  8
0
 10
12.51550493567751
 20
2.0212689248182167
 30
0.0
 11
12.603642294379465
 21
2.0329553407672947
 31
0.0
  0
LINE
  8
0
 10
12.603642294379465
 20
2.0329553407672947
 30
0.0
 11
12.691779653081419
 21
2.043076234776847
 31
0.0
  0
LINE
  8
0
 10
12.691779653081419
 20
2.043076234776847
 30
0.0
 11
12.779917011783374
 21
2.051634751771031
 31
0.0
  0
LINE
  8
0
 10
12.779917011783374
 20
2.051634751771031
 30
0.0
 11
12.868054370485327
 21
2.058633551187522
 31
0.0
  0
LINE
  8
0
 10
12.868054370485327
 20
2.058633551187522
 30
0.0
 11
12.956191729187283
 21
2.064074807803899
 31
0.0
  0
LINE
  8
0
 10
12.956191729187283
 20
2.064074807803899
 30
0.0
 11
13.044329087889237
 21
2.067960212413422
 31
0.0
  0
LINE
  8
0
 10
13.044329087889237
 20
2.067960212413422
 30
0.0
 11
13.13246644659119
 21
2.070290972350426
 31
0.0
  0
LINE
  8
0
 10
13.13246644659119
 20
2.070290972350426
 30
0.0
 11
13.220603805293145
 21
2.0710678118654755
 31
0.0
  0
LINE
  8
0
 10
13.220603805293145
 20
2.0710678118654755
 30
0.0
 11
13.308741163995098
 21
2.070290972350426
 31
0.0
  0
LINE
  8
0
 10
13.308741163995098
 20
2.070290972350426
 30
0.0
 11
13.396878522697053
 21
2.067960212413422
 31
0.0
  0
LINE
  8
0
 10
13.396878522697053
 20
2.067960212413422
 30
0.0
 11
13.485015881399008
 21
2.064074807803899
 31
0.0
  0
LINE
  8
0
 10
13.485015881399008
 20
2.064074807803899
 30
0.0
 11
13.573153240100963
 21
2.058633551187522
 31
0.0
  0
LINE
  8
0
 10
13.573153240100963
 20
2.058633551187522
 30
0.0
 11
13.661290598802916
 21
2.051634751771031
 31
0.0
  0
LINE
  8
0
 10
13.661290598802916
 20
2.051634751771031
 30
0.0
 11
13.74942795750487
 21
2.043076234776847
 31
0.0
  0
LINE
  8
0
 10
13.74942795750487
 20
2.043076234776847
 30
0.0
 11
13.837565316206824
 21
2.0329553407672947
 31
0.0
  0
LINE
  8
0
 10
13.837565316206824
 20
2.0329553407672947
 30
0.0
 11
13.92570267490878
 21
2.0212689248182167
 31
0.0
  0
LINE
  8
0
 10
13.92570267490878
 20
2.0212689248182167
 30
0.0
 11
14.013840033610734
 21
2.008013355541733
 31
0.0
  0
LINE
  8
0
 10
14.013840033610734
 20
2.008013355541733
 30
0.0
 11
14.101977392312687
 21
1.993184513957841
 31
0.0
  0
LINE
  8
0
 10
14.101977392312687
 20
1.993184513957841
 30
0.0
 11
14.190114751014642
 21
1.9767777922144978
 31
0.0
  0
LINE
  8
0
 10
14.190114751014642
 20
1.9767777922144978
 30
0.0
 11
14.278252109716595
 21
1.9587880921557987
 31
0.0
  0
LINE
  8
0
 10
14.278252109716595
 20
1.9587880921557987
 30
0.0
 11
14.366389468418552
 21
1.9392098237377944
 31
0.0
  0
LINE
  8
0
 10
14.366389468418552
 20
1.9392098237377944
 30
0.0
 11
14.454526827120505
 21
1.91803690329147
 31
0.0
  0
LINE
  8
0
 10
14.454526827120505
 20
1.91803690329147
 30
0.0
 11
14.54266418582246
 21
1.8952627516323233
 31
0.0
  0
LINE
  8
0
 10
14.54266418582246
 20
1.8952627516323233
 30
0.0
 11
14.630801544524413
 21
1.8708802920159835
 31
0.0
  0
LINE
  8
0
 10
14.630801544524413
 20
1.8708802920159835
 30
0.0
 11
14.718938903226366
 21
1.844881947939209
 31
0.0
  0
LINE
  8
0
 10
14.718938903226366
 20
1.844881947939209
 30
0.0
 11
14.807076261928323
 21
1.8172596407855943
 31
0.0
  0
LINE
  8
0
 10
14.807076261928323
 20
1.8172596407855943
 30
0.0
 11
14.895213620630278
 21
1.7880047873152662
 31
0.0
  0
LINE
  8
0
 10
14.895213620630278
 20
1.7880047873152662
 30
0.0
 11
14.983350979332231
 21
1.7571082969977496
 31
0.0
  0
LINE
  8
0
 10
14.983350979332231
 20
1.7571082969977496
 30
0.0
 11
15.071488338034184
 21
1.724560569187223
 31
0.0
  0
LINE
  8
0
 10
15.071488338034184
 20
1.724560569187223
 30
0.0
 11
15.15962569673614
 21
1.6903514901392516
 31
0.0
  0
LINE
  8
0
 10
15.15962569673614
 20
1.6903514901392516
 30
0.0
 11
15.247763055438092
 21
1.6544704298680823
 31
0.0
  0
LINE
  8
0
 10
15.247763055438092
 20
1.6544704298680823
 30
0.0
 11
15.335900414140049
 21
1.6169062388435318
 31
0.0
  0
LINE
  8
0
 10
15.335900414140049
 20
1.6169062388435318
 30
0.0
 11
15.424037772842002
 21
1.5776472445264256
 31
0.0
  0
LINE
  8
0
 10
15.424037772842002
 20
1.5776472445264256
 30
0.0
 11
15.512175131543957
 21
1.5366812477415204
 31
0.0
  0
LINE
  8
0
 10
15.512175131543957
 20
1.5366812477415204
 30
0.0
 11
15.60031249024591
 21
1.4939955188867868
 31
0.0
  0
LINE
  8
0
 10
15.60031249024591
 20
1.4939955188867868
 30
0.0
 11
15.688449848947863
 21
1.4495767939778617
 31
0.0
  0
LINE
  8
0
 10
15.688449848947863
 20
1.4495767939778617
 30
0.0
 11
15.77658720764982
 21
1.4034112705264574
 31
0.0
  0
LINE
  8
0
 10
15.77658720764982
 20
1.4034112705264574
 30
0.0
 11
15.864724566351775
 21
1.355484603251437
 31
0.0
  0
LINE
  8
0
 10
15.864724566351775
 20
1.355484603251437
 30
0.0
 11
15.952861925053728
 21
1.3057818996212145
 31
0.0
  0
LINE
  8
0
 10
15.952861925053728
 20
1.3057818996212145
 30
0.0
 11
16.04099928375568
 21
1.2542877152261127
 31
0.0
  0
LINE
  8
0
 10
16.04099928375568
 20
1.2542877152261127
 30
0.0
 11
16.129136642457635
 21
1.2009860489792432
 31
0.0
  0
LINE
  8
0
 10
16.129136642457635
 20
1.2009860489792432
 30
0.0
 11
16.21727400115959
 21
1.1458603381443764
 31
0.0
  0
LINE
  8
0
 10
16.21727400115959
 20
1.1458603381443764
 30
0.0
 11
16.305411359861544
 21
1.0888934531893302
 31
0.0
  0
LINE
  8
0
 10
16.305411359861544
 20
1.0888934531893302
 30
0.0
 11
16.3935487185635
 21
1.0300676924631853
 31
0.0
  0
LINE
  8
0
 10
16.3935487185635
 20
1.0300676924631853
 30
0.0
 11
16.481686077265454
 21
0.9693647766957731
 31
0.0
  0
LINE
  8
0
 10
16.481686077265454
 20
0.9693647766957731
 30
0.0
 11
16.569823435967407
 21
0.9067658433176335
 31
0.0
  0
LINE
  8
0
 10
16.569823435967407
 20
0.9067658433176335
 30
0.0
 11
16.65796079466936
 21
0.8422514405987469
 31
0.0
  0
LINE
  8
0
 10
16.65796079466936
 20
0.8422514405987469
 30
0.0
 11
16.746098153371317
 21
0.7758015216041816
 31
0.0
  0
LINE
  8
0
 10
16.746098153371317
 20
0.7758015216041816
 30
0.0
 11
16.83423551207327
 21
0.7073954379648013
 31
0.0
  0
LINE
  8
0
 10
16.83423551207327
 20
0.7073954379648013
 30
0.0
 11
16.922372870775224
 21
0.6370119334610722
 31
0.0
  0
LINE
  8
0
 10
16.922372870775224
 20
0.6370119334610722
 30
0.0
 11
17.01051022947718
 21
0.5646291374179855
 31
0.0
  0
LINE
  8
0
 10
17.01051022947718
 20
0.5646291374179855
 30
0.0
 11
17.098647588179134
 21
0.4902245579090776
 31
0.0
  0
LINE
  8
0
 10
17.098647588179134
 20
0.4902245579090776
 30
0.0
 11
17.18678494688109
 21
0.413775074767357
 31
0.0
  0
LINE
  8
0
 10
17.18678494688109
 20
0.413775074767357
 30
0.0
 11
17.274922305583043
 21
0.3352569324010668
 31
0.0
  0
LINE
  8
0
 10
17.274922305583043
 20
0.3352569324010668
 30
0.0
 11
17.363059664284997
 21
0.2546457324119462
 31
0.0
  0
LINE
  8
0
 10
17.363059664284997
 20
0.2546457324119462
 30
0.0
 11
17.45119702298695
 21
0.1719164260137962
 31
0.0
  0
LINE
  8
0
 10
17.45119702298695
 20
0.1719164260137962
 30
0.0
 11
17.539334381688903
 21
0.08704330624890844
 31
0.0
  0
LINE
  8
0
 10
17.539334381688903
 20
0.08704330624890844
 30
0.0
 11
17.62747174039086
 21
8.881784197001252e-16
 31
0.0
  0
LINE
  8
0
 10
17.62747174039086
 20
8.881784197001252e-16
 30
0.0
 11
17.715609099092816
 21
0.08704330624890844
 31
0.0
  0
LINE
  8
0
 10
17.715609099092816
 20
0.08704330624890844
 30
0.0
 11
17.80374645779477
 21
0.1719164260137962
 31
0.0
  0
LINE
  8
0
 10
17.80374645779477
 20
0.1719164260137962
 30
0.0
 11
17.891883816496723
 21
0.2546457324119462
 31
0.0
  0
LINE
  8
0
 10
17.891883816496723
 20
0.2546457324119462
 30
0.0
 11
17.980021175198676
 21
0.3352569324010668
 31
0.0
  0
LINE
  8
0
 10
17.980021175198676
 20
0.3352569324010668
 30
0.0
 11
18.06815853390063
 21
0.413775074767357
 31
0.0
  0
LINE
  8
0
 10
18.06815853390063
 20
0.413775074767357
 30
0.0
 11
18.156295892602586
 21
0.4902245579090776
 31
0.0
  0
LINE
  8
0
 10
18.156295892602586
 20
0.4902245579090776
 30
0.0
 11
18.24443325130454
 21
0.5646291374179855
 31
0.0
  0
LINE
  8
0
 10
18.24443325130454
 20
0.5646291374179855
 30
0.0
 11
18.332570610006496
 21
0.6370119334610722
 31
0.0
  0
LINE
  8
0
 10
18.332570610006496
 20
0.6370119334610722
 30
0.0
 11
18.42070796870845
 21
0.7073954379648013
 31
0.0
  0
LINE
  8
0
 10
18.42070796870845
 20
0.7073954379648013
 30
0.0
 11
18.508845327410402
 21
0.7758015216041816
 31
0.0
  0
LINE
  8
0
 10
18.508845327410402
 20
0.7758015216041816
 30
0.0
 11
18.59698268611236
 21
0.8422514405987469
 31
0.0
  0
LINE
  8
0
 10
18.59698268611236
 20
0.8422514405987469
 30
0.0
 11
18.68512004481431
 21
0.9067658433176335
 31
0.0
  0
LINE
  8
0
 10
18.68512004481431
 20
0.9067658433176335
 30
0.0
 11
18.773257403516265
 21
0.9693647766957731
 31
0.0
  0
LINE
  8
0
 10
18.773257403516265
 20
0.9693647766957731
 30
0.0
 11
18.861394762218218
 21
1.0300676924631853
 31
0.0
  0
LINE
  8
0
 10
18.861394762218218
 20
1.0300676924631853
 30
0.0
 11
18.949532120920175
 21
1.0888934531893302
 31
0.0
  0
LINE
  8
0
 10
18.949532120920175
 20
1.0888934531893302
 30
0.0
 11
19.037669479622128
 21
1.1458603381443764
 31
0.0
  0
LINE
  8
0
 10
19.037669479622128
 20
1.1458603381443764
 30
0.0
 11
19.125806838324085
 21
1.2009860489792432
 31
0.0
  0
LINE
  8
0
 10
19.125806838324085
 20
1.2009860489792432
 30
0.0
 11
19.213944197026038
 21
1.2542877152261127
 31
0.0
  0
LINE
  8
0
 10
19.213944197026038
 20
1.2542877152261127
 30
0.0
 11
19.30208155572799
 21
1.3057818996212145
 31
0.0
  0
LINE
  8
0
 10
19.30208155572799
 20
1.3057818996212145
 30
0.0
 11
19.390218914429944
 21
1.355484603251437
 31
0.0
  0
LINE
  8
0
 10
19.390218914429944
 20
1.355484603251437
 30
0.0
 11
19.478356273131897
 21
1.4034112705264565
 31
0.0
  0
LINE
  8
0
 10
19.478356273131897
 20
1.4034112705264565
 30
0.0
 11
19.566493631833854
 21
1.4495767939778599
 31
0.0
  0
LINE
  8
0
 10
19.566493631833854
 20
1.4495767939778599
 30
0.0
 11
19.654630990535807
 21
1.4939955188867842
 31
0.0
  0
LINE
  8
0
 10
19.654630990535807
 20
1.4939955188867842
 30
0.0
 11
19.742768349237764
 21
1.5366812477415213
 31
0.0
  0
LINE
  8
0
 10
19.742768349237764
 20
1.5366812477415213
 30
0.0
 11
19.830905707939717
 21
1.5776472445264256
 31
0.0
  0
LINE
  8
0
 10
19.830905707939717
 20
1.5776472445264256
 30
0.0
 11
19.91904306664167
 21
1.6169062388435318
 31
0.0
  0
LINE
  8
0
 10
19.91904306664167
 20
1.6169062388435318
 30
0.0
 11
20.007180425343627
 21
1.6544704298680823
 31
0.0
  0
LINE
  8
0
 10
20.007180425343627
 20
1.6544704298680823
 30
0.0
 11
20.09531778404558
 21
1.6903514901392516
 31
0.0
  0
LINE
  8
0
 10
20.09531778404558
 20
1.6903514901392516
 30
0.0
 11
20.183455142747533
 21
1.7245605691872221
 31
0.0
  0
LINE
  8
0
 10
20.183455142747533
 20
1.7245605691872221
 30
0.0
 11
20.27159250144949
 21
1.7571082969977496
 31
0.0
  0
LINE
  8
0
 10
20.27159250144949
 20
1.7571082969977496
 30
0.0
 11
20.359729860151443
 21
1.7880047873152662
 31
0.0
  0
LINE
  8
0
 10
20.359729860151443
 20
1.7880047873152662
 30
0.0
 11
20.4478672188534
 21
1.8172596407855952
 31
0.0
  0
LINE
  8
0
 10
20.4478672188534
 20
1.8172596407855952
 30
0.0
 11
20.53600457755535
 21
1.8448819479392071
 31
0.0
  0
LINE
  8
0
 10
20.53600457755535
 20
1.8448819479392071
 30
0.0
 11
20.624141936257306
 21
1.8708802920159835
 31
0.0
  0
LINE
  8
0
 10
20.624141936257306
 20
1.8708802920159835
 30
0.0
 11
20.712279294959263
 21
1.895262751632325
 31
0.0
  0
LINE
  8
0
 10
20.712279294959263
 20
1.895262751632325
 30
0.0
 11
20.800416653661213
 21
1.91803690329147
 31
0.0
  0
LINE
  8
0
 10
20.800416653661213
 20
1.91803690329147
 30
0.0
 11
20.88855401236317
 21
1.9392098237377953
 31
0.0
  0
LINE
  8
0
 10
20.88855401236317
 20
1.9392098237377953
 30
0.0
 11
20.976691371065122
 21
1.9587880921557979
 31
0.0
  0
LINE
  8
0
 10
20.976691371065122
 20
1.9587880921557979
 30
0.0
 11
21.06482872976708
 21
1.9767777922144978
 31
0.0
  0
LINE
  8
0
 10
21.06482872976708
 20
1.9767777922144978
 30
0.0
 11
21.15296608846903
 21
1.993184513957841
 31
0.0
  0
LINE
  8
0
 10
21.15296608846903
 20
1.993184513957841
 30
0.0
 11
21.241103447170985
 21
2.008013355541733
 31
0.0
  0
LINE
  8
0
 10
21.241103447170985
 20
2.008013355541733
 30
0.0
 11
21.329240805872942
 21
2.0212689248182176
 31
0.0
  0
LINE
  8
0
 10
21.329240805872942
 20
2.0212689248182176
 30
0.0
 11
21.41737816457489
 21
2.0329553407672947
 31
0.0
  0
LINE
  8
0
 10
21.41737816457489
 20
2.0329553407672947
 30
0.0
 11
21.50551552327685
 21
2.043076234776847
 31
0.0
  0
LINE
  8
0
 10
21.50551552327685
 20
2.043076234776847
 30
0.0
 11
21.5936528819788
 21
2.051634751771031
 31
0.0
  0
LINE
  8
0
 10
21.5936528819788
 20
2.051634751771031
 30
0.0
 11
21.68179024068076
 21
2.058633551187522
 31
0.0
  0
LINE
  8
0
 10
21.68179024068076
 20
2.058633551187522
 30
0.0
 11
21.76992759938271
 21
2.064074807803899
 31
0.0
  0
LINE
  8
0
 10
21.76992759938271
 20
2.064074807803899
 30
0.0
 11
21.858064958084665
 21
2.067960212413422
 31
0.0
  0
LINE
  8
0
 10
21.858064958084665
 20
2.067960212413422
 30
0.0
 11
21.94620231678662
 21
2.070290972350426
 31
0.0
  0
LINE
  8
0
 10
21.94620231678662
 20
2.070290972350426
 30
0.0
 11
22.03433967548857
 21
2.0710678118654755
 31
0.0
  0
LINE
  8
0
 10
22.03433967548857
 20
2.0710678118654755
 30
0.0
 11
22.122477034190528
 21
2.070290972350426
 31
0.0
  0
LINE
  8
0
 10
22.122477034190528
 20
2.070290972350426
 30
0.0
 11
22.210614392892484
 21
2.067960212413422
 31
0.0
  0
LINE
  8
0
 10
22.210614392892484
 20
2.067960212413422
 30
0.0
 11
22.298751751594438
 21
2.064074807803899
 31
0.0
  0
LINE
  8
0
 10
22.298751751594438
 20
2.064074807803899
 30
0.0
 11
22.386889110296394
 21
2.058633551187522
 31
0.0
  0
LINE
  8
0
 10
22.386889110296394
 20
2.058633551187522
 30
0.0
 11
22.475026468998344
 21
2.051634751771031
 31
0.0
  0
LINE
  8
0
 10
22.475026468998344
 20
2.051634751771031
 30
0.0
 11
22.5631638277003
 21
2.043076234776847
 31
0.0
  0
LINE
  8
0
 10
22.5631638277003
 20
2.043076234776847
 30
0.0
 11
22.651301186402257
 21
2.0329553407672947
 31
0.0
  0
LINE
  8
0
 10
22.651301186402257
 20
2.0329553407672947
 30
0.0
 11
22.739438545104207
 21
2.0212689248182176
 31
0.0
  0
LINE
  8
0
 10
22.739438545104207
 20
2.0212689248182176
 30
0.0
 11
22.827575903806164
 21
2.008013355541733
 31
0.0
  0
LINE
  8
0
 10
22.827575903806164
 20
2.008013355541733
 30
0.0
 11
22.915713262508117
 21
1.993184513957841
 31
0.0
  0
LINE
  8
0
 10
22.915713262508117
 20
1.993184513957841
 30
0.0
 11
23.003850621210074
 21
1.976777792214497
 31
0.0
  0
LINE
  8
0
 10
23.003850621210074
 20
1.976777792214497
 30
0.0
 11
23.091987979912027
 21
1.9587880921557979
 31
0.0
  0
LINE
  8
0
 10
23.091987979912027
 20
1.9587880921557979
 30
0.0
 11
23.18012533861398
 21
1.9392098237377953
 31
0.0
  0
LINE
  8
0
 10
23.18012533861398
 20
1.9392098237377953
 30
0.0
 11
23.268262697315937
 21
1.91803690329147
 31
0.0
  0
LINE
  8
0
 10
23.268262697315937
 20
1.91803690329147
 30
0.0
 11
23.356400056017886
 21
1.895262751632325
 31
0.0
  0
LINE
  8
0
 10
23.356400056017886
 20
1.895262751632325
 30
0.0
 11
23.444537414719843
 21
1.8708802920159835
 31
0.0
  0
LINE
  8
0
 10
23.444537414719843
 20
1.8708802920159835
 30
0.0
 11
23.5326747734218
 21
1.8448819479392071
 31
0.0
  0
LINE
  8
0
 10
23.5326747734218
 20
1.8448819479392071
 30
0.0
 11
23.620812132123753
 21
1.8172596407855943
 31
0.0
  0
LINE
  8
0
 10
23.620812132123753
 20
1.8172596407855943
 30
0.0
 11
23.708949490825706
 21
1.7880047873152662
 31
0.0
  0
LINE
  8
0
 10
23.708949490825706
 20
1.7880047873152662
 30
0.0
 11
23.79708684952766
 21
1.7571082969977496
 31
0.0
  0
LINE
  8
0
 10
23.79708684952766
 20
1.7571082969977496
 30
0.0
 11
23.885224208229616
 21
1.7245605691872221
 31
0.0
  0
LINE
  8
0
 10
23.885224208229616
 20
1.7245605691872221
 30
0.0
 11
23.973361566931572
 21
1.690351490139249
 31
0.0
  0
LINE
  8
0
 10
23.973361566931572
 20
1.690351490139249
 30
0.0
 11
24.061498925633522
 21
1.6544704298680823
 31
0.0
  0
LINE
  8
0
 10
24.061498925633522
 20
1.6544704298680823
 30
0.0
 11
24.14963628433548
 21
1.6169062388435318
 31
0.0
  0
LINE
  8
0
 10
24.14963628433548
 20
1.6169062388435318
 30
0.0
 11
24.237773643037432
 21
1.5776472445264256
 31
0.0
  0
LINE
  8
0
 10
24.237773643037432
 20
1.5776472445264256
 30
0.0
 11
24.325911001739385
 21
1.5366812477415213
 31
0.0
  0
LINE
  8
0
 10
24.325911001739385
 20
1.5366812477415213
 30
0.0
 11
24.41404836044134
 21
1.4939955188867868
 31
0.0
  0
LINE
  8
0
 10
24.41404836044134
 20
1.4939955188867868
 30
0.0
 11
24.502185719143295
 21
1.4495767939778599
 31
0.0
  0
LINE
  8
0
 10
24.502185719143295
 20
1.4495767939778599
 30
0.0
 11
24.59032307784525
 21
1.4034112705264565
 31
0.0
  0
LINE
  8
0
 10
24.59032307784525
 20
1.4034112705264565
 30
0.0
 11
24.6784604365472
 21
1.3554846032514387
 31
0.0
  0
LINE
  8
0
 10
24.6784604365472
 20
1.3554846032514387
 30
0.0
 11
24.766597795249158
 21
1.3057818996212145
 31
0.0
  0
LINE
  8
0
 10
24.766597795249158
 20
1.3057818996212145
 30
0.0
 11
24.85473515395111
 21
1.2542877152261127
 31
0.0
  0
LINE
  8
0
 10
24.85473515395111
 20
1.2542877152261127
 30
0.0
 11
24.942872512653068
 21
1.2009860489792406
 31
0.0
  0
LINE
  8
0
 10
24.942872512653068
 20
1.2009860489792406
 30
0.0
 11
25.03100987135502
 21
1.1458603381443764
 31
0.0
  0
LINE
  8
0
 10
25.03100987135502
 20
1.1458603381443764
 30
0.0
 11
25.119147230056974
 21
1.0888934531893302
 31
0.0
  0
LINE
  8
0
 10
25.119147230056974
 20
1.0888934531893302
 30
0.0
 11
25.20728458875893
 21
1.0300676924631853
 31
0.0
  0
LINE
  8
0
 10
25.20728458875893
 20
1.0300676924631853
 30
0.0
 11
25.29542194746088
 21
0.9693647766957767
 31
0.0
  0
LINE
  8
0
 10
25.29542194746088
 20
0.9693647766957767
 30
0.0
 11
25.383559306162837
 21
0.9067658433176335
 31
0.0
  0
LINE
  8
0
 10
25.383559306162837
 20
0.9067658433176335
 30
0.0
 11
25.471696664864794
 21
0.8422514405987434
 31
0.0
  0
LINE
  8
0
 10
25.471696664864794
 20
0.8422514405987434
 30
0.0
 11
25.559834023566747
 21
0.7758015216041816
 31
0.0
  0
LINE
  8
0
 10
25.559834023566747
 20
0.7758015216041816
 30
0.0
 11
25.6479713822687
 21
0.7073954379648013
 31
0.0
  0
LINE
  8
0
 10
25.6479713822687
 20
0.7073954379648013
 30
0.0
 11
25.736108740970653
 21
0.6370119334610722
 31
0.0
  0
LINE
  8
0
 10
25.736108740970653
 20
0.6370119334610722
 30
0.0
 11
25.82424609967261
 21
0.5646291374179855
 31
0.0
  0
LINE
  8
0
 10
25.82424609967261
 20
0.5646291374179855
 30
0.0
 11
25.912383458374567
 21
0.49022455790907493
 31
0.0
  0
LINE
  8
0
 10
25.912383458374567
 20
0.49022455790907493
 30
0.0
 11
26.000520817076517
 21
0.41377507476735964
 31
0.0
  0
LINE
  8
0
 10
26.000520817076517
 20
0.41377507476735964
 30
0.0
 11
26.088658175778473
 21
0.3352569324010668
 31
0.0
  0
LINE
  8
0
 10
26.088658175778473
 20
0.3352569324010668
 30
0.0
 11
26.176795534480426
 21
0.2546457324119462
 31
0.0
  0
LINE
  8
0
 10
26.176795534480426
 20
0.2546457324119462
 30
0.0
 11
26.26493289318238
 21
0.1719164260137962
 31
0.0
  0
LINE
  8
0
 10
26.26493289318238
 20
0.1719164260137962
 30
0.0
 11
26.353070251884336
 21
0.08704330624890488
 31
0.0
  0
LINE
  8
0
 10
26.353070251884336
 20
0.08704330624890488
 30
0.0
 11
26.44120761058629
 21
8.881784197001252e-16
 31
0.0
  0
LINE
  8
0
 10
26.44120761058629
 20
8.881784197001252e-16
 30
0.0
 11
26.529344969288246
 21
0.08704330624890844
 31
0.0
  0
LINE
  8
0
 10
26.529344969288246
 20
0.08704330624890844
 30
0.0
 11
26.617482327990196
 21
0.17191642601379264
 31
0.0
  0
LINE
  8
0
 10
26.617482327990196
 20
0.17191642601379264
 30
0.0
 11
26.705619686692152
 21
0.2546457324119462
 31
0.0
  0
LINE
  8
0
 10
26.705619686692152
 20
0.2546457324119462
 30
0.0
 11
26.793757045394106
 21
0.3352569324010668
 31
0.0
  0
LINE
  8
0
 10
26.793757045394106
 20
0.3352569324010668
 30
0.0
 11
26.88189440409606
 21
0.413775074767357
 31
0.0
  0
LINE
  8
0
 10
26.88189440409606
 20
0.413775074767357
 30
0.0
 11
26.970031762798016
 21
0.4902245579090776
 31
0.0
  0
LINE
  8
0
 10
26.970031762798016
 20
0.4902245579090776
 30
0.0
 11
27.05816912149997
 21
0.5646291374179855
 31
0.0
  0
LINE
  8
0
 10
27.05816912149997
 20
0.5646291374179855
 30
0.0
 11
27.146306480201925
 21
0.6370119334610722
 31
0.0
  0
LINE
  8
0
 10
27.146306480201925
 20
0.6370119334610722
 30
0.0
 11
27.234443838903875
 21
0.7073954379647995
 31
0.0
  0
LINE
  8
0
 10
27.234443838903875
 20
0.7073954379647995
 30
0.0
 11
27.32258119760583
 21
0.7758015216041816
 31
0.0
  0
LINE
  8
0
 10
27.32258119760583
 20
0.7758015216041816
 30
0.0
 11
27.41071855630779
 21
0.8422514405987469
 31
0.0
  0
LINE
  8
0
 10
27.41071855630779
 20
0.8422514405987469
 30
0.0
 11
27.49885591500974
 21
0.9067658433176335
 31
0.0
  0
LINE
  8
0
 10
27.49885591500974
 20
0.9067658433176335
 30
0.0
 11
27.586993273711695
 21
0.9693647766957731
 31
0.0
  0
LINE
  8
0
 10
27.586993273711695
 20
0.9693647766957731
 30
0.0
 11
27.675130632413648
 21
1.0300676924631853
 31
0.0
  0
LINE
  8
0
 10
27.675130632413648
 20
1.0300676924631853
 30
0.0
 11
27.763267991115605
 21
1.0888934531893302
 31
0.0
  0
LINE
  8
0
 10
27.763267991115605
 20
1.0888934531893302
 30
0.0
 11
27.85140534981756
 21
1.145860338144379
 31
0.0
  0
LINE
  8
0
 10
27.85140534981756
 20
1.145860338144379
 30
0.0
 11
27.93954270851951
 21
1.2009860489792406
 31
0.0
  0
LINE
  8
0
 10
27.93954270851951
 20
1.2009860489792406
 30
0.0
 11
28.027680067221468
 21
1.2542877152261127
 31
0.0
  0
LINE
  8
0
 10
28.027680067221468
 20
1.2542877152261127
 30
0.0
 11
28.11581742592342
 21
1.3057818996212145
 31
0.0
  0
LINE
  8
0
 10
28.11581742592342
 20
1.3057818996212145
 30
0.0
 11
28.203954784625374
 21
1.355484603251437
 31
0.0
  0
LINE
  8
0
 10
28.203954784625374
 20
1.355484603251437
 30
0.0
 11
28.29209214332733
 21
1.4034112705264583
 31
0.0
  0
LINE
  8
0
 10
28.29209214332733
 20
1.4034112705264583
 30
0.0
 11
28.380229502029284
 21
1.4495767939778599
 31
0.0
  0
LINE
  8
0
 10
28.380229502029284
 20
1.4495767939778599
 30
0.0
 11
28.46836686073124
 21
1.4939955188867868
 31
0.0
  0
LINE
  8
0
 10
28.46836686073124
 20
1.4939955188867868
 30
0.0
 11
28.55650421943319
 21
1.5366812477415195
 31
0.0
  0
LINE
  8
0
 10
28.55650421943319
 20
1.5366812477415195
 30
0.0
 11
28.644641578135147
 21
1.5776472445264256
 31
0.0
  0
LINE
  8
0
 10
28.644641578135147
 20
1.5776472445264256
 30
0.0
 11
28.732778936837104
 21
1.6169062388435327
 31
0.0
  0
LINE
  8
0
 10
28.732778936837104
 20
1.6169062388435327
 30
0.0
 11
28.820916295539053
 21
1.6544704298680806
 31
0.0
  0
LINE
  8
0
 10
28.820916295539053
 20
1.6544704298680806
 30
0.0
 11
28.90905365424101
 21
1.6903514901392516
 31
0.0
  0
LINE
  8
0
 10
28.90905365424101
 20
1.6903514901392516
 30
0.0
 11
28.997191012942963
 21
1.7245605691872221
 31
0.0
  0
LINE
  8
0
 10
28.997191012942963
 20
1.7245605691872221
 30
0.0
 11
29.08532837164492
 21
1.7571082969977496
 31
0.0
  0
LINE
  8
0
 10
29.08532837164492
 20
1.7571082969977496
 30
0.0
 11
29.173465730346877
 21
1.788004787315268
 31
0.0
  0
LINE
  8
0
 10
29.173465730346877
 20
1.788004787315268
 30
0.0
 11
29.261603089048826
 21
1.8172596407855943
 31
0.0
  0
LINE
  8
0
 10
29.261603089048826
 20
1.8172596407855943
 30
0.0
 11
29.349740447750783
 21
1.844881947939209
 31
0.0
  0
LINE
  8
0
 10
29.349740447750783
 20
1.844881947939209
 30
0.0
 11
29.437877806452732
 21
1.8708802920159826
 31
0.0
  0
LINE
  8
0
 10
29.437877806452732
 20
1.8708802920159826
 30
0.0
 11
29.52601516515469
 21
1.8952627516323233
 31
0.0
  0
LINE
  8
0
 10
29.52601516515469
 20
1.8952627516323233
 30
0.0
 11
29.614152523856646
 21
1.9180369032914708
 31
0.0
  0
LINE
  8
0
 10
29.614152523856646
 20
1.9180369032914708
 30
0.0
 11
29.7022898825586
 21
1.9392098237377953
 31
0.0
  0
LINE
  8
0
 10
29.7022898825586
 20
1.9392098237377953
 30
0.0
 11
29.790427241260556
 21
1.9587880921557987
 31
0.0
  0
LINE
  8
0
 10
29.790427241260556
 20
1.9587880921557987
 30
0.0
 11
29.878564599962505
 21
1.976777792214497
 31
0.0
  0
LINE
  8
0
 10
29.878564599962505
 20
1.976777792214497
 30
0.0
 11
29.966701958664462
 21
1.993184513957841
 31
0.0
  0
LINE
  8
0
 10
29.966701958664462
 20
1.993184513957841
 30
0.0
 11
30.054839317366415
 21
2.008013355541733
 31
0.0
  0
LINE
  8
0
 10
30.054839317366415
 20
2.008013355541733
 30
0.0
 11
30.14297667606837
 21
2.0212689248182167
 31
0.0
  0
LINE
  8
0
 10
30.14297667606837
 20
2.0212689248182167
 30
0.0
 11
30.231114034770325
 21
2.0329553407672947
 31
0.0
  0
LINE
  8
0
 10
30.231114034770325
 20
2.0329553407672947
 30
0.0
 11
30.31925139347228
 21
2.043076234776847
 31
0.0
  0
LINE
  8
0
 10
30.31925139347228
 20
2.043076234776847
 30
0.0
 11
30.407388752174235
 21
2.051634751771031
 31
0.0
  0
LINE
  8
0
 10
30.407388752174235
 20
2.051634751771031
 30
0.0
 11
30.495526110876185
 21
2.058633551187522
 31
0.0
  0
LINE
  8
0
 10
30.495526110876185
 20
2.058633551187522
 30
0.0
 11
30.58366346957814
 21
2.064074807803899
 31
0.0
  0
LINE
  8
0
 10
30.58366346957814
 20
2.064074807803899
 30
0.0
 11
30.671800828280098
 21
2.067960212413423
 31
0.0
  0
LINE
  8
0
 10
30.671800828280098
 20
2.067960212413423
 30
0.0
 11
30.759938186982048
 21
2.070290972350426
 31
0.0
  0
LINE
  8
0
 10
30.759938186982048
 20
2.070290972350426
 30
0.0
 11
30.848075545684004
 21
2.0710678118654755
 31
0.0
  0
LINE
  8
0
 10
30.848075545684004
 20
2.0710678118654755
 30
0.0
 11
30.936212904385958
 21
2.070290972350426
 31
0.0
  0
LINE
  8
0
 10
30.936212904385958
 20
2.070290972350426
 30
0.0
 11
31.024350263087914
 21
2.067960212413422
 31
0.0
  0
LINE
  8
0
 10
31.024350263087914
 20
2.067960212413422
 30
0.0
 11
31.112487621789867
 21
2.064074807803899
 31
0.0
  0
LINE
  8
0
 10
31.112487621789867
 20
2.064074807803899
 30
0.0
 11
31.20062498049182
 21
2.058633551187522
 31
0.0
  0
LINE
  8
0
 10
31.20062498049182
 20
2.058633551187522
 30
0.0
 11
31.288762339193777
 21
2.051634751771031
 31
0.0
  0
LINE
  8
0
 10
31.288762339193777
 20
2.051634751771031
 30
0.0
 11
31.376899697895727
 21
2.043076234776847
 31
0.0
  0
LINE
  8
0
 10
31.376899697895727
 20
2.043076234776847
 30
0.0
 11
31.465037056597684
 21
2.0329553407672947
 31
0.0
  0
LINE
  8
0
 10
31.465037056597684
 20
2.0329553407672947
 30
0.0
 11
31.55317441529964
 21
2.0212689248182167
 31
0.0
  0
LINE
  8
0
 10
31.55317441529964
 20
2.0212689248182167
 30
0.0
 11
31.641311774001593
 21
2.008013355541733
 31
0.0
  0
LINE
  8
0
 10
31.641311774001593
 20
2.008013355541733
 30
0.0
 11
31.72944913270355
 21
1.993184513957841
 31
0.0
  0
LINE
  8
0
 10
31.72944913270355
 20
1.993184513957841
 30
0.0
 11
31.8175864914055
 21
1.9767777922144978
 31
0.0
  0
LINE
  8
0
 10
31.8175864914055
 20
1.9767777922144978
 30
0.0
 11
31.905723850107456
 21
1.9587880921557979
 31
0.0
  0
LINE
  8
0
 10
31.905723850107456
 20
1.9587880921557979
 30
0.0
 11
31.993861208809413
 21
1.9392098237377944
 31
0.0
  0
LINE
  8
0
 10
31.993861208809413
 20
1.9392098237377944
 30
0.0
 11
32.08199856751136
 21
1.9180369032914708
 31
0.0
  0
LINE
  8
0
 10
32.08199856751136
 20
1.9180369032914708
 30
0.0
 11
32.17013592621332
 21
1.8952627516323233
 31
0.0
  0
LINE
  8
0
 10
32.17013592621332
 20
1.8952627516323233
 30
0.0
 11
32.25827328491527
 21
1.8708802920159844
 31
0.0
  0
LINE
  8
0
 10
32.25827328491527
 20
1.8708802920159844
 30
0.0
 11
32.346410643617226
 21
1.844881947939209
 31
0.0
  0
LINE
  8
0
 10
32.346410643617226
 20
1.844881947939209
 30
0.0
 11
32.43454800231918
 21
1.8172596407855943
 31
0.0
  0
LINE
  8
0
 10
32.43454800231918
 20
1.8172596407855943
 30
0.0
 11
32.52268536102113
 21
1.788004787315268
 31
0.0
  0
LINE
  8
0
 10
32.52268536102113
 20
1.788004787315268
 30
0.0
 11
32.61082271972309
 21
1.7571082969977496
 31
0.0
  0
LINE
  8
0
 10
32.61082271972309
 20
1.7571082969977496
 30
0.0
 11
32.698960078425046
 21
1.7245605691872221
 31
0.0
  0
LINE
  8
0
 10
32.698960078425046
 20
1.7245605691872221
 30
0.0
 11
32.787097437127
 21
1.690351490139249
 31
0.0
  0
LINE
  8
0
 10
32.787097437127
 20
1.690351490139249
 30
0.0
 11
32.87523479582895
 21
1.6544704298680823
 31
0.0
  0
LINE
  8
0
 10
32.87523479582895
 20
1.6544704298680823
 30
0.0
 11
32.96337215453091
 21
1.6169062388435318
 31
0.0
  0
LINE
  8
0
 10
32.96337215453091
 20
1.6169062388435318
 30
0.0
 11
33.051509513232865
 21
1.5776472445264247
 31
0.0
  0
LINE
  8
0
 10
33.051509513232865
 20
1.5776472445264247
 30
0.0
 11
33.139646871934815
 21
1.5366812477415213
 31
0.0
  0
LINE
  8
0
 10
33.139646871934815
 20
1.5366812477415213
 30
0.0
 11
33.22778423063677
 21
1.4939955188867842
 31
0.0
  0
LINE
  8
0
 10
33.22778423063677
 20
1.4939955188867842
 30
0.0
 11
33.31592158933872
 21
1.4495767939778625
 31
0.0
  0
LINE
  8
0
 10
33.31592158933872
 20
1.4495767939778625
 30
0.0
 11
33.40405894804068
 21
1.4034112705264583
 31
0.0
  0
LINE
  8
0
 10
33.40405894804068
 20
1.4034112705264583
 30
0.0
 11
33.492196306742635
 21
1.355484603251437
 31
0.0
  0
LINE
  8
0
 10
33.492196306742635
 20
1.355484603251437
 30
0.0
 11
33.580333665444584
 21
1.3057818996212154
 31
0.0
  0
LINE
  8
0
 10
33.580333665444584
 20
1.3057818996212154
 30
0.0
 11
33.66847102414654
 21
1.2542877152261127
 31
0.0
  0
LINE
  8
0
 10
33.66847102414654
 20
1.2542877152261127
 30
0.0
 11
33.7566083828485
 21
1.2009860489792406
 31
0.0
  0
LINE
  8
0
 10
33.7566083828485
 20
1.2009860489792406
 30
0.0
 11
33.84474574155045
 21
1.145860338144379
 31
0.0
  0
LINE
  8
0
 10
33.84474574155045
 20
1.145860338144379
 30
0.0
 11
33.932883100252404
 21
1.0888934531893302
 31
0.0
  0
LINE
  8
0
 10
33.932883100252404
 20
1.0888934531893302
 30
0.0
 11
34.02102045895436
 21
1.0300676924631853
 31
0.0
  0
LINE
  8
0
 10
34.02102045895436
 20
1.0300676924631853
 30
0.0
 11
34.10915781765632
 21
0.9693647766957714
 31
0.0
  0
LINE
  8
0
 10
34.10915781765632
 20
0.9693647766957714
 30
0.0
 11
34.19729517635827
 21
0.9067658433176335
 31
0.0
  0
LINE
  8
0
 10
34.19729517635827
 20
0.9067658433176335
 30
0.0
 11
34.285432535060224
 21
0.8422514405987434
 31
0.0
  0
LINE
  8
0
 10
34.285432535060224
 20
0.8422514405987434
 30
0.0
 11
34.37356989376218
 21
0.775801521604178
 31
0.0
  0
LINE
  8
0
 10
34.37356989376218
 20
0.775801521604178
 30
0.0
 11
34.46170725246413
 21
0.7073954379648013
 31
0.0
  0
LINE
  8
0
 10
34.46170725246413
 20
0.7073954379648013
 30
0.0
 11
34.54984461116609
 21
0.6370119334610695
 31
0.0
  0
LINE
  8
0
 10
34.54984461116609
 20
0.6370119334610695
 30
0.0
 11
34.63798196986804
 21
0.564629137417989
 31
0.0
  0
LINE
  8
0
 10
34.63798196986804
 20
0.564629137417989
 30
0.0
 11
34.72611932856999
 21
0.4902245579090776
 31
0.0
  0
LINE
  8
0
 10
34.72611932856999
 20
0.4902245579090776
 30
0.0
 11
34.81425668727195
 21
0.413775074767357
 31
0.0
  0
LINE
  8
0
 10
34.81425668727195
 20
0.413775074767357
 30
0.0
 11
34.9023940459739
 21
0.33525693240106946
 31
0.0
  0
LINE
  8
0
 10
34.9023940459739
 20
0.33525693240106946
 30
0.0
 11
34.990531404675856
 21
0.2546457324119462
 31
0.0
  0
LINE
  8
0
 10
34.990531404675856
 20
0.2546457324119462
 30
0.0
 11
35.078668763377806
 21
0.17191642601379975
 31
0.0
  0
LINE
  8
0
 10
35.078668763377806
 20
0.17191642601379975
 30
0.0
 11
35.16680612207976
 21
0.08704330624890844
 31
0.0
  0
LINE
  8
0
 10
35.16680612207976
 20
0.08704330624890844
 30
0.0
 11
35.25494348078172
 21
8.881784197001252e-16
 31
0.0
  0
LINE
  8
0
 10
35.25494348078172
 20
8.881784197001252e-16
 30
0.0
 11
35.343080839483676
 21
0.08704330624890844
 31
0.0
  0
LINE
  8
0
 10
35.343080839483676
 20
0.08704330624890844
 30
0.0
 11
35.43121819818563
 21
0.17191642601379975
 31
0.0
  0
LINE
  8
0
 10
35.43121819818563
 20
0.17191642601379975
 30
0.0
 11
35.51935555688758
 21
0.2546457324119462
 31
0.0
  0
LINE
  8
0
 10
35.51935555688758
 20
0.2546457324119462
 30
0.0
 11
35.60749291558954
 21
0.33525693240106946
 31
0.0
  0
LINE
  8
0
 10
35.60749291558954
 20
0.33525693240106946
 30
0.0
 11
35.69563027429149
 21
0.413775074767357
 31
0.0
  0
LINE
  8
0
 10
35.69563027429149
 20
0.413775074767357
 30
0.0
 11
35.783767632993445
 21
0.4902245579090776
 31
0.0
  0
LINE
  8
0
 10
35.783767632993445
 20
0.4902245579090776
 30
0.0
 11
35.8719049916954
 21
0.564629137417989
 31
0.0
  0
LINE
  8
0
 10
35.8719049916954
 20
0.564629137417989
 30
0.0
 11
35.96004235039735
 21
0.6370119334610695
 31
0.0
  0
LINE
  8
0
 10
35.96004235039735
 20
0.6370119334610695
 30
0.0
 11
36.04817970909931
 21
0.7073954379648013
 31
0.0
  0
LINE
  8
0
 10
36.04817970909931
 20
0.7073954379648013
 30
0.0
 11
36.13631706780126
 21
0.775801521604178
 31
0.0
  0
LINE
  8
0
 10
36.13631706780126
 20
0.775801521604178
 30
0.0
 11
36.224454426503215
 21
0.8422514405987434
 31
0.0
  0
LINE
  8
0
 10
36.224454426503215
 20
0.8422514405987434
 30
0.0
 11
36.31259178520517
 21
0.9067658433176335
 31
0.0
  0
LINE
  8
0
 10
36.31259178520517
 20
0.9067658433176335
 30
0.0
 11
36.40072914390712
 21
0.9693647766957714
 31
0.0
  0
LINE
  8
0
 10
36.40072914390712
 20
0.9693647766957714
 30
0.0
 11
36.48886650260908
 21
1.0300676924631853
 31
0.0
  0
LINE
  8
0
 10
36.48886650260908
 20
1.0300676924631853
 30
0.0
 11
36.577003861311034
 21
1.0888934531893302
 31
0.0
  0
LINE
  8
0
 10
36.577003861311034
 20
1.0888934531893302
 30
0.0
 11
36.66514122001299
 21
1.145860338144379
 31
0.0
  0
LINE
  8
0
 10
36.66514122001299
 20
1.145860338144379
 30
0.0
 11
36.75327857871494
 21
1.2009860489792406
 31
0.0
  0
LINE
  8
0
 10
36.75327857871494
 20
1.2009860489792406
 30
0.0
 11
36.8414159374169
 21
1.2542877152261127
 31
0.0
  0
LINE
  8
0
 10
36.8414159374169
 20
1.2542877152261127
 30
0.0
 11
36.929553296118854
 21
1.3057818996212154
 31
0.0
  0
LINE
  8
0
 10
36.929553296118854
 20
1.3057818996212154
 30
0.0
 11
37.017690654820804
 21
1.355484603251437
 31
0.0
  0
LINE
  8
0
 10
37.017690654820804
 20
1.355484603251437
 30
0.0
 11
37.10582801352276
 21
1.4034112705264583
 31
0.0
  0
LINE
  8
0
 10
37.10582801352276
 20
1.4034112705264583
 30
0.0
 11
37.19396537222472
 21
1.4495767939778625
 31
0.0
  0
LINE
  8
0
 10
37.19396537222472
 20
1.4495767939778625
 30
0.0
 11
37.28210273092667
 21
1.4939955188867842
 31
0.0
  0
LINE
  8
0
 10
37.28210273092667
 20
1.4939955188867842
 30
0.0
 11
37.37024008962862
 21
1.5366812477415213
 31
0.0
  0
LINE
  8
0
 10
37.37024008962862
 20
1.5366812477415213
 30
0.0
 11
37.45837744833057
 21
1.5776472445264247
 31
0.0
  0
LINE
  8
0
 10
37.45837744833057
 20
1.5776472445264247
 30
0.0
 11
37.54651480703253
 21
1.6169062388435318
 31
0.0
  0
LINE
  8
0
 10
37.54651480703253
 20
1.6169062388435318
 30
0.0
 11
37.63465216573449
 21
1.6544704298680823
 31
0.0
  0
LINE
  8
0
 10
37.63465216573449
 20
1.6544704298680823
 30
0.0
 11
37.722789524436436
 21
1.690351490139249
 31
0.0
  0
LINE
  8
0
 10
37.722789524436436
 20
1.690351490139249
 30
0.0
 11
37.81092688313839
 21
1.7245605691872221
 31
0.0
  0
LINE
  8
0
 10
37.81092688313839
 20
1.7245605691872221
 30
0.0
 11
37.89906424184035
 21
1.7571082969977496
 31
0.0
  0
LINE
  8
0
 10
37.89906424184035
 20
1.7571082969977496
 30
0.0
 11
37.987201600542306
 21
1.788004787315268
 31
0.0
  0
LINE
  8
0
 10
37.987201600542306
 20
1.788004787315268
 30
0.0
 11
38.075338959244256
 21
1.8172596407855943
 31
0.0
  0
LINE
  8
0
 10
38.075338959244256
 20
1.8172596407855943
 30
0.0
 11
38.16347631794621
 21
1.844881947939209
 31
0.0
  0
LINE
  8
0
 10
38.16347631794621
 20
1.844881947939209
 30
0.0
 11
38.25161367664817
 21
1.8708802920159844
 31
0.0
  0
LINE
  8
0
 10
38.25161367664817
 20
1.8708802920159844
 30
0.0
 11
38.33975103535012
 21
1.8952627516323233
 31
0.0
  0
LINE
  8
0
 10
38.33975103535012
 20
1.8952627516323233
 30
0.0
 11
38.427888394052076
 21
1.9180369032914708
 31
0.0
  0
LINE
  8
0
 10
38.427888394052076
 20
1.9180369032914708
 30
0.0
 11
38.516025752754025
 21
1.9392098237377944
 31
0.0
  0
LINE
  8
0
 10
38.516025752754025
 20
1.9392098237377944
 30
0.0
 11
38.60416311145598
 21
1.9587880921557979
 31
0.0
  0
LINE
  8
0
 10
38.60416311145598
 20
1.9587880921557979
 30
0.0
 11
38.69230047015794
 21
1.9767777922144978
 31
0.0
  0
LINE
  8
0
 10
38.69230047015794
 20
1.9767777922144978
 30
0.0
 11
38.78043782885989
 21
1.993184513957841
 31
0.0
  0
LINE
  8
0
 10
38.78043782885989
 20
1.993184513957841
 30
0.0
 11
38.868575187561845
 21
2.008013355541733
 31
0.0
  0
LINE
  8
0
 10
38.868575187561845
 20
2.008013355541733
 30
0.0
 11
38.956712546263795
 21
2.0212689248182167
 31
0.0
  0
LINE
  8
0
 10
38.956712546263795
 20
2.0212689248182167
 30
0.0
 11
39.04484990496575
 21
2.0329553407672947
 31
0.0
  0
LINE
  8
0
 10
39.04484990496575
 20
2.0329553407672947
 30
0.0
 11
39.13298726366771
 21
2.043076234776847
 31
0.0
  0
LINE
  8
0
 10
39.13298726366771
 20
2.043076234776847
 30
0.0
 11
39.221124622369665
 21
2.051634751771031
 31
0.0
  0
LINE
  8
0
 10
39.221124622369665
 20
2.051634751771031
 30
0.0
 11
39.309261981071614
 21
2.058633551187522
 31
0.0
  0
LINE
  8
0
 10
39.309261981071614
 20
2.058633551187522
 30
0.0
 11
39.39739933977357
 21
2.064074807803899
 31
0.0
  0
LINE
  8
0
 10
39.39739933977357
 20
2.064074807803899
 30
0.0
 11
39.48553669847553
 21
2.067960212413423
 31
0.0
  0
LINE
  8
0
 10
39.48553669847553
 20
2.067960212413423
 30
0.0
 11
39.573674057177485
 21
2.070290972350426
 31
0.0
  0
LINE
  8
0
 10
39.573674057177485
 20
2.070290972350426
 30
0.0
 11
39.661811415879434
 21
2.0710678118654755
 31
0.0
  0
LINE
  8
0
 10
39.661811415879434
 20
2.0710678118654755
 30
0.0
 11
39.74994877458139
 21
2.070290972350426
 31
0.0
  0
LINE
  8
0
 10
39.74994877458139
 20
2.070290972350426
 30
0.0
 11
39.83808613328334
 21
2.067960212413423
 31
0.0
  0
LINE
  8
0
 10
39.83808613328334
 20
2.067960212413423
 30
0.0
 11
39.9262234919853
 21
2.064074807803899
 31
0.0
  0
LINE
  8
0
 10
39.9262234919853
 20
2.064074807803899
 30
0.0
 11
40.014360850687254
 21
2.058633551187522
 31
0.0
  0
LINE
  8
0
 10
40.014360850687254
 20
2.058633551187522
 30
0.0
 11
40.1024982093892
 21
2.051634751771031
 31
0.0
  0
LINE
  8
0
 10
40.1024982093892
 20
2.051634751771031
 30
0.0
 11
40.19063556809116
 21
2.043076234776847
 31
0.0
  0
LINE
  8
0
 10
40.19063556809116
 20
2.043076234776847
 30
0.0
 11
40.27877292679311
 21
2.0329553407672964
 31
0.0
  0
LINE
  8
0
 10
40.27877292679311
 20
2.0329553407672964
 30
0.0
 11
40.36691028549507
 21
2.0212689248182176
 31
0.0
  0
LINE
  8
0
 10
40.36691028549507
 20
2.0212689248182176
 30
0.0
 11
40.45504764419702
 21
2.008013355541733
 31
0.0
  0
LINE
  8
0
 10
40.45504764419702
 20
2.008013355541733
 30
0.0
 11
40.54318500289898
 21
1.993184513957841
 31
0.0
  0
LINE
  8
0
 10
40.54318500289898
 20
1.993184513957841
 30
0.0
 11
40.63132236160093
 21
1.9767777922144978
 31
0.0
  0
LINE
  8
0
 10
40.63132236160093
 20
1.9767777922144978
 30
0.0
 11
40.719459720302886
 21
1.9587880921557979
 31
0.0
  0
LINE
  8
0
 10
40.719459720302886
 20
1.9587880921557979
 30
0.0
 11
40.80759707900484
 21
1.9392098237377944
 31
0.0
  0
LINE
  8
0
 10
40.80759707900484
 20
1.9392098237377944
 30
0.0
 11
40.8957344377068
 21
1.918036903291469
 31
0.0
  0
LINE
  8
0
 10
40.8957344377068
 20
1.918036903291469
 30
0.0
 11
40.98387179640875
 21
1.8952627516323233
 31
0.0
  0
LINE
  8
0
 10
40.98387179640875
 20
1.8952627516323233
 30
0.0
 11
41.0720091551107
 21
1.8708802920159844
 31
0.0
  0
LINE
  8
0
 10
41.0720091551107
 20
1.8708802920159844
 30
0.0
 11
41.16014651381266
 21
1.8448819479392062
 31
0.0
  0
LINE
  8
0
 10
41.16014651381266
 20
1.8448819479392062
 30
0.0
 11
41.24828387251461
 21
1.8172596407855943
 31
0.0
  0
LINE
  8
0
 10
41.24828387251461
 20
1.8172596407855943
 30
0.0
 11
41.33642123121656
 21
1.788004787315268
 31
0.0
  0
LINE
  8
0
 10
41.33642123121656
 20
1.788004787315268
 30
0.0
 11
41.424558589918526
 21
1.7571082969977478
 31
0.0
  0
LINE
  8
0
 10
41.424558589918526
 20
1.7571082969977478
 30
0.0
 11
41.512695948620475
 21
1.7245605691872221
 31
0.0
  0
LINE
  8
0
 10
41.512695948620475
 20
1.7245605691872221
 30
0.0
 11
41.600833307322425
 21
1.6903514901392525
 31
0.0
  0
LINE
  8
0
 10
41.600833307322425
 20
1.6903514901392525
 30
0.0
 11
41.68897066602438
 21
1.6544704298680823
 31
0.0
  0
LINE
  8
0
 10
41.68897066602438
 20
1.6544704298680823
 30
0.0
 11
41.77710802472634
 21
1.6169062388435318
 31
0.0
  0
LINE
  8
0
 10
41.77710802472634
 20
1.6169062388435318
 30
0.0
 11
41.86524538342829
 21
1.5776472445264274
 31
0.0
  0
LINE
  8
0
 10
41.86524538342829
 20
1.5776472445264274
 30
0.0
 11
41.953382742130245
 21
1.5366812477415213
 31
0.0
  0
LINE
  8
0
 10
41.953382742130245
 20
1.5366812477415213
 30
0.0
 11
42.0415201008322
 21
1.4939955188867842
 31
0.0
  0
LINE
  8
0
 10
42.0415201008322
 20
1.4939955188867842
 30
0.0
 11
42.12965745953416
 21
1.449576793977859
 31
0.0
  0
LINE
  8
0
 10
42.12965745953416
 20
1.449576793977859
 30
0.0
 11
42.21779481823611
 21
1.4034112705264583
 31
0.0
  0
LINE
  8
0
 10
42.21779481823611
 20
1.4034112705264583
 30
0.0
 11
42.30593217693806
 21
1.3554846032514405
 31
0.0
  0
LINE
  8
0
 10
42.30593217693806
 20
1.3554846032514405
 30
0.0
 11
42.39406953564002
 21
1.3057818996212118
 31
0.0
  0
LINE
  8
0
 10
42.39406953564002
 20
1.3057818996212118
 30
0.0
 11
42.48220689434197
 21
1.2542877152261127
 31
0.0
  0
LINE
  8
0
 10
42.48220689434197
 20
1.2542877152261127
 30
0.0
 11
42.57034425304392
 21
1.2009860489792459
 31
0.0
  0
LINE
  8
0
 10
42.57034425304392
 20
1.2009860489792459
 30
0.0
 11
42.658481611745884
 21
1.1458603381443755
 31
0.0
  0
LINE
  8
0
 10
42.658481611745884
 20
1.1458603381443755
 30
0.0
 11
42.746618970447834
 21
1.0888934531893302
 31
0.0
  0
LINE
  8
0
 10
42.746618970447834
 20
1.0888934531893302
 30
0.0
 11
42.83475632914978
 21
1.0300676924631915
 31
0.0
  0
LINE
  8
0
 10
42.83475632914978
 20
1.0300676924631915
 30
0.0
 11
42.92289368785175
 21
0.9693647766957714
 31
0.0
  0
LINE
  8
0
 10
42.92289368785175
 20
0.9693647766957714
 30
0.0
 11
43.0110310465537
 21
0.9067658433176335
 31
0.0
  0
LINE
  8
0
 10
43.0110310465537
 20
0.9067658433176335
 30
0.0
 11
43.099168405255654
 21
0.8422514405987434
 31
0.0
  0
LINE
  8
0
 10
43.099168405255654
 20
0.8422514405987434
 30
0.0
 11
43.1873057639576
 21
0.7758015216041834
 31
0.0
  0
LINE
  8
0
 10
43.1873057639576
 20
0.7758015216041834
 30
0.0
 11
43.27544312265956
 21
0.7073954379648013
 31
0.0
  0
LINE
  8
0
 10
43.27544312265956
 20
0.7073954379648013
 30
0.0
 11
43.36358048136152
 21
0.6370119334610695
 31
0.0
  0
LINE
  8
0
 10
43.36358048136152
 20
0.6370119334610695
 30
0.0
 11
43.451717840063466
 21
0.564629137417989
 31
0.0
  0
LINE
  8
0
 10
43.451717840063466
 20
0.564629137417989
 30
0.0
 11
43.53985519876542
 21
0.4902245579090776
 31
0.0
  0
LINE
  8
0
 10
43.53985519876542
 20
0.4902245579090776
 30
0.0
 11
43.62799255746738
 21
0.413775074767357
 31
0.0
  0
LINE
  8
0
 10
43.62799255746738
 20
0.413775074767357
 30
0.0
 11
43.71612991616933
 21
0.33525693240106946
 31
0.0
  0
LINE
  8
0
 10
43.71612991616933
 20
0.33525693240106946
 30
0.0
 11
43.80426727487129
 21
0.2546457324119409
 31
0.0
  0
LINE
  8
0
 10
43.80426727487129
 20
0.2546457324119409
 30
0.0
 11
43.89240463357324
 21
0.17191642601379264
 31
0.0
  0
LINE
  8
0
 10
43.89240463357324
 20
0.17191642601379264
 30
0.0
 11
43.98054199227519
 21
0.08704330624890844
 31
0.0
  0
ENDSEC
  0
EOF
