  0
SECTION
  2
HEADER
  9
$ACADVER
  1
AC1009
  9
$INSBASE
 10
0.0
 20
0.0
 30
0.0
  9
$EXTMIN
 10
0.0
 20
0.0
 30
0.0
  9
$EXTMAX
 10
100.0
 20
100.0
 30
0.0
  9
$UNITMODE
 70
0
  9
$AUNITS
 70
0
  9
$ANGBASE
 50
0.0
  9
$ANGDIR
 70
0
  0
ENDSEC
  0
SECTION
  2
TABLES
  0
TABLE
  2
LTYPE
 70
19
  0
LTYPE
  2
CONTINUOUS
 70
0
  3
Solid
 72
65
 73
0
 40
0.0
  0
LTYPE
  2
CENTER
 70
0
  3
Center ____ _ ____ _ ____ _ ____ _ ____ _ ____
 72
65
 73
4
 40
2.0
 49
1.25
 49
-0.25
 49
0.25
 49
-0.25
  0
LTYPE
  2
CENTERX2
 70
0
  3
Center (2x) ________  __  ________  __  ________
 72
65
 73
4
 40
3.5
 49
2.5
 49
-0.25
 49
0.5
 49
-0.25
  0
LTYPE
  2
CENTER2
 70
0
  3
Center (.5x) ____ _ ____ _ ____ _ ____ _ ____
 72
65
 73
4
 40
1.0
 49
0.625
 49
-0.125
 49
0.125
 49
-0.125
  0
LTYPE
  2
DASHED
 70
0
  3
Dashed __ __ __ __ __ __ __ __ __ __ __ __ __ _
 72
65
 73
2
 40
0.6
 49
0.5
 49
-0.1
  0
LTYPE
  2
DASHEDX2
 70
0
  3
Dashed (2x) ____  ____  ____  ____  ____  ____
 72
65
 73
2
 40
1.2
 49
1.0
 49
-0.2
  0
LTYPE
  2
DASHED2
 70
0
  3
Dashed (.5x) _ _ _ _ _ _ _ _ _ _ _ _ _ _
 72
65
 73
2
 40
0.3
 49
0.25
 49
-0.05
  0
LTYPE
  2
PHANTOM
 70
0
  3
Phantom ______  __  __  ______  __  __  ______
 72
65
 73
6
 40
2.5
 49
1.25
 49
-0.25
 49
0.25
 49
-0.25
 49
0.25
 49
-0.25
  0
LTYPE
  2
PHANTOMX2
 70
0
  3
Phantom (2x)____________    ____    ____    ____________
 72
65
 73
6
 40
4.25
 49
2.5
 49
-0.25
 49
0.5
 49
-0.25
 49
0.5
 49
-0.25
  0
LTYPE
  2
PHANTOM2
 70
0
  3
Phantom (.5x) ___ _ _ ___ _ _ ___ _ _ ___ _ _ ___
 72
65
 73
6
 40
1.25
 49
0.625
 49
-0.125
 49
0.125
 49
-0.125
 49
0.125
 49
-0.125
  0
LTYPE
  2
DASHDOT
 70
0
  3
Dash dot __ . __ . __ . __ . __ . __ . __ . __
 72
65
 73
4
 40
1.4
 49
1.0
 49
-0.2
 49
0.0
 49
-0.2
  0
LTYPE
  2
DASHDOTX2
 70
0
  3
Dash dot (2x) ____  .  ____  .  ____  .  ____
 72
65
 73
4
 40
2.4
 49
2.0
 49
-0.2
 49
0.0
 49
-0.2
  0
LTYPE
  2
DASHDOT2
 70
0
  3
Dash dot (.5x) _ . _ . _ . _ . _ . _ . _ . _
 72
65
 73
4
 40
0.7
 49
0.5
 49
-0.1
 49
0.0
 49
-0.1
  0
LTYPE
  2
DOT
 70
0
  3
Dot .  .  .  .  .  .  .  .  .  .  .  .  .  .  .  .
 72
65
 73
2
 40
0.2
 49
0.0
 49
-0.2
  0
LTYPE
  2
DOTX2
 70
0
  3
Dot (2x) .    .    .    .    .    .    .    . 
 72
65
 73
2
 40
0.4
 49
0.0
 49
-0.4
  0
LTYPE
  2
DOT2
 70
0
  3
Dot (.5) . . . . . . . . . . . . . . . . . . . 
 72
65
 73
2
 40
0.1
 49
0.0
 49
-0.1
  0
LTYPE
  2
DIVIDE
 70
0
  3
Divide __ . . __ . . __ . . __ . . __ . . __
 72
65
 73
6
 40
1.6
 49
1.0
 49
-0.2
 49
0.0
 49
-0.2
 49
0.0
 49
-0.2
  0
LTYPE
  2
DIVIDEX2
 70
0
  3
Divide (2x) ____  . .  ____  . .  ____  . .  ____
 72
65
 73
6
 40
2.6
 49
2.0
 49
-0.2
 49
0.0
 49
-0.2
 49
0.0
 49
-0.2
  0
LTYPE
  2
DIVIDE2
 70
0
  3
Divide(.5x) _ . _ . _ . _ . _ . _ . _ . _
 72
65
 73
6
 40
0.8
 49
0.5
 49
-0.1
 49
0.0
 49
-0.1
 49
0.0
 49
-0.1
  0
ENDTAB
  0
TABLE
  2
LAYER
 70
5
  0
LAYER
  2
DIMENSIONS
 70
0
 62
1
  6
CONTINUOUS
  0
LAYER
  2
TABLEBACKGROUND
 70
0
 62
1
  6
CONTINUOUS
  0
LAYER
  2
TABLECONTENT
 70
0
 62
1
  6
CONTINUOUS
  0
LAYER
  2
TABLEGRID
 70
0
 62
1
  6
CONTINUOUS
  0
LAYER
  2
VIEWPORTS
 70
0
 62
7
  6
CONTINUOUS
  0
ENDTAB
  0
TABLE
  2
STYLE
 70
12
  0
STYLE
  2
STANDARD
 70
0
 40
0.0
 41
1.0
 42
1.0
 50
0.0
 71
0
  3
arial.ttf
  4

  0
STYLE
  2
ARIAL
 70
0
 40
0.0
 41
1.0
 42
1.0
 50
0.0
 71
0
  3
arial.ttf
  4

  0
STYLE
  2
ARIAL_BOLD
 70
0
 40
0.0
 41
1.0
 42
1.0
 50
0.0
 71
0
  3
arialbd.ttf
  4

  0
STYLE
  2
ARIAL_ITALIC
 70
0
 40
0.0
 41
1.0
 42
1.0
 50
0.0
 71
0
  3
ariali.ttf
  4

  0
STYLE
  2
ARIAL_BOLD_ITALIC
 70
0
 40
0.0
 41
1.0
 42
1.0
 50
0.0
 71
0
  3
arialbi.ttf
  4

  0
STYLE
  2
ARIAL_BLACK
 70
0
 40
0.0
 41
1.0
 42
1.0
 50
0.0
 71
0
  3
ariblk.ttf
  4

  0
STYLE
  2
ISOCPEUR
 70
0
 40
0.0
 41
1.0
 42
1.0
 50
0.0
 71
0
  3
isocpeur.ttf
  4

  0
STYLE
  2
ISOCPEUR_ITALIC
 70
0
 40
0.0
 41
1.0
 42
1.0
 50
0.0
 71
0
  3
isocpeui.ttf
  4

  0
STYLE
  2
TIMES
 70
0
 40
0.0
 41
1.0
 42
1.0
 50
0.0
 71
0
  3
times.ttf
  4

  0
STYLE
  2
TIMES_BOLD
 70
0
 40
0.0
 41
1.0
 42
1.0
 50
0.0
 71
0
  3
timesbd.ttf
  4

  0
STYLE
  2
TIMES_ITALIC
 70
0
 40
0.0
 41
1.0
 42
1.0
 50
0.0
 71
0
  3
timesi.ttf
  4

  0
STYLE
  2
TIMES_BOLD_ITALIC
 70
0
 40
0.0
 41
1.0
 42
1.0
 50
0.0
 71
0
  3
timesbi.ttf
  4

  0
ENDTAB
  0
TABLE
  2
VIEW
 70
0
  0
ENDTAB
  0
TABLE
  2
APPID
 70
1
  0
APPID
  2
DXFWRITE
 70
0
  0
ENDTAB
  0
TABLE
  2
VPORT
 70
0
  0
ENDTAB
  0
TABLE
  2
UCS
 70
0
  0
ENDTAB
  0
ENDSEC
  0
SECTION
  2
BLOCKS
  0
ENDSEC
  0
SECTION
  2
ENTITIES
  0
VIEWPORT
  8
VIEWPORTS
 67
1
 10
0.0
 20
0.0
 30
0.0
 40
1.0
 41
1.0
 68
1
 69
1
1001
ACAD
1000
MVIEW
1002
{
1070
16
1010
0.0
1020
0.0
1030
0.0
1010
0.0
1020
0.0
1030
0.0
1040
0.0
1040
1.0
1040
0.0
1040
0.0
1040
50.0
1040
0.0
1040
0.0
1070
0
1070
100
1070
1
1070
3
1070
0
1070
0
1070
0
1070
0
1040
0.0
1040
0.0
1040
0.0
1040
0.1
1040
0.1
1040
0.1
1040
0.1
1070
0
1002
{
1002
}
1002
}
  0
LINE
  8
0
 10
0.0
 20
2.842170943040401e-14
 30
0.0
 11
2.238688911029639
 21
2.210899978722182
 31
0.0
  0
LINE
  8
0
 10
2.238688911029639
 20
2.210899978722182
 30
0.0
 11
4.477377822059278
 21
4.3666772207503755
 31
0.0
  0
LINE
  8
0
 10
4.477377822059278
 20
4.3666772207503755
 30
0.0
 11
6.716066733088917
 21
6.4680016032634455
 31
0.0
  0
LINE
  8
0
 10
6.716066733088917
 20
6.4680016032634455
 30
0.0
 11
8.954755644118556
 21
8.515526082987122
 31
0.0
  0
LINE
  8
0
 10
8.954755644118556
 20
8.515526082987122
 30
0.0
 11
11.193444555148197
 21
10.50988689909093
 31
0.0
  0
LINE
  8
0
 10
11.193444555148197
 20
10.50988689909093
 30
0.0
 11
13.432133466177834
 21
12.451703770890532
 31
0.0
  0
LINE
  8
0
 10
13.432133466177834
 20
12.451703770890532
 30
0.0
 11
15.670822377207474
 21
14.34158009041684
 31
0.0
  0
LINE
  8
0
 10
15.670822377207474
 20
14.34158009041684
 30
0.0
 11
17.909511288237113
 21
16.18010310991116
 31
0.0
  0
LINE
  8
0
 10
17.909511288237113
 20
16.18010310991116
 30
0.0
 11
20.148200199266753
 21
17.96784412430594
 31
0.0
  0
LINE
  8
0
 10
20.148200199266753
 20
17.96784412430594
 30
0.0
 11
22.386889110296394
 21
19.7053586487462
 31
0.0
  0
LINE
  8
0
 10
22.386889110296394
 20
19.7053586487462
 30
0.0
 11
24.62557802132603
 21
21.39318659120812
 31
0.0
  0
LINE
  8
0
 10
24.62557802132603
 20
21.39318659120812
 30
0.0
 11
26.86426693235567
 21
23.031852420267853
 31
0.0
  0
LINE
  8
0
 10
26.86426693235567
 20
23.031852420267853
 30
0.0
 11
29.102955843385306
 21
24.62186532807266
 31
0.0
  0
LINE
  8
0
 10
29.102955843385306
 20
24.62186532807266
 30
0.0
 11
31.341644754414947
 21
26.163719388564942
 31
0.0
  0
LINE
  8
0
 10
31.341644754414947
 20
26.163719388564942
 30
0.0
 11
33.580333665444584
 21
27.657893711008967
 31
0.0
  0
LINE
  8
0
 10
33.580333665444584
 20
27.657893711008967
 30
0.0
 11
35.819022576474225
 21
29.104852588867175
 31
0.0
  0
LINE
  8
0
 10
35.819022576474225
 20
29.104852588867175
 30
0.0
 11
38.057711487503866
 21
30.505045644072737
 31
0.0
  0
LINE
  8
0
 10
38.057711487503866
 20
30.505045644072737
 30
0.0
 11
40.29640039853351
 21
31.85890796674326
 31
0.0
  0
LINE
  8
0
 10
40.29640039853351
 20
31.85890796674326
 30
0.0
 11
42.53508930956315
 21
33.166860250378846
 31
0.0
  0
LINE
  8
0
 10
42.53508930956315
 20
33.166860250378846
 30
0.0
 11
44.77377822059279
 21
34.4293089225865
 31
0.0
  0
LINE
  8
0
 10
44.77377822059279
 20
34.4293089225865
 30
0.0
 11
47.01246713162242
 21
35.64664627137202
 31
0.0
  0
LINE
  8
0
 10
47.01246713162242
 20
35.64664627137202
 30
0.0
 11
49.25115604265206
 21
36.81925056703767
 31
0.0
  0
LINE
  8
0
 10
49.25115604265206
 20
36.81925056703767
 30
0.0
 11
51.489844953681704
 21
37.947486179724365
 31
0.0
  0
LINE
  8
0
 10
51.489844953681704
 20
37.947486179724365
 30
0.0
 11
53.72853386471134
 21
39.03170369263461
 31
0.0
  0
LINE
  8
0
 10
53.72853386471134
 20
39.03170369263461
 30
0.0
 11
55.96722277574097
 21
40.0722400109712
 31
0.0
  0
LINE
  8
0
 10
55.96722277574097
 20
40.0722400109712
 30
0.0
 11
58.20591168677061
 21
41.069418466625706
 31
0.0
  0
LINE
  8
0
 10
58.20591168677061
 20
41.069418466625706
 30
0.0
 11
60.44460059780025
 21
42.023548918649254
 31
0.0
  0
LINE
  8
0
 10
60.44460059780025
 20
42.023548918649254
 30
0.0
 11
62.683289508829894
 21
42.93492784953696
 31
0.0
  0
LINE
  8
0
 10
62.683289508829894
 20
42.93492784953696
 30
0.0
 11
64.92197841985953
 21
43.803838457355454
 31
0.0
  0
LINE
  8
0
 10
64.92197841985953
 20
43.803838457355454
 30
0.0
 11
67.16066733088917
 21
44.630550743742845
 31
0.0
  0
LINE
  8
0
 10
67.16066733088917
 20
44.630550743742845
 30
0.0
 11
69.39935624191881
 21
45.41532159780775
 31
0.0
  0
LINE
  8
0
 10
69.39935624191881
 20
45.41532159780775
 30
0.0
 11
71.63804515294845
 21
46.15839487595409
 31
0.0
  0
LINE
  8
0
 10
71.63804515294845
 20
46.15839487595409
 30
0.0
 11
73.87673406397809
 21
46.860001477655885
 31
0.0
  0
LINE
  8
0
 10
73.87673406397809
 20
46.860001477655885
 30
0.0
 11
76.11542297500773
 21
47.52035941720598
 31
0.0
  0
LINE
  8
0
 10
76.11542297500773
 20
47.52035941720598
 30
0.0
 11
78.35411188603737
 21
48.13967389146103
 31
0.0
  0
LINE
  8
0
 10
78.35411188603737
 20
48.13967389146103
 30
0.0
 11
80.59280079706701
 21
48.71813734360333
 31
0.0
  0
LINE
  8
0
 10
80.59280079706701
 20
48.71813734360333
 30
0.0
 11
82.83148970809665
 21
49.255929522939994
 31
0.0
  0
LINE
  8
0
 10
82.83148970809665
 20
49.255929522939994
 30
0.0
 11
85.0701786191263
 21
49.75321754075728
 31
0.0
  0
LINE
  8
0
 10
85.0701786191263
 20
49.75321754075728
 30
0.0
 11
87.30886753015594
 21
50.21015592224825
 31
0.0
  0
LINE
  8
0
 10
87.30886753015594
 20
50.21015592224825
 30
0.0
 11
89.54755644118558
 21
50.62688665452916
 31
0.0
  0
LINE
  8
0
 10
89.54755644118558
 20
50.62688665452916
 30
0.0
 11
91.7862453522152
 21
51.003539230760026
 31
0.0
  0
LINE
  8
0
 10
91.7862453522152
 20
51.003539230760026
 30
0.0
 11
94.02493426324484
 21
51.3402306903827
 31
0.0
  0
LINE
  8
0
 10
94.02493426324484
 20
51.3402306903827
 30
0.0
 11
96.26362317427449
 21
51.63706565548928
 31
0.0
  0
LINE
  8
0
 10
96.26362317427449
 20
51.63706565548928
 30
0.0
 11
98.50231208530413
 21
51.89413636333191
 31
0.0
  0
LINE
  8
0
 10
98.50231208530413
 20
51.89413636333191
 30
0.0
 11
100.74100099633377
 21
52.111522694984174
 31
0.0
  0
LINE
  8
0
 10
100.74100099633377
 20
52.111522694984174
 30
0.0
 11
102.97968990736341
 21
52.28929220016305
 31
0.0
  0
LINE
  8
0
 10
102.97968990736341
 20
52.28929220016305
 30
0.0
 11
105.21837881839305
 21
52.42750011821903
 31
0.0
  0
LINE
  8
0
 10
105.21837881839305
 20
52.42750011821903
 30
0.0
 11
107.45706772942268
 21
52.52618939530092
 31
0.0
  0
LINE
  8
0
 10
107.45706772942268
 20
52.52618939530092
 30
0.0
 11
109.69575664045232
 21
52.5853906977008
 31
0.0
  0
LINE
  8
0
 10
109.69575664045232
 20
52.5853906977008
 30
0.0
 11
111.93444555148194
 21
52.60512242138307
 31
0.0
  0
LINE
  8
0
 10
111.93444555148194
 20
52.60512242138307
 30
0.0
 11
114.17313446251158
 21
52.5853906977008
 31
0.0
  0
LINE
  8
0
 10
114.17313446251158
 20
52.5853906977008
 30
0.0
 11
116.41182337354122
 21
52.52618939530092
 31
0.0
  0
LINE
  8
0
 10
116.41182337354122
 20
52.52618939530092
 30
0.0
 11
118.65051228457087
 21
52.42750011821903
 31
0.0
  0
LINE
  8
0
 10
118.65051228457087
 20
52.42750011821903
 30
0.0
 11
120.8892011956005
 21
52.28929220016305
 31
0.0
  0
LINE
  8
0
 10
120.8892011956005
 20
52.28929220016305
 30
0.0
 11
123.12789010663015
 21
52.111522694984174
 31
0.0
  0
LINE
  8
0
 10
123.12789010663015
 20
52.111522694984174
 30
0.0
 11
125.36657901765979
 21
51.89413636333191
 31
0.0
  0
LINE
  8
0
 10
125.36657901765979
 20
51.89413636333191
 30
0.0
 11
127.60526792868943
 21
51.63706565548928
 31
0.0
  0
LINE
  8
0
 10
127.60526792868943
 20
51.63706565548928
 30
0.0
 11
129.84395683971906
 21
51.3402306903827
 31
0.0
  0
LINE
  8
0
 10
129.84395683971906
 20
51.3402306903827
 30
0.0
 11
132.0826457507487
 21
51.003539230760026
 31
0.0
  0
LINE
  8
0
 10
132.0826457507487
 20
51.003539230760026
 30
0.0
 11
134.32133466177834
 21
50.62688665452916
 31
0.0
  0
LINE
  8
0
 10
134.32133466177834
 20
50.62688665452916
 30
0.0
 11
136.56002357280798
 21
50.21015592224825
 31
0.0
  0
LINE
  8
0
 10
136.56002357280798
 20
50.21015592224825
 30
0.0
 11
138.79871248383762
 21
49.75321754075728
 31
0.0
  0
LINE
  8
0
 10
138.79871248383762
 20
49.75321754075728
 30
0.0
 11
141.03740139486726
 21
49.255929522939994
 31
0.0
  0
LINE
  8
0
 10
141.03740139486726
 20
49.255929522939994
 30
0.0
 11
143.2760903058969
 21
48.71813734360333
 31
0.0
  0
LINE
  8
0
 10
143.2760903058969
 20
48.71813734360333
 30
0.0
 11
145.51477921692654
 21
48.13967389146103
 31
0.0
  0
LINE
  8
0
 10
145.51477921692654
 20
48.13967389146103
 30
0.0
 11
147.75346812795618
 21
47.52035941720598
 31
0.0
  0
LINE
  8
0
 10
147.75346812795618
 20
47.52035941720598
 30
0.0
 11
149.99215703898582
 21
46.860001477655885
 31
0.0
  0
LINE
  8
0
 10
149.99215703898582
 20
46.860001477655885
 30
0.0
 11
152.23084595001546
 21
46.15839487595409
 31
0.0
  0
LINE
  8
0
 10
152.23084595001546
 20
46.15839487595409
 30
0.0
 11
154.4695348610451
 21
45.41532159780775
 31
0.0
  0
LINE
  8
0
 10
154.4695348610451
 20
45.41532159780775
 30
0.0
 11
156.70822377207475
 21
44.630550743742845
 31
0.0
  0
LINE
  8
0
 10
156.70822377207475
 20
44.630550743742845
 30
0.0
 11
158.9469126831044
 21
43.803838457355454
 31
0.0
  0
LINE
  8
0
 10
158.9469126831044
 20
43.803838457355454
 30
0.0
 11
161.18560159413403
 21
42.93492784953693
 31
0.0
  0
LINE
  8
0
 10
161.18560159413403
 20
42.93492784953693
 30
0.0
 11
163.42429050516367
 21
42.023548918649254
 31
0.0
  0
LINE
  8
0
 10
163.42429050516367
 20
42.023548918649254
 30
0.0
 11
165.6629794161933
 21
41.069418466625706
 31
0.0
  0
LINE
  8
0
 10
165.6629794161933
 20
41.069418466625706
 30
0.0
 11
167.90166832722295
 21
40.0722400109712
 31
0.0
  0
LINE
  8
0
 10
167.90166832722295
 20
40.0722400109712
 30
0.0
 11
170.1403572382526
 21
39.03170369263461
 31
0.0
  0
LINE
  8
0
 10
170.1403572382526
 20
39.03170369263461
 30
0.0
 11
172.37904614928223
 21
37.947486179724365
 31
0.0
  0
LINE
  8
0
 10
172.37904614928223
 20
37.947486179724365
 30
0.0
 11
174.61773506031187
 21
36.81925056703764
 31
0.0
  0
LINE
  8
0
 10
174.61773506031187
 20
36.81925056703764
 30
0.0
 11
176.8564239713415
 21
35.64664627137202
 31
0.0
  0
LINE
  8
0
 10
176.8564239713415
 20
35.64664627137202
 30
0.0
 11
179.09511288237115
 21
34.42930892258647
 31
0.0
  0
LINE
  8
0
 10
179.09511288237115
 20
34.42930892258647
 30
0.0
 11
181.33380179340077
 21
33.166860250378846
 31
0.0
  0
LINE
  8
0
 10
181.33380179340077
 20
33.166860250378846
 30
0.0
 11
183.5724907044304
 21
31.85890796674326
 31
0.0
  0
LINE
  8
0
 10
183.5724907044304
 20
31.85890796674326
 30
0.0
 11
185.81117961546005
 21
30.505045644072737
 31
0.0
  0
LINE
  8
0
 10
185.81117961546005
 20
30.505045644072737
 30
0.0
 11
188.0498685264897
 21
29.104852588867175
 31
0.0
  0
LINE
  8
0
 10
188.0498685264897
 20
29.104852588867175
 30
0.0
 11
190.28855743751933
 21
27.657893711008967
 31
0.0
  0
LINE
  8
0
 10
190.28855743751933
 20
27.657893711008967
 30
0.0
 11
192.52724634854897
 21
26.163719388564942
 31
0.0
  0
LINE
  8
0
 10
192.52724634854897
 20
26.163719388564942
 30
0.0
 11
194.7659352595786
 21
24.62186532807266
 31
0.0
  0
LINE
  8
0
 10
194.7659352595786
 20
24.62186532807266
 30
0.0
 11
197.00462417060825
 21
23.031852420267853
 31
0.0
  0
LINE
  8
0
 10
197.00462417060825
 20
23.031852420267853
 30
0.0
 11
199.2433130816379
 21
21.39318659120812
 31
0.0
  0
LINE
  8
0
 10
199.2433130816379
 20
21.39318659120812
 30
0.0
 11
201.48200199266753
 21
19.7053586487462
 31
0.0
  0
LINE
  8
0
 10
201.48200199266753
 20
19.7053586487462
 30
0.0
 11
203.72069090369718
 21
17.96784412430594
 31
0.0
  0
LINE
  8
0
 10
203.72069090369718
 20
17.96784412430594
 30
0.0
 11
205.95937981472682
 21
16.18010310991116
 31
0.0
  0
LINE
  8
0
 10
205.95937981472682
 20
16.18010310991116
 30
0.0
 11
208.19806872575646
 21
14.341580090416812
 31
0.0
  0
LINE
  8
0
 10
208.19806872575646
 20
14.341580090416812
 30
0.0
 11
210.4367576367861
 21
12.451703770890532
 31
0.0
  0
LINE
  8
0
 10
210.4367576367861
 20
12.451703770890532
 30
0.0
 11
212.67544654781574
 21
10.509886899090901
 31
0.0
  0
LINE
  8
0
 10
212.67544654781574
 20
10.509886899090901
 30
0.0
 11
214.91413545884535
 21
8.515526082987122
 31
0.0
  0
LINE
  8
0
 10
214.91413545884535
 20
8.515526082987122
 30
0.0
 11
217.152824369875
 21
6.4680016032634455
 31
0.0
  0
LINE
  8
0
 10
217.152824369875
 20
6.4680016032634455
 30
0.0
 11
219.39151328090463
 21
4.3666772207503755
 31
0.0
  0
LINE
  8
0
 10
219.39151328090463
 20
4.3666772207503755
 30
0.0
 11
221.63020219193425
 21
2.2108999787222388
 31
0.0
  0
LINE
  8
0
 10
221.63020219193425
 20
2.2108999787222388
 30
0.0
 11
223.8688911029639
 21
5.684341886080802e-14
 31
0.0
  0
LINE
  8
0
 10
223.8688911029639
 20
5.684341886080802e-14
 30
0.0
 11
226.10758001399353
 21
2.210899978722182
 31
0.0
  0
LINE
  8
0
 10
226.10758001399353
 20
2.210899978722182
 30
0.0
 11
228.34626892502317
 21
4.366677220750347
 31
0.0
  0
LINE
  8
0
 10
228.34626892502317
 20
4.366677220750347
 30
0.0
 11
230.5849578360528
 21
6.468001603263417
 31
0.0
  0
LINE
  8
0
 10
230.5849578360528
 20
6.468001603263417
 30
0.0
 11
232.82364674708245
 21
8.515526082987094
 31
0.0
  0
LINE
  8
0
 10
232.82364674708245
 20
8.515526082987094
 30
0.0
 11
235.0623356581121
 21
10.509886899090901
 31
0.0
  0
LINE
  8
0
 10
235.0623356581121
 20
10.509886899090901
 30
0.0
 11
237.30102456914173
 21
12.451703770890532
 31
0.0
  0
LINE
  8
0
 10
237.30102456914173
 20
12.451703770890532
 30
0.0
 11
239.53971348017137
 21
14.341580090416812
 31
0.0
  0
LINE
  8
0
 10
239.53971348017137
 20
14.341580090416812
 30
0.0
 11
241.778402391201
 21
16.18010310991116
 31
0.0
  0
LINE
  8
0
 10
241.778402391201
 20
16.18010310991116
 30
0.0
 11
244.01709130223065
 21
17.96784412430594
 31
0.0
  0
LINE
  8
0
 10
244.01709130223065
 20
17.96784412430594
 30
0.0
 11
246.2557802132603
 21
19.7053586487462
 31
0.0
  0
LINE
  8
0
 10
246.2557802132603
 20
19.7053586487462
 30
0.0
 11
248.49446912428994
 21
21.39318659120812
 31
0.0
  0
LINE
  8
0
 10
248.49446912428994
 20
21.39318659120812
 30
0.0
 11
250.73315803531958
 21
23.031852420267853
 31
0.0
  0
LINE
  8
0
 10
250.73315803531958
 20
23.031852420267853
 30
0.0
 11
252.97184694634922
 21
24.62186532807266
 31
0.0
  0
LINE
  8
0
 10
252.97184694634922
 20
24.62186532807266
 30
0.0
 11
255.21053585737886
 21
26.163719388564942
 31
0.0
  0
LINE
  8
0
 10
255.21053585737886
 20
26.163719388564942
 30
0.0
 11
257.4492247684085
 21
27.657893711008967
 31
0.0
  0
LINE
  8
0
 10
257.4492247684085
 20
27.657893711008967
 30
0.0
 11
259.6879136794381
 21
29.104852588867146
 31
0.0
  0
LINE
  8
0
 10
259.6879136794381
 20
29.104852588867146
 30
0.0
 11
261.9266025904678
 21
30.505045644072737
 31
0.0
  0
LINE
  8
0
 10
261.9266025904678
 20
30.505045644072737
 30
0.0
 11
264.1652915014974
 21
31.85890796674326
 31
0.0
  0
LINE
  8
0
 10
264.1652915014974
 20
31.85890796674326
 30
0.0
 11
266.40398041252706
 21
33.166860250378846
 31
0.0
  0
LINE
  8
0
 10
266.40398041252706
 20
33.166860250378846
 30
0.0
 11
268.6426693235567
 21
34.42930892258647
 31
0.0
  0
LINE
  8
0
 10
268.6426693235567
 20
34.42930892258647
 30
0.0
 11
270.88135823458634
 21
35.64664627137202
 31
0.0
  0
LINE
  8
0
 10
270.88135823458634
 20
35.64664627137202
 30
0.0
 11
273.12004714561596
 21
36.81925056703764
 31
0.0
  0
LINE
  8
0
 10
273.12004714561596
 20
36.81925056703764
 30
0.0
 11
275.3587360566456
 21
37.947486179724365
 31
0.0
  0
LINE
  8
0
 10
275.3587360566456
 20
37.947486179724365
 30
0.0
 11
277.59742496767524
 21
39.03170369263461
 31
0.0
  0
LINE
  8
0
 10
277.59742496767524
 20
39.03170369263461
 30
0.0
 11
279.8361138787049
 21
40.07224001097123
 31
0.0
  0
LINE
  8
0
 10
279.8361138787049
 20
40.07224001097123
 30
0.0
 11
282.0748027897345
 21
41.069418466625706
 31
0.0
  0
LINE
  8
0
 10
282.0748027897345
 20
41.069418466625706
 30
0.0
 11
284.3134917007642
 21
42.02354891864928
 31
0.0
  0
LINE
  8
0
 10
284.3134917007642
 20
42.02354891864928
 30
0.0
 11
286.5521806117938
 21
42.93492784953693
 31
0.0
  0
LINE
  8
0
 10
286.5521806117938
 20
42.93492784953693
 30
0.0
 11
288.79086952282347
 21
43.803838457355454
 31
0.0
  0
LINE
  8
0
 10
288.79086952282347
 20
43.803838457355454
 30
0.0
 11
291.0295584338531
 21
44.630550743742845
 31
0.0
  0
LINE
  8
0
 10
291.0295584338531
 20
44.630550743742845
 30
0.0
 11
293.26824734488275
 21
45.415321597807775
 31
0.0
  0
LINE
  8
0
 10
293.26824734488275
 20
45.415321597807775
 30
0.0
 11
295.50693625591236
 21
46.15839487595409
 31
0.0
  0
LINE
  8
0
 10
295.50693625591236
 20
46.15839487595409
 30
0.0
 11
297.74562516694203
 21
46.860001477655885
 31
0.0
  0
LINE
  8
0
 10
297.74562516694203
 20
46.860001477655885
 30
0.0
 11
299.98431407797165
 21
47.52035941720598
 31
0.0
  0
LINE
  8
0
 10
299.98431407797165
 20
47.52035941720598
 30
0.0
 11
302.2230029890013
 21
48.13967389146106
 31
0.0
  0
LINE
  8
0
 10
302.2230029890013
 20
48.13967389146106
 30
0.0
 11
304.4616919000309
 21
48.71813734360333
 31
0.0
  0
LINE
  8
0
 10
304.4616919000309
 20
48.71813734360333
 30
0.0
 11
306.70038081106054
 21
49.255929522939994
 31
0.0
  0
LINE
  8
0
 10
306.70038081106054
 20
49.255929522939994
 30
0.0
 11
308.9390697220902
 21
49.75321754075728
 31
0.0
  0
LINE
  8
0
 10
308.9390697220902
 20
49.75321754075728
 30
0.0
 11
311.1777586331198
 21
50.21015592224825
 31
0.0
  0
LINE
  8
0
 10
311.1777586331198
 20
50.21015592224825
 30
0.0
 11
313.4164475441495
 21
50.62688665452916
 31
0.0
  0
LINE
  8
0
 10
313.4164475441495
 20
50.62688665452916
 30
0.0
 11
315.6551364551791
 21
51.003539230760026
 31
0.0
  0
LINE
  8
0
 10
315.6551364551791
 20
51.003539230760026
 30
0.0
 11
317.8938253662088
 21
51.3402306903827
 31
0.0
  0
LINE
  8
0
 10
317.8938253662088
 20
51.3402306903827
 30
0.0
 11
320.1325142772384
 21
51.63706565548928
 31
0.0
  0
LINE
  8
0
 10
320.1325142772384
 20
51.63706565548928
 30
0.0
 11
322.37120318826805
 21
51.89413636333191
 31
0.0
  0
LINE
  8
0
 10
322.37120318826805
 20
51.89413636333191
 30
0.0
 11
324.60989209929767
 21
52.111522694984174
 31
0.0
  0
LINE
  8
0
 10
324.60989209929767
 20
52.111522694984174
 30
0.0
 11
326.84858101032734
 21
52.28929220016305
 31
0.0
  0
LINE
  8
0
 10
326.84858101032734
 20
52.28929220016305
 30
0.0
 11
329.08726992135695
 21
52.42750011821903
 31
0.0
  0
LINE
  8
0
 10
329.08726992135695
 20
52.42750011821903
 30
0.0
 11
331.3259588323866
 21
52.52618939530092
 31
0.0
  0
LINE
  8
0
 10
331.3259588323866
 20
52.52618939530092
 30
0.0
 11
333.56464774341623
 21
52.5853906977008
 31
0.0
  0
LINE
  8
0
 10
333.56464774341623
 20
52.5853906977008
 30
0.0
 11
335.8033366544459
 21
52.60512242138307
 31
0.0
  0
LINE
  8
0
 10
335.8033366544459
 20
52.60512242138307
 30
0.0
 11
338.0420255654755
 21
52.5853906977008
 31
0.0
  0
LINE
  8
0
 10
338.0420255654755
 20
52.5853906977008
 30
0.0
 11
340.2807144765052
 21
52.52618939530092
 31
0.0
  0
LINE
  8
0
 10
340.2807144765052
 20
52.52618939530092
 30
0.0
 11
342.5194033875348
 21
52.42750011821903
 31
0.0
  0
LINE
  8
0
 10
342.5194033875348
 20
52.42750011821903
 30
0.0
 11
344.75809229856446
 21
52.28929220016305
 31
0.0
  0
LINE
  8
0
 10
344.75809229856446
 20
52.28929220016305
 30
0.0
 11
346.996781209594
 21
52.111522694984174
 31
0.0
  0
LINE
  8
0
 10
346.996781209594
 20
52.111522694984174
 30
0.0
 11
349.23547012062375
 21
51.89413636333191
 31
0.0
  0
LINE
  8
0
 10
349.23547012062375
 20
51.89413636333191
 30
0.0
 11
351.4741590316533
 21
51.63706565548928
 31
0.0
  0
LINE
  8
0
 10
351.4741590316533
 20
51.63706565548928
 30
0.0
 11
353.712847942683
 21
51.3402306903827
 31
0.0
  0
LINE
  8
0
 10
353.712847942683
 20
51.3402306903827
 30
0.0
 11
355.9515368537126
 21
51.003539230760055
 31
0.0
  0
LINE
  8
0
 10
355.9515368537126
 20
51.003539230760055
 30
0.0
 11
358.1902257647423
 21
50.62688665452916
 31
0.0
  0
LINE
  8
0
 10
358.1902257647423
 20
50.62688665452916
 30
0.0
 11
360.42891467577186
 21
50.21015592224825
 31
0.0
  0
LINE
  8
0
 10
360.42891467577186
 20
50.21015592224825
 30
0.0
 11
362.66760358680153
 21
49.75321754075728
 31
0.0
  0
LINE
  8
0
 10
362.66760358680153
 20
49.75321754075728
 30
0.0
 11
364.90629249783115
 21
49.255929522939994
 31
0.0
  0
LINE
  8
0
 10
364.90629249783115
 20
49.255929522939994
 30
0.0
 11
367.1449814088608
 21
48.71813734360333
 31
0.0
  0
LINE
  8
0
 10
367.1449814088608
 20
48.71813734360333
 30
0.0
 11
369.3836703198904
 21
48.13967389146106
 31
0.0
  0
LINE
  8
0
 10
369.3836703198904
 20
48.13967389146106
 30
0.0
 11
371.6223592309201
 21
47.52035941720598
 31
0.0
  0
LINE
  8
0
 10
371.6223592309201
 20
47.52035941720598
 30
0.0
 11
373.8610481419497
 21
46.860001477655885
 31
0.0
  0
LINE
  8
0
 10
373.8610481419497
 20
46.860001477655885
 30
0.0
 11
376.0997370529794
 21
46.15839487595409
 31
0.0
  0
LINE
  8
0
 10
376.0997370529794
 20
46.15839487595409
 30
0.0
 11
378.338425964009
 21
45.415321597807775
 31
0.0
  0
LINE
  8
0
 10
378.338425964009
 20
45.415321597807775
 30
0.0
 11
380.57711487503866
 21
44.630550743742845
 31
0.0
  0
LINE
  8
0
 10
380.57711487503866
 20
44.630550743742845
 30
0.0
 11
382.8158037860683
 21
43.803838457355454
 31
0.0
  0
LINE
  8
0
 10
382.8158037860683
 20
43.803838457355454
 30
0.0
 11
385.05449269709794
 21
42.93492784953693
 31
0.0
  0
LINE
  8
0
 10
385.05449269709794
 20
42.93492784953693
 30
0.0
 11
387.29318160812755
 21
42.02354891864928
 31
0.0
  0
LINE
  8
0
 10
387.29318160812755
 20
42.02354891864928
 30
0.0
 11
389.5318705191572
 21
41.069418466625706
 31
0.0
  0
LINE
  8
0
 10
389.5318705191572
 20
41.069418466625706
 30
0.0
 11
391.77055943018684
 21
40.07224001097123
 31
0.0
  0
LINE
  8
0
 10
391.77055943018684
 20
40.07224001097123
 30
0.0
 11
394.0092483412165
 21
39.03170369263461
 31
0.0
  0
LINE
  8
0
 10
394.0092483412165
 20
39.03170369263461
 30
0.0
 11
396.2479372522461
 21
37.947486179724365
 31
0.0
  0
LINE
  8
0
 10
396.2479372522461
 20
37.947486179724365
 30
0.0
 11
398.4866261632758
 21
36.81925056703764
 31
0.0
  0
LINE
  8
0
 10
398.4866261632758
 20
36.81925056703764
 30
0.0
 11
400.7253150743054
 21
35.64664627137202
 31
0.0
  0
LINE
  8
0
 10
400.7253150743054
 20
35.64664627137202
 30
0.0
 11
402.96400398533507
 21
34.42930892258647
 31
0.0
  0
LINE
  8
0
 10
402.96400398533507
 20
34.42930892258647
 30
0.0
 11
405.2026928963647
 21
33.166860250378846
 31
0.0
  0
LINE
  8
0
 10
405.2026928963647
 20
33.166860250378846
 30
0.0
 11
407.44138180739435
 21
31.85890796674326
 31
0.0
  0
LINE
  8
0
 10
407.44138180739435
 20
31.85890796674326
 30
0.0
 11
409.68007071842396
 21
30.505045644072737
 31
0.0
  0
LINE
  8
0
 10
409.68007071842396
 20
30.505045644072737
 30
0.0
 11
411.91875962945363
 21
29.104852588867146
 31
0.0
  0
LINE
  8
0
 10
411.91875962945363
 20
29.104852588867146
 30
0.0
 11
414.15744854048324
 21
27.657893711008967
 31
0.0
  0
LINE
  8
0
 10
414.15744854048324
 20
27.657893711008967
 30
0.0
 11
416.3961374515129
 21
26.163719388564942
 31
0.0
  0
LINE
  8
0
 10
416.3961374515129
 20
26.163719388564942
 30
0.0
 11
418.6348263625425
 21
24.62186532807266
 31
0.0
  0
LINE
  8
0
 10
418.6348263625425
 20
24.62186532807266
 30
0.0
 11
420.8735152735722
 21
23.031852420267853
 31
0.0
  0
LINE
  8
0
 10
420.8735152735722
 20
23.031852420267853
 30
0.0
 11
423.1122041846018
 21
21.39318659120812
 31
0.0
  0
LINE
  8
0
 10
423.1122041846018
 20
21.39318659120812
 30
0.0
 11
425.3508930956315
 21
19.70535864874617
 31
0.0
  0
LINE
  8
0
 10
425.3508930956315
 20
19.70535864874617
 30
0.0
 11
427.5895820066611
 21
17.96784412430594
 31
0.0
  0
LINE
  8
0
 10
427.5895820066611
 20
17.96784412430594
 30
0.0
 11
429.8282709176907
 21
16.180103109911187
 31
0.0
  0
LINE
  8
0
 10
429.8282709176907
 20
16.180103109911187
 30
0.0
 11
432.06695982872037
 21
14.341580090416812
 31
0.0
  0
LINE
  8
0
 10
432.06695982872037
 20
14.341580090416812
 30
0.0
 11
434.30564873975
 21
12.45170377089056
 31
0.0
  0
LINE
  8
0
 10
434.30564873975
 20
12.45170377089056
 30
0.0
 11
436.54433765077965
 21
10.509886899090901
 31
0.0
  0
LINE
  8
0
 10
436.54433765077965
 20
10.509886899090901
 30
0.0
 11
438.78302656180927
 21
8.515526082987122
 31
0.0
  0
LINE
  8
0
 10
438.78302656180927
 20
8.515526082987122
 30
0.0
 11
441.02171547283893
 21
6.468001603263417
 31
0.0
  0
LINE
  8
0
 10
441.02171547283893
 20
6.468001603263417
 30
0.0
 11
443.2604043838685
 21
4.366677220750432
 31
0.0
  0
LINE
  8
0
 10
443.2604043838685
 20
4.366677220750432
 30
0.0
 11
445.4990932948982
 21
2.210899978722182
 31
0.0
  0
LINE
  8
0
 10
445.4990932948982
 20
2.210899978722182
 30
0.0
 11
447.7377822059278
 21
8.526512829121202e-14
 31
0.0
  0
LINE
  8
0
 10
447.7377822059278
 20
8.526512829121202e-14
 30
0.0
 11
449.9764711169575
 21
2.2108999787222388
 31
0.0
  0
LINE
  8
0
 10
449.9764711169575
 20
2.2108999787222388
 30
0.0
 11
452.21516002798705
 21
4.366677220750319
 31
0.0
  0
LINE
  8
0
 10
452.21516002798705
 20
4.366677220750319
 30
0.0
 11
454.4538489390168
 21
6.468001603263474
 31
0.0
  0
LINE
  8
0
 10
454.4538489390168
 20
6.468001603263474
 30
0.0
 11
456.69253785004634
 21
8.515526082987066
 31
0.0
  0
LINE
  8
0
 10
456.69253785004634
 20
8.515526082987066
 30
0.0
 11
458.931226761076
 21
10.509886899090901
 31
0.0
  0
LINE
  8
0
 10
458.931226761076
 20
10.509886899090901
 30
0.0
 11
461.1699156721056
 21
12.451703770890504
 31
0.0
  0
LINE
  8
0
 10
461.1699156721056
 20
12.451703770890504
 30
0.0
 11
463.4086045831353
 21
14.341580090416812
 31
0.0
  0
LINE
  8
0
 10
463.4086045831353
 20
14.341580090416812
 30
0.0
 11
465.6472934941649
 21
16.18010310991116
 31
0.0
  0
LINE
  8
0
 10
465.6472934941649
 20
16.18010310991116
 30
0.0
 11
467.88598240519457
 21
17.96784412430594
 31
0.0
  0
LINE
  8
0
 10
467.88598240519457
 20
17.96784412430594
 30
0.0
 11
470.1246713162242
 21
19.70535864874617
 31
0.0
  0
LINE
  8
0
 10
470.1246713162242
 20
19.70535864874617
 30
0.0
 11
472.36336022725385
 21
21.39318659120812
 31
0.0
  0
LINE
  8
0
 10
472.36336022725385
 20
21.39318659120812
 30
0.0
 11
474.60204913828346
 21
23.031852420267853
 31
0.0
  0
LINE
  8
0
 10
474.60204913828346
 20
23.031852420267853
 30
0.0
 11
476.84073804931313
 21
24.62186532807266
 31
0.0
  0
LINE
  8
0
 10
476.84073804931313
 20
24.62186532807266
 30
0.0
 11
479.07942696034274
 21
26.163719388564942
 31
0.0
  0
LINE
  8
0
 10
479.07942696034274
 20
26.163719388564942
 30
0.0
 11
481.3181158713724
 21
27.657893711008967
 31
0.0
  0
LINE
  8
0
 10
481.3181158713724
 20
27.657893711008967
 30
0.0
 11
483.556804782402
 21
29.104852588867146
 31
0.0
  0
LINE
  8
0
 10
483.556804782402
 20
29.104852588867146
 30
0.0
 11
485.7954936934317
 21
30.505045644072737
 31
0.0
  0
LINE
  8
0
 10
485.7954936934317
 20
30.505045644072737
 30
0.0
 11
488.0341826044613
 21
31.85890796674326
 31
0.0
  0
LINE
  8
0
 10
488.0341826044613
 20
31.85890796674326
 30
0.0
 11
490.272871515491
 21
33.166860250378846
 31
0.0
  0
LINE
  8
0
 10
490.272871515491
 20
33.166860250378846
 30
0.0
 11
492.5115604265206
 21
34.42930892258647
 31
0.0
  0
LINE
  8
0
 10
492.5115604265206
 20
34.42930892258647
 30
0.0
 11
494.75024933755026
 21
35.64664627137202
 31
0.0
  0
LINE
  8
0
 10
494.75024933755026
 20
35.64664627137202
 30
0.0
 11
496.98893824857987
 21
36.81925056703764
 31
0.0
  0
LINE
  8
0
 10
496.98893824857987
 20
36.81925056703764
 30
0.0
 11
499.22762715960954
 21
37.947486179724365
 31
0.0
  0
LINE
  8
0
 10
499.22762715960954
 20
37.947486179724365
 30
0.0
 11
501.46631607063915
 21
39.03170369263461
 31
0.0
  0
LINE
  8
0
 10
501.46631607063915
 20
39.03170369263461
 30
0.0
 11
503.7050049816688
 21
40.07224001097123
 31
0.0
  0
LINE
  8
0
 10
503.7050049816688
 20
40.07224001097123
 30
0.0
 11
505.94369389269843
 21
41.069418466625706
 31
0.0
  0
LINE
  8
0
 10
505.94369389269843
 20
41.069418466625706
 30
0.0
 11
508.1823828037281
 21
42.02354891864928
 31
0.0
  0
LINE
  8
0
 10
508.1823828037281
 20
42.02354891864928
 30
0.0
 11
510.4210717147577
 21
42.93492784953693
 31
0.0
  0
LINE
  8
0
 10
510.4210717147577
 20
42.93492784953693
 30
0.0
 11
512.6597606257874
 21
43.803838457355454
 31
0.0
  0
LINE
  8
0
 10
512.6597606257874
 20
43.803838457355454
 30
0.0
 11
514.898449536817
 21
44.630550743742845
 31
0.0
  0
LINE
  8
0
 10
514.898449536817
 20
44.630550743742845
 30
0.0
 11
517.1371384478466
 21
45.41532159780775
 31
0.0
  0
LINE
  8
0
 10
517.1371384478466
 20
45.41532159780775
 30
0.0
 11
519.3758273588762
 21
46.15839487595409
 31
0.0
  0
LINE
  8
0
 10
519.3758273588762
 20
46.15839487595409
 30
0.0
 11
521.614516269906
 21
46.860001477655885
 31
0.0
  0
LINE
  8
0
 10
521.614516269906
 20
46.860001477655885
 30
0.0
 11
523.8532051809356
 21
47.52035941720598
 31
0.0
  0
LINE
  8
0
 10
523.8532051809356
 20
47.52035941720598
 30
0.0
 11
526.0918940919652
 21
48.13967389146103
 31
0.0
  0
LINE
  8
0
 10
526.0918940919652
 20
48.13967389146103
 30
0.0
 11
528.3305830029948
 21
48.71813734360333
 31
0.0
  0
LINE
  8
0
 10
528.3305830029948
 20
48.71813734360333
 30
0.0
 11
530.5692719140245
 21
49.255929522939994
 31
0.0
  0
LINE
  8
0
 10
530.5692719140245
 20
49.255929522939994
 30
0.0
 11
532.8079608250541
 21
49.75321754075728
 31
0.0
  0
LINE
  8
0
 10
532.8079608250541
 20
49.75321754075728
 30
0.0
 11
535.0466497360837
 21
50.21015592224825
 31
0.0
  0
LINE
  8
0
 10
535.0466497360837
 20
50.21015592224825
 30
0.0
 11
537.2853386471133
 21
50.62688665452916
 31
0.0
  0
LINE
  8
0
 10
537.2853386471133
 20
50.62688665452916
 30
0.0
 11
539.5240275581431
 21
51.003539230760055
 31
0.0
  0
LINE
  8
0
 10
539.5240275581431
 20
51.003539230760055
 30
0.0
 11
541.7627164691727
 21
51.3402306903827
 31
0.0
  0
LINE
  8
0
 10
541.7627164691727
 20
51.3402306903827
 30
0.0
 11
544.0014053802023
 21
51.63706565548928
 31
0.0
  0
LINE
  8
0
 10
544.0014053802023
 20
51.63706565548928
 30
0.0
 11
546.2400942912319
 21
51.89413636333191
 31
0.0
  0
LINE
  8
0
 10
546.2400942912319
 20
51.89413636333191
 30
0.0
 11
548.4787832022616
 21
52.111522694984174
 31
0.0
  0
LINE
  8
0
 10
548.4787832022616
 20
52.111522694984174
 30
0.0
 11
550.7174721132913
 21
52.28929220016305
 31
0.0
  0
LINE
  8
0
 10
550.7174721132913
 20
52.28929220016305
 30
0.0
 11
552.9561610243209
 21
52.42750011821903
 31
0.0
  0
LINE
  8
0
 10
552.9561610243209
 20
52.42750011821903
 30
0.0
 11
555.1948499353505
 21
52.52618939530092
 31
0.0
  0
LINE
  8
0
 10
555.1948499353505
 20
52.52618939530092
 30
0.0
 11
557.4335388463802
 21
52.5853906977008
 31
0.0
  0
LINE
  8
0
 10
557.4335388463802
 20
52.5853906977008
 30
0.0
 11
559.6722277574098
 21
52.60512242138307
 31
0.0
  0
LINE
  8
0
 10
559.6722277574098
 20
52.60512242138307
 30
0.0
 11
561.9109166684394
 21
52.5853906977008
 31
0.0
  0
LINE
  8
0
 10
561.9109166684394
 20
52.5853906977008
 30
0.0
 11
564.149605579469
 21
52.52618939530092
 31
0.0
  0
LINE
  8
0
 10
564.149605579469
 20
52.52618939530092
 30
0.0
 11
566.3882944904988
 21
52.42750011821903
 31
0.0
  0
LINE
  8
0
 10
566.3882944904988
 20
52.42750011821903
 30
0.0
 11
568.6269834015284
 21
52.28929220016305
 31
0.0
  0
LINE
  8
0
 10
568.6269834015284
 20
52.28929220016305
 30
0.0
 11
570.865672312558
 21
52.111522694984174
 31
0.0
  0
LINE
  8
0
 10
570.865672312558
 20
52.111522694984174
 30
0.0
 11
573.1043612235876
 21
51.89413636333191
 31
0.0
  0
LINE
  8
0
 10
573.1043612235876
 20
51.89413636333191
 30
0.0
 11
575.3430501346172
 21
51.63706565548928
 31
0.0
  0
LINE
  8
0
 10
575.3430501346172
 20
51.63706565548928
 30
0.0
 11
577.5817390456469
 21
51.3402306903827
 31
0.0
  0
LINE
  8
0
 10
577.5817390456469
 20
51.3402306903827
 30
0.0
 11
579.8204279566766
 21
51.003539230760026
 31
0.0
  0
LINE
  8
0
 10
579.8204279566766
 20
51.003539230760026
 30
0.0
 11
582.0591168677062
 21
50.62688665452916
 31
0.0
  0
LINE
  8
0
 10
582.0591168677062
 20
50.62688665452916
 30
0.0
 11
584.2978057787358
 21
50.21015592224825
 31
0.0
  0
LINE
  8
0
 10
584.2978057787358
 20
50.21015592224825
 30
0.0
 11
586.5364946897655
 21
49.75321754075725
 31
0.0
  0
LINE
  8
0
 10
586.5364946897655
 20
49.75321754075725
 30
0.0
 11
588.7751836007951
 21
49.255929522939994
 31
0.0
  0
LINE
  8
0
 10
588.7751836007951
 20
49.255929522939994
 30
0.0
 11
591.0138725118247
 21
48.71813734360333
 31
0.0
  0
LINE
  8
0
 10
591.0138725118247
 20
48.71813734360333
 30
0.0
 11
593.2525614228543
 21
48.13967389146106
 31
0.0
  0
LINE
  8
0
 10
593.2525614228543
 20
48.13967389146106
 30
0.0
 11
595.4912503338841
 21
47.52035941720598
 31
0.0
  0
LINE
  8
0
 10
595.4912503338841
 20
47.52035941720598
 30
0.0
 11
597.7299392449136
 21
46.86000147765591
 31
0.0
  0
LINE
  8
0
 10
597.7299392449136
 20
46.86000147765591
 30
0.0
 11
599.9686281559433
 21
46.15839487595409
 31
0.0
  0
LINE
  8
0
 10
599.9686281559433
 20
46.15839487595409
 30
0.0
 11
602.2073170669729
 21
45.415321597807775
 31
0.0
  0
LINE
  8
0
 10
602.2073170669729
 20
45.415321597807775
 30
0.0
 11
604.4460059780026
 21
44.630550743742816
 31
0.0
  0
LINE
  8
0
 10
604.4460059780026
 20
44.630550743742816
 30
0.0
 11
606.6846948890321
 21
43.80383845735548
 31
0.0
  0
LINE
  8
0
 10
606.6846948890321
 20
43.80383845735548
 30
0.0
 11
608.9233838000619
 21
42.93492784953693
 31
0.0
  0
LINE
  8
0
 10
608.9233838000619
 20
42.93492784953693
 30
0.0
 11
611.1620727110915
 21
42.02354891864928
 31
0.0
  0
LINE
  8
0
 10
611.1620727110915
 20
42.02354891864928
 30
0.0
 11
613.4007616221211
 21
41.069418466625734
 31
0.0
  0
LINE
  8
0
 10
613.4007616221211
 20
41.069418466625734
 30
0.0
 11
615.6394505331507
 21
40.07224001097126
 31
0.0
  0
LINE
  8
0
 10
615.6394505331507
 20
40.07224001097126
 30
0.0
 11
617.8781394441804
 21
39.03170369263461
 31
0.0
  0
LINE
  8
0
 10
617.8781394441804
 20
39.03170369263461
 30
0.0
 11
620.11682835521
 21
37.947486179724365
 31
0.0
  0
LINE
  8
0
 10
620.11682835521
 20
37.947486179724365
 30
0.0
 11
622.3555172662396
 21
36.81925056703767
 31
0.0
  0
LINE
  8
0
 10
622.3555172662396
 20
36.81925056703767
 30
0.0
 11
624.5942061772693
 21
35.64664627137205
 31
0.0
  0
LINE
  8
0
 10
624.5942061772693
 20
35.64664627137205
 30
0.0
 11
626.832895088299
 21
34.42930892258647
 31
0.0
  0
LINE
  8
0
 10
626.832895088299
 20
34.42930892258647
 30
0.0
 11
629.0715839993286
 21
33.166860250378846
 31
0.0
  0
LINE
  8
0
 10
629.0715839993286
 20
33.166860250378846
 30
0.0
 11
631.3102729103582
 21
31.85890796674329
 31
0.0
  0
LINE
  8
0
 10
631.3102729103582
 20
31.85890796674329
 30
0.0
 11
633.5489618213878
 21
30.505045644072766
 31
0.0
  0
LINE
  8
0
 10
633.5489618213878
 20
30.505045644072766
 30
0.0
 11
635.7876507324175
 21
29.104852588867146
 31
0.0
  0
LINE
  8
0
 10
635.7876507324175
 20
29.104852588867146
 30
0.0
 11
638.0263396434472
 21
27.657893711008967
 31
0.0
  0
LINE
  8
0
 10
638.0263396434472
 20
27.657893711008967
 30
0.0
 11
640.2650285544768
 21
26.16371938856497
 31
0.0
  0
LINE
  8
0
 10
640.2650285544768
 20
26.16371938856497
 30
0.0
 11
642.5037174655064
 21
24.621865328072687
 31
0.0
  0
LINE
  8
0
 10
642.5037174655064
 20
24.621865328072687
 30
0.0
 11
644.7424063765361
 21
23.031852420267853
 31
0.0
  0
LINE
  8
0
 10
644.7424063765361
 20
23.031852420267853
 30
0.0
 11
646.9810952875657
 21
21.39318659120812
 31
0.0
  0
LINE
  8
0
 10
646.9810952875657
 20
21.39318659120812
 30
0.0
 11
649.2197841985953
 21
19.7053586487462
 31
0.0
  0
LINE
  8
0
 10
649.2197841985953
 20
19.7053586487462
 30
0.0
 11
651.458473109625
 21
17.96784412430597
 31
0.0
  0
LINE
  8
0
 10
651.458473109625
 20
17.96784412430597
 30
0.0
 11
653.6971620206547
 21
16.18010310991116
 31
0.0
  0
LINE
  8
0
 10
653.6971620206547
 20
16.18010310991116
 30
0.0
 11
655.9358509316843
 21
14.341580090416812
 31
0.0
  0
LINE
  8
0
 10
655.9358509316843
 20
14.341580090416812
 30
0.0
 11
658.1745398427139
 21
12.45170377089056
 31
0.0
  0
LINE
  8
0
 10
658.1745398427139
 20
12.45170377089056
 30
0.0
 11
660.4132287537436
 21
10.509886899090844
 31
0.0
  0
LINE
  8
0
 10
660.4132287537436
 20
10.509886899090844
 30
0.0
 11
662.6519176647732
 21
8.515526082987066
 31
0.0
  0
LINE
  8
0
 10
662.6519176647732
 20
8.515526082987066
 30
0.0
 11
664.8906065758028
 21
6.468001603263417
 31
0.0
  0
LINE
  8
0
 10
664.8906065758028
 20
6.468001603263417
 30
0.0
 11
667.1292954868325
 21
4.3666772207503755
 31
0.0
  0
LINE
  8
0
 10
667.1292954868325
 20
4.3666772207503755
 30
0.0
 11
669.3679843978622
 21
2.210899978722125
 31
0.0
  0
LINE
  8
0
 10
669.3679843978622
 20
2.210899978722125
 30
0.0
 11
671.6066733088918
 21
8.526512829121202e-14
 31
0.0
  0
LINE
  8
0
 10
671.6066733088918
 20
8.526512829121202e-14
 30
0.0
 11
673.8453622199214
 21
2.2108999787222388
 31
0.0
  0
LINE
  8
0
 10
673.8453622199214
 20
2.2108999787222388
 30
0.0
 11
676.084051130951
 21
4.3666772207503755
 31
0.0
  0
LINE
  8
0
 10
676.084051130951
 20
4.3666772207503755
 30
0.0
 11
678.3227400419808
 21
6.468001603263531
 31
0.0
  0
LINE
  8
0
 10
678.3227400419808
 20
6.468001603263531
 30
0.0
 11
680.5614289530104
 21
8.51552608298718
 31
0.0
  0
LINE
  8
0
 10
680.5614289530104
 20
8.51552608298718
 30
0.0
 11
682.80011786404
 21
10.509886899090958
 31
0.0
  0
LINE
  8
0
 10
682.80011786404
 20
10.509886899090958
 30
0.0
 11
685.0388067750696
 21
12.45170377089056
 31
0.0
  0
LINE
  8
0
 10
685.0388067750696
 20
12.45170377089056
 30
0.0
 11
687.2774956860993
 21
14.341580090416926
 31
0.0
  0
LINE
  8
0
 10
687.2774956860993
 20
14.341580090416926
 30
0.0
 11
689.5161845971289
 21
16.180103109911215
 31
0.0
  0
LINE
  8
0
 10
689.5161845971289
 20
16.180103109911215
 30
0.0
 11
691.7548735081585
 21
17.96784412430597
 31
0.0
  0
LINE
  8
0
 10
691.7548735081585
 20
17.96784412430597
 30
0.0
 11
693.993562419188
 21
19.705358648746113
 31
0.0
  0
LINE
  8
0
 10
693.993562419188
 20
19.705358648746113
 30
0.0
 11
696.2322513302179
 21
21.393186591208206
 31
0.0
  0
LINE
  8
0
 10
696.2322513302179
 20
21.393186591208206
 30
0.0
 11
698.4709402412475
 21
23.03185242026794
 31
0.0
  0
LINE
  8
0
 10
698.4709402412475
 20
23.03185242026794
 30
0.0
 11
700.7096291522771
 21
24.621865328072687
 31
0.0
  0
LINE
  8
0
 10
700.7096291522771
 20
24.621865328072687
 30
0.0
 11
702.9483180633066
 21
26.163719388564886
 31
0.0
  0
LINE
  8
0
 10
702.9483180633066
 20
26.163719388564886
 30
0.0
 11
705.1870069743364
 21
27.657893711009024
 31
0.0
  0
LINE
  8
0
 10
705.1870069743364
 20
27.657893711009024
 30
0.0
 11
707.425695885366
 21
29.10485258886723
 31
0.0
  0
LINE
  8
0
 10
707.425695885366
 20
29.10485258886723
 30
0.0
 11
709.6643847963956
 21
30.50504564407271
 31
0.0
  0
LINE
  8
0
 10
709.6643847963956
 20
30.50504564407271
 30
0.0
 11
711.9030737074252
 21
31.858907966743203
 31
0.0
  0
LINE
  8
0
 10
711.9030737074252
 20
31.858907966743203
 30
0.0
 11
714.141762618455
 21
33.1668602503789
 31
0.0
  0
LINE
  8
0
 10
714.141762618455
 20
33.1668602503789
 30
0.0
 11
716.3804515294846
 21
34.42930892258656
 31
0.0
  0
LINE
  8
0
 10
716.3804515294846
 20
34.42930892258656
 30
0.0
 11
718.6191404405141
 21
35.64664627137199
 31
0.0
  0
LINE
  8
0
 10
718.6191404405141
 20
35.64664627137199
 30
0.0
 11
720.8578293515437
 21
36.819250567037614
 31
0.0
  0
LINE
  8
0
 10
720.8578293515437
 20
36.819250567037614
 30
0.0
 11
723.0965182625733
 21
37.94748617972431
 31
0.0
  0
LINE
  8
0
 10
723.0965182625733
 20
37.94748617972431
 30
0.0
 11
725.3352071736031
 21
39.03170369263461
 31
0.0
  0
LINE
  8
0
 10
725.3352071736031
 20
39.03170369263461
 30
0.0
 11
727.5738960846327
 21
40.0722400109712
 31
0.0
  0
LINE
  8
0
 10
727.5738960846327
 20
40.0722400109712
 30
0.0
 11
729.8125849956623
 21
41.06941846662568
 31
0.0
  0
LINE
  8
0
 10
729.8125849956623
 20
41.06941846662568
 30
0.0
 11
732.0512739066919
 21
42.023548918649226
 31
0.0
  0
LINE
  8
0
 10
732.0512739066919
 20
42.023548918649226
 30
0.0
 11
734.2899628177216
 21
42.93492784953693
 31
0.0
  0
LINE
  8
0
 10
734.2899628177216
 20
42.93492784953693
 30
0.0
 11
736.5286517287512
 21
43.803838457355454
 31
0.0
  0
LINE
  8
0
 10
736.5286517287512
 20
43.803838457355454
 30
0.0
 11
738.7673406397809
 21
44.630550743742845
 31
0.0
  0
LINE
  8
0
 10
738.7673406397809
 20
44.630550743742845
 30
0.0
 11
741.0060295508105
 21
45.41532159780775
 31
0.0
  0
LINE
  8
0
 10
741.0060295508105
 20
45.41532159780775
 30
0.0
 11
743.2447184618402
 21
46.15839487595409
 31
0.0
  0
LINE
  8
0
 10
743.2447184618402
 20
46.15839487595409
 30
0.0
 11
745.4834073728698
 21
46.86000147765586
 31
0.0
  0
LINE
  8
0
 10
745.4834073728698
 20
46.86000147765586
 30
0.0
 11
747.7220962838994
 21
47.52035941720595
 31
0.0
  0
LINE
  8
0
 10
747.7220962838994
 20
47.52035941720595
 30
0.0
 11
749.960785194929
 21
48.139673891461
 31
0.0
  0
LINE
  8
0
 10
749.960785194929
 20
48.139673891461
 30
0.0
 11
752.1994741059588
 21
48.71813734360336
 31
0.0
  0
LINE
  8
0
 10
752.1994741059588
 20
48.71813734360336
 30
0.0
 11
754.4381630169884
 21
49.255929522939994
 31
0.0
  0
LINE
  8
0
 10
754.4381630169884
 20
49.255929522939994
 30
0.0
 11
756.676851928018
 21
49.75321754075728
 31
0.0
  0
LINE
  8
0
 10
756.676851928018
 20
49.75321754075728
 30
0.0
 11
758.9155408390476
 21
50.21015592224825
 31
0.0
  0
LINE
  8
0
 10
758.9155408390476
 20
50.21015592224825
 30
0.0
 11
761.1542297500773
 21
50.62688665452916
 31
0.0
  0
LINE
  8
0
 10
761.1542297500773
 20
50.62688665452916
 30
0.0
 11
763.3929186611069
 21
51.003539230760026
 31
0.0
  0
LINE
  8
0
 10
763.3929186611069
 20
51.003539230760026
 30
0.0
 11
765.6316075721365
 21
51.3402306903827
 31
0.0
  0
LINE
  8
0
 10
765.6316075721365
 20
51.3402306903827
 30
0.0
 11
767.8702964831662
 21
51.63706565548928
 31
0.0
  0
LINE
  8
0
 10
767.8702964831662
 20
51.63706565548928
 30
0.0
 11
770.1089853941959
 21
51.89413636333191
 31
0.0
  0
LINE
  8
0
 10
770.1089853941959
 20
51.89413636333191
 30
0.0
 11
772.3476743052255
 21
52.111522694984174
 31
0.0
  0
LINE
  8
0
 10
772.3476743052255
 20
52.111522694984174
 30
0.0
 11
774.5863632162551
 21
52.28929220016305
 31
0.0
  0
LINE
  8
0
 10
774.5863632162551
 20
52.28929220016305
 30
0.0
 11
776.8250521272847
 21
52.42750011821903
 31
0.0
  0
LINE
  8
0
 10
776.8250521272847
 20
52.42750011821903
 30
0.0
 11
779.0637410383144
 21
52.52618939530092
 31
0.0
  0
LINE
  8
0
 10
779.0637410383144
 20
52.52618939530092
 30
0.0
 11
781.3024299493441
 21
52.5853906977008
 31
0.0
  0
LINE
  8
0
 10
781.3024299493441
 20
52.5853906977008
 30
0.0
 11
783.5411188603737
 21
52.60512242138307
 31
0.0
  0
LINE
  8
0
 10
783.5411188603737
 20
52.60512242138307
 30
0.0
 11
785.7798077714033
 21
52.5853906977008
 31
0.0
  0
LINE
  8
0
 10
785.7798077714033
 20
52.5853906977008
 30
0.0
 11
788.018496682433
 21
52.52618939530092
 31
0.0
  0
LINE
  8
0
 10
788.018496682433
 20
52.52618939530092
 30
0.0
 11
790.2571855934626
 21
52.42750011821903
 31
0.0
  0
LINE
  8
0
 10
790.2571855934626
 20
52.42750011821903
 30
0.0
 11
792.4958745044922
 21
52.28929220016305
 31
0.0
  0
LINE
  8
0
 10
792.4958745044922
 20
52.28929220016305
 30
0.0
 11
794.7345634155218
 21
52.111522694984174
 31
0.0
  0
LINE
  8
0
 10
794.7345634155218
 20
52.111522694984174
 30
0.0
 11
796.9732523265516
 21
51.89413636333191
 31
0.0
  0
LINE
  8
0
 10
796.9732523265516
 20
51.89413636333191
 30
0.0
 11
799.2119412375812
 21
51.63706565548928
 31
0.0
  0
LINE
  8
0
 10
799.2119412375812
 20
51.63706565548928
 30
0.0
 11
801.4506301486108
 21
51.340230690382725
 31
0.0
  0
LINE
  8
0
 10
801.4506301486108
 20
51.340230690382725
 30
0.0
 11
803.6893190596404
 21
51.003539230760055
 31
0.0
  0
LINE
  8
0
 10
803.6893190596404
 20
51.003539230760055
 30
0.0
 11
805.9280079706701
 21
50.62688665452916
 31
0.0
  0
LINE
  8
0
 10
805.9280079706701
 20
50.62688665452916
 30
0.0
 11
808.1666968816997
 21
50.21015592224822
 31
0.0
  0
LINE
  8
0
 10
808.1666968816997
 20
50.21015592224822
 30
0.0
 11
810.4053857927294
 21
49.75321754075725
 31
0.0
  0
LINE
  8
0
 10
810.4053857927294
 20
49.75321754075725
 30
0.0
 11
812.644074703759
 21
49.255929522939994
 31
0.0
  0
LINE
  8
0
 10
812.644074703759
 20
49.255929522939994
 30
0.0
 11
814.8827636147887
 21
48.71813734360333
 31
0.0
  0
LINE
  8
0
 10
814.8827636147887
 20
48.71813734360333
 30
0.0
 11
817.1214525258183
 21
48.13967389146106
 31
0.0
  0
LINE
  8
0
 10
817.1214525258183
 20
48.13967389146106
 30
0.0
 11
819.3601414368479
 21
47.52035941720601
 31
0.0
  0
LINE
  8
0
 10
819.3601414368479
 20
47.52035941720601
 30
0.0
 11
821.5988303478775
 21
46.86000147765591
 31
0.0
  0
LINE
  8
0
 10
821.5988303478775
 20
46.86000147765591
 30
0.0
 11
823.8375192589073
 21
46.15839487595406
 31
0.0
  0
LINE
  8
0
 10
823.8375192589073
 20
46.15839487595406
 30
0.0
 11
826.0762081699369
 21
45.41532159780772
 31
0.0
  0
LINE
  8
0
 10
826.0762081699369
 20
45.41532159780772
 30
0.0
 11
828.3148970809665
 21
44.630550743742816
 31
0.0
  0
LINE
  8
0
 10
828.3148970809665
 20
44.630550743742816
 30
0.0
 11
830.5535859919961
 21
43.803838457355425
 31
0.0
  0
LINE
  8
0
 10
830.5535859919961
 20
43.803838457355425
 30
0.0
 11
832.7922749030258
 21
42.93492784953693
 31
0.0
  0
LINE
  8
0
 10
832.7922749030258
 20
42.93492784953693
 30
0.0
 11
835.0309638140554
 21
42.02354891864928
 31
0.0
  0
LINE
  8
0
 10
835.0309638140554
 20
42.02354891864928
 30
0.0
 11
837.269652725085
 21
41.069418466625734
 31
0.0
  0
LINE
  8
0
 10
837.269652725085
 20
41.069418466625734
 30
0.0
 11
839.5083416361147
 21
40.07224001097126
 31
0.0
  0
LINE
  8
0
 10
839.5083416361147
 20
40.07224001097126
 30
0.0
 11
841.7470305471444
 21
39.03170369263455
 31
0.0
  0
LINE
  8
0
 10
841.7470305471444
 20
39.03170369263455
 30
0.0
 11
843.985719458174
 21
37.94748617972431
 31
0.0
  0
LINE
  8
0
 10
843.985719458174
 20
37.94748617972431
 30
0.0
 11
846.2244083692036
 21
36.819250567037614
 31
0.0
  0
LINE
  8
0
 10
846.2244083692036
 20
36.819250567037614
 30
0.0
 11
848.4630972802332
 21
35.64664627137199
 31
0.0
  0
LINE
  8
0
 10
848.4630972802332
 20
35.64664627137199
 30
0.0
 11
850.701786191263
 21
34.42930892258647
 31
0.0
  0
LINE
  8
0
 10
850.701786191263
 20
34.42930892258647
 30
0.0
 11
852.9404751022926
 21
33.166860250378846
 31
0.0
  0
LINE
  8
0
 10
852.9404751022926
 20
33.166860250378846
 30
0.0
 11
855.1791640133222
 21
31.85890796674329
 31
0.0
  0
LINE
  8
0
 10
855.1791640133222
 20
31.85890796674329
 30
0.0
 11
857.4178529243518
 21
30.505045644072766
 31
0.0
  0
LINE
  8
0
 10
857.4178529243518
 20
30.505045644072766
 30
0.0
 11
859.6565418353814
 21
29.10485258886723
 31
0.0
  0
LINE
  8
0
 10
859.6565418353814
 20
29.10485258886723
 30
0.0
 11
861.8952307464111
 21
27.65789371100888
 31
0.0
  0
LINE
  8
0
 10
861.8952307464111
 20
27.65789371100888
 30
0.0
 11
864.1339196574407
 21
26.163719388564886
 31
0.0
  0
LINE
  8
0
 10
864.1339196574407
 20
26.163719388564886
 30
0.0
 11
866.3726085684704
 21
24.6218653280726
 31
0.0
  0
LINE
  8
0
 10
866.3726085684704
 20
24.6218653280726
 30
0.0
 11
868.6112974795
 21
23.031852420267853
 31
0.0
  0
LINE
  8
0
 10
868.6112974795
 20
23.031852420267853
 30
0.0
 11
870.8499863905297
 21
21.39318659120812
 31
0.0
  0
LINE
  8
0
 10
870.8499863905297
 20
21.39318659120812
 30
0.0
 11
873.0886753015593
 21
19.7053586487462
 31
0.0
  0
LINE
  8
0
 10
873.0886753015593
 20
19.7053586487462
 30
0.0
 11
875.3273642125889
 21
17.96784412430597
 31
0.0
  0
LINE
  8
0
 10
875.3273642125889
 20
17.96784412430597
 30
0.0
 11
877.5660531236185
 21
16.180103109911215
 31
0.0
  0
LINE
  8
0
 10
877.5660531236185
 20
16.180103109911215
 30
0.0
 11
879.8047420346483
 21
14.341580090416727
 31
0.0
  0
LINE
  8
0
 10
879.8047420346483
 20
14.341580090416727
 30
0.0
 11
882.0434309456779
 21
12.451703770890475
 31
0.0
  0
LINE
  8
0
 10
882.0434309456779
 20
12.451703770890475
 30
0.0
 11
884.2821198567075
 21
10.509886899090844
 31
0.0
  0
LINE
  8
0
 10
884.2821198567075
 20
10.509886899090844
 30
0.0
 11
886.520808767737
 21
8.515526082987265
 31
0.0
  0
LINE
  8
0
 10
886.520808767737
 20
8.515526082987265
 30
0.0
 11
888.7594976787668
 21
6.468001603263417
 31
0.0
  0
LINE
  8
0
 10
888.7594976787668
 20
6.468001603263417
 30
0.0
 11
890.9981865897964
 21
4.3666772207503755
 31
0.0
  0
LINE
  8
0
 10
890.9981865897964
 20
4.3666772207503755
 30
0.0
 11
893.236875500826
 21
2.2108999787222388
 31
0.0
  0
LINE
  8
0
 10
893.236875500826
 20
2.2108999787222388
 30
0.0
 11
895.4755644118555
 21
8.526512829121202e-14
 31
0.0
  0
LINE
  8
0
 10
895.4755644118555
 20
8.526512829121202e-14
 30
0.0
 11
897.7142533228854
 21
2.2108999787223524
 31
0.0
  0
LINE
  8
0
 10
897.7142533228854
 20
2.2108999787223524
 30
0.0
 11
899.952942233915
 21
4.366677220750489
 31
0.0
  0
LINE
  8
0
 10
899.952942233915
 20
4.366677220750489
 30
0.0
 11
902.1916311449445
 21
6.468001603263332
 31
0.0
  0
LINE
  8
0
 10
902.1916311449445
 20
6.468001603263332
 30
0.0
 11
904.4303200559741
 21
8.515526082986952
 31
0.0
  0
LINE
  8
0
 10
904.4303200559741
 20
8.515526082986952
 30
0.0
 11
906.669008967004
 21
10.509886899090958
 31
0.0
  0
LINE
  8
0
 10
906.669008967004
 20
10.509886899090958
 30
0.0
 11
908.9076978780336
 21
12.45170377089056
 31
0.0
  0
LINE
  8
0
 10
908.9076978780336
 20
12.45170377089056
 30
0.0
 11
911.1463867890631
 21
14.341580090416812
 31
0.0
  0
LINE
  8
0
 10
911.1463867890631
 20
14.341580090416812
 30
0.0
 11
913.3850757000927
 21
16.18010310991116
 31
0.0
  0
LINE
  8
0
 10
913.3850757000927
 20
16.18010310991116
 30
0.0
 11
915.6237646111225
 21
17.967844124306083
 31
0.0
  0
LINE
  8
0
 10
915.6237646111225
 20
17.967844124306083
 30
0.0
 11
917.862453522152
 21
19.705358648746113
 31
0.0
  0
LINE
  8
0
 10
917.862453522152
 20
19.705358648746113
 30
0.0
 11
920.1011424331816
 21
21.393186591208035
 31
0.0
  0
LINE
  8
0
 10
920.1011424331816
 20
21.393186591208035
 30
0.0
 11
922.3398313442112
 21
23.031852420267768
 31
0.0
  0
LINE
  8
0
 10
922.3398313442112
 20
23.031852420267768
 30
0.0
 11
924.5785202552411
 21
24.621865328072687
 31
0.0
  0
LINE
  8
0
 10
924.5785202552411
 20
24.621865328072687
 30
0.0
 11
926.8172091662706
 21
26.16371938856497
 31
0.0
  0
LINE
  8
0
 10
926.8172091662706
 20
26.16371938856497
 30
0.0
 11
929.0558980773002
 21
27.657893711008967
 31
0.0
  0
LINE
  8
0
 10
929.0558980773002
 20
27.657893711008967
 30
0.0
 11
931.2945869883298
 21
29.104852588867146
 31
0.0
  0
LINE
  8
0
 10
931.2945869883298
 20
29.104852588867146
 30
0.0
 11
933.5332758993595
 21
30.50504564407271
 31
0.0
  0
LINE
  8
0
 10
933.5332758993595
 20
30.50504564407271
 30
0.0
 11
935.7719648103891
 21
31.858907966743203
 31
0.0
  0
LINE
  8
0
 10
935.7719648103891
 20
31.858907966743203
 30
0.0
 11
938.0106537214187
 21
33.16686025037876
 31
0.0
  0
LINE
  8
0
 10
938.0106537214187
 20
33.16686025037876
 30
0.0
 11
940.2493426324484
 21
34.429308922586415
 31
0.0
  0
LINE
  8
0
 10
940.2493426324484
 20
34.429308922586415
 30
0.0
 11
942.4880315434781
 21
35.64664627137205
 31
0.0
  0
LINE
  8
0
 10
942.4880315434781
 20
35.64664627137205
 30
0.0
 11
944.7267204545077
 21
36.81925056703767
 31
0.0
  0
LINE
  8
0
 10
944.7267204545077
 20
36.81925056703767
 30
0.0
 11
946.9654093655373
 21
37.947486179724365
 31
0.0
  0
LINE
  8
0
 10
946.9654093655373
 20
37.947486179724365
 30
0.0
 11
949.2040982765669
 21
39.03170369263461
 31
0.0
  0
LINE
  8
0
 10
949.2040982765669
 20
39.03170369263461
 30
0.0
 11
951.4427871875967
 21
40.0722400109712
 31
0.0
  0
LINE
  8
0
 10
951.4427871875967
 20
40.0722400109712
 30
0.0
 11
953.6814760986263
 21
41.06941846662568
 31
0.0
  0
LINE
  8
0
 10
953.6814760986263
 20
41.06941846662568
 30
0.0
 11
955.9201650096559
 21
42.023548918649226
 31
0.0
  0
LINE
  8
0
 10
955.9201650096559
 20
42.023548918649226
 30
0.0
 11
958.1588539206855
 21
42.934927849536905
 31
0.0
  0
LINE
  8
0
 10
958.1588539206855
 20
42.934927849536905
 30
0.0
 11
960.3975428317152
 21
43.803838457355454
 31
0.0
  0
LINE
  8
0
 10
960.3975428317152
 20
43.803838457355454
 30
0.0
 11
962.6362317427448
 21
44.630550743742845
 31
0.0
  0
LINE
  8
0
 10
962.6362317427448
 20
44.630550743742845
 30
0.0
 11
964.8749206537744
 21
45.41532159780775
 31
0.0
  0
LINE
  8
0
 10
964.8749206537744
 20
45.41532159780775
 30
0.0
 11
967.113609564804
 21
46.15839487595409
 31
0.0
  0
LINE
  8
0
 10
967.113609564804
 20
46.15839487595409
 30
0.0
 11
969.3522984758338
 21
46.86000147765586
 31
0.0
  0
LINE
  8
0
 10
969.3522984758338
 20
46.86000147765586
 30
0.0
 11
971.5909873868634
 21
47.52035941720595
 31
0.0
  0
LINE
  8
0
 10
971.5909873868634
 20
47.52035941720595
 30
0.0
 11
973.829676297893
 21
48.139673891461
 31
0.0
  0
LINE
  8
0
 10
973.829676297893
 20
48.139673891461
 30
0.0
 11
976.0683652089226
 21
48.7181373436033
 31
0.0
  0
LINE
  8
0
 10
976.0683652089226
 20
48.7181373436033
 30
0.0
 11
978.3070541199523
 21
49.255929522939994
 31
0.0
  0
LINE
  8
0
 10
978.3070541199523
 20
49.255929522939994
 30
0.0
 11
980.545743030982
 21
49.75321754075728
 31
0.0
  0
LINE
  8
0
 10
980.545743030982
 20
49.75321754075728
 30
0.0
 11
982.7844319420116
 21
50.21015592224825
 31
0.0
  0
LINE
  8
0
 10
982.7844319420116
 20
50.21015592224825
 30
0.0
 11
985.0231208530412
 21
50.62688665452916
 31
0.0
  0
LINE
  8
0
 10
985.0231208530412
 20
50.62688665452916
 30
0.0
 11
987.2618097640709
 21
51.003539230760026
 31
0.0
  0
LINE
  8
0
 10
987.2618097640709
 20
51.003539230760026
 30
0.0
 11
989.5004986751005
 21
51.3402306903827
 31
0.0
  0
LINE
  8
0
 10
989.5004986751005
 20
51.3402306903827
 30
0.0
 11
991.7391875861301
 21
51.63706565548928
 31
0.0
  0
LINE
  8
0
 10
991.7391875861301
 20
51.63706565548928
 30
0.0
 11
993.9778764971597
 21
51.89413636333188
 31
0.0
  0
LINE
  8
0
 10
993.9778764971597
 20
51.89413636333188
 30
0.0
 11
996.2165654081895
 21
52.111522694984174
 31
0.0
  0
LINE
  8
0
 10
996.2165654081895
 20
52.111522694984174
 30
0.0
 11
998.4552543192191
 21
52.28929220016305
 31
0.0
  0
LINE
  8
0
 10
998.4552543192191
 20
52.28929220016305
 30
0.0
 11
1000.6939432302487
 21
52.42750011821903
 31
0.0
  0
LINE
  8
0
 10
1000.6939432302487
 20
52.42750011821903
 30
0.0
 11
1002.9326321412783
 21
52.52618939530092
 31
0.0
  0
LINE
  8
0
 10
1002.9326321412783
 20
52.52618939530092
 30
0.0
 11
1005.1713210523079
 21
52.5853906977008
 31
0.0
  0
LINE
  8
0
 10
1005.1713210523079
 20
52.5853906977008
 30
0.0
 11
1007.4100099633376
 21
52.60512242138307
 31
0.0
  0
LINE
  8
0
 10
1007.4100099633376
 20
52.60512242138307
 30
0.0
 11
1009.6486988743673
 21
52.5853906977008
 31
0.0
  0
LINE
  8
0
 10
1009.6486988743673
 20
52.5853906977008
 30
0.0
 11
1011.8873877853969
 21
52.526189395300946
 31
0.0
  0
LINE
  8
0
 10
1011.8873877853969
 20
52.526189395300946
 30
0.0
 11
1014.1260766964265
 21
52.42750011821903
 31
0.0
  0
LINE
  8
0
 10
1014.1260766964265
 20
52.42750011821903
 30
0.0
 11
1016.3647656074562
 21
52.28929220016305
 31
0.0
  0
LINE
  8
0
 10
1016.3647656074562
 20
52.28929220016305
 30
0.0
 11
1018.6034545184858
 21
52.111522694984174
 31
0.0
  0
LINE
  8
0
 10
1018.6034545184858
 20
52.111522694984174
 30
0.0
 11
1020.8421434295154
 21
51.89413636333191
 31
0.0
  0
LINE
  8
0
 10
1020.8421434295154
 20
51.89413636333191
 30
0.0
 11
1023.080832340545
 21
51.63706565548928
 31
0.0
  0
LINE
  8
0
 10
1023.080832340545
 20
51.63706565548928
 30
0.0
 11
1025.3195212515748
 21
51.340230690382725
 31
0.0
  0
LINE
  8
0
 10
1025.3195212515748
 20
51.340230690382725
 30
0.0
 11
1027.5582101626044
 21
51.003539230760055
 31
0.0
  0
LINE
  8
0
 10
1027.5582101626044
 20
51.003539230760055
 30
0.0
 11
1029.796899073634
 21
50.62688665452919
 31
0.0
  0
LINE
  8
0
 10
1029.796899073634
 20
50.62688665452919
 30
0.0
 11
1032.0355879846636
 21
50.210155922248276
 31
0.0
  0
LINE
  8
0
 10
1032.0355879846636
 20
50.210155922248276
 30
0.0
 11
1034.2742768956932
 21
49.753217540757305
 31
0.0
  0
LINE
  8
0
 10
1034.2742768956932
 20
49.753217540757305
 30
0.0
 11
1036.5129658067228
 21
49.25592952294002
 31
0.0
  0
LINE
  8
0
 10
1036.5129658067228
 20
49.25592952294002
 30
0.0
 11
1038.7516547177524
 21
48.71813734360339
 31
0.0
  0
LINE
  8
0
 10
1038.7516547177524
 20
48.71813734360339
 30
0.0
 11
1040.990343628782
 21
48.139673891461115
 31
0.0
  0
LINE
  8
0
 10
1040.990343628782
 20
48.139673891461115
 30
0.0
 11
1043.229032539812
 21
47.52035941720601
 31
0.0
  0
LINE
  8
0
 10
1043.229032539812
 20
47.52035941720601
 30
0.0
 11
1045.4677214508415
 21
46.86000147765591
 31
0.0
  0
LINE
  8
0
 10
1045.4677214508415
 20
46.86000147765591
 30
0.0
 11
1047.7064103618711
 21
46.158394875954144
 31
0.0
  0
LINE
  8
0
 10
1047.7064103618711
 20
46.158394875954144
 30
0.0
 11
1049.9450992729007
 21
45.415321597807804
 31
0.0
  0
LINE
  8
0
 10
1049.9450992729007
 20
45.415321597807804
 30
0.0
 11
1052.1837881839303
 21
44.6305507437429
 31
0.0
  0
LINE
  8
0
 10
1052.1837881839303
 20
44.6305507437429
 30
0.0
 11
1054.42247709496
 21
43.80383845735551
 31
0.0
  0
LINE
  8
0
 10
1054.42247709496
 20
43.80383845735551
 30
0.0
 11
1056.6611660059896
 21
42.93492784953705
 31
0.0
  0
LINE
  8
0
 10
1056.6611660059896
 20
42.93492784953705
 30
0.0
 11
1058.8998549170192
 21
42.02354891864937
 31
0.0
  0
LINE
  8
0
 10
1058.8998549170192
 20
42.02354891864937
 30
0.0
 11
1061.138543828049
 21
41.069418466625734
 31
0.0
  0
LINE
  8
0
 10
1061.138543828049
 20
41.069418466625734
 30
0.0
 11
1063.3772327390786
 21
40.07224001097126
 31
0.0
  0
LINE
  8
0
 10
1063.3772327390786
 20
40.07224001097126
 30
0.0
 11
1065.6159216501082
 21
39.031703692634665
 31
0.0
  0
LINE
  8
0
 10
1065.6159216501082
 20
39.031703692634665
 30
0.0
 11
1067.8546105611379
 21
37.94748617972442
 31
0.0
  0
LINE
  8
0
 10
1067.8546105611379
 20
37.94748617972442
 30
0.0
 11
1070.0932994721675
 21
36.81925056703773
 31
0.0
  0
LINE
  8
0
 10
1070.0932994721675
 20
36.81925056703773
 30
0.0
 11
1072.331988383197
 21
35.646646271372134
 31
0.0
  0
LINE
  8
0
 10
1072.331988383197
 20
35.646646271372134
 30
0.0
 11
1074.5706772942267
 21
34.429308922586614
 31
0.0
  0
LINE
  8
0
 10
1074.5706772942267
 20
34.429308922586614
 30
0.0
 11
1076.8093662052563
 21
33.16686025037899
 31
0.0
  0
LINE
  8
0
 10
1076.8093662052563
 20
33.16686025037899
 30
0.0
 11
1079.0480551162862
 21
31.85890796674329
 31
0.0
  0
LINE
  8
0
 10
1079.0480551162862
 20
31.85890796674329
 30
0.0
 11
1081.2867440273158
 21
30.505045644072766
 31
0.0
  0
LINE
  8
0
 10
1081.2867440273158
 20
30.505045644072766
 30
0.0
 11
1083.5254329383454
 21
29.10485258886723
 31
0.0
  0
LINE
  8
0
 10
1083.5254329383454
 20
29.10485258886723
 30
0.0
 11
1085.764121849375
 21
27.657893711009024
 31
0.0
  0
LINE
  8
0
 10
1085.764121849375
 20
27.657893711009024
 30
0.0
 11
1088.0028107604046
 21
26.163719388565056
 31
0.0
  0
LINE
  8
0
 10
1088.0028107604046
 20
26.163719388565056
 30
0.0
 11
1090.2414996714342
 21
24.621865328072772
 31
0.0
  0
LINE
  8
0
 10
1090.2414996714342
 20
24.621865328072772
 30
0.0
 11
1092.4801885824638
 21
23.031852420268024
 31
0.0
  0
LINE
  8
0
 10
1092.4801885824638
 20
23.031852420268024
 30
0.0
 11
1094.7188774934934
 21
21.39318659120829
 31
0.0
  0
LINE
  8
0
 10
1094.7188774934934
 20
21.39318659120829
 30
0.0
 11
1096.9575664045233
 21
19.7053586487462
 31
0.0
  0
LINE
  8
0
 10
1096.9575664045233
 20
19.7053586487462
 30
0.0
 11
1099.196255315553
 21
17.96784412430597
 31
0.0
  0
LINE
  8
0
 10
1099.196255315553
 20
17.96784412430597
 30
0.0
 11
1101.4349442265825
 21
16.180103109911215
 31
0.0
  0
LINE
  8
0
 10
1101.4349442265825
 20
16.180103109911215
 30
0.0
 11
1103.6736331376121
 21
14.341580090416926
 31
0.0
  0
LINE
  8
0
 10
1103.6736331376121
 20
14.341580090416926
 30
0.0
 11
1105.9123220486417
 21
12.451703770890646
 31
0.0
  0
LINE
  8
0
 10
1105.9123220486417
 20
12.451703770890646
 30
0.0
 11
1108.1510109596713
 21
10.509886899091072
 31
0.0
  0
LINE
  8
0
 10
1108.1510109596713
 20
10.509886899091072
 30
0.0
 11
1110.389699870701
 21
8.515526082987265
 31
0.0
  0
LINE
  8
0
 10
1110.389699870701
 20
8.515526082987265
 30
0.0
 11
1112.6283887817306
 21
6.4680016032636445
 31
0.0
  0
LINE
  8
0
 10
1112.6283887817306
 20
6.4680016032636445
 30
0.0
 11
1114.8670776927604
 21
4.3666772207503755
 31
0.0
  0
LINE
  8
0
 10
1114.8670776927604
 20
4.3666772207503755
 30
0.0
 11
1117.10576660379
 21
2.2108999787222388
 31
0.0
  0
ENDSEC
  0
EOF
