  0
SECTION
  2
HEADER
  9
$ACADVER
  1
AC1009
  9
$INSBASE
 10
0.0
 20
0.0
 30
0.0
  9
$EXTMIN
 10
0.0
 20
0.0
 30
0.0
  9
$EXTMAX
 10
100.0
 20
100.0
 30
0.0
  9
$UNITMODE
 70
0
  9
$AUNITS
 70
0
  9
$ANGBASE
 50
0.0
  9
$ANGDIR
 70
0
  0
ENDSEC
  0
SECTION
  2
TABLES
  0
TABLE
  2
LTYPE
 70
19
  0
LTYPE
  2
CONTINUOUS
 70
0
  3
Solid
 72
65
 73
0
 40
0.0
  0
LTYPE
  2
CENTER
 70
0
  3
Center ____ _ ____ _ ____ _ ____ _ ____ _ ____
 72
65
 73
4
 40
2.0
 49
1.25
 49
-0.25
 49
0.25
 49
-0.25
  0
LTYPE
  2
CENTERX2
 70
0
  3
Center (2x) ________  __  ________  __  ________
 72
65
 73
4
 40
3.5
 49
2.5
 49
-0.25
 49
0.5
 49
-0.25
  0
LTYPE
  2
CENTER2
 70
0
  3
Center (.5x) ____ _ ____ _ ____ _ ____ _ ____
 72
65
 73
4
 40
1.0
 49
0.625
 49
-0.125
 49
0.125
 49
-0.125
  0
LTYPE
  2
DASHED
 70
0
  3
Dashed __ __ __ __ __ __ __ __ __ __ __ __ __ _
 72
65
 73
2
 40
0.6
 49
0.5
 49
-0.1
  0
LTYPE
  2
DASHEDX2
 70
0
  3
Dashed (2x) ____  ____  ____  ____  ____  ____
 72
65
 73
2
 40
1.2
 49
1.0
 49
-0.2
  0
LTYPE
  2
DASHED2
 70
0
  3
Dashed (.5x) _ _ _ _ _ _ _ _ _ _ _ _ _ _
 72
65
 73
2
 40
0.3
 49
0.25
 49
-0.05
  0
LTYPE
  2
PHANTOM
 70
0
  3
Phantom ______  __  __  ______  __  __  ______
 72
65
 73
6
 40
2.5
 49
1.25
 49
-0.25
 49
0.25
 49
-0.25
 49
0.25
 49
-0.25
  0
LTYPE
  2
PHANTOMX2
 70
0
  3
Phantom (2x)____________    ____    ____    ____________
 72
65
 73
6
 40
4.25
 49
2.5
 49
-0.25
 49
0.5
 49
-0.25
 49
0.5
 49
-0.25
  0
LTYPE
  2
PHANTOM2
 70
0
  3
Phantom (.5x) ___ _ _ ___ _ _ ___ _ _ ___ _ _ ___
 72
65
 73
6
 40
1.25
 49
0.625
 49
-0.125
 49
0.125
 49
-0.125
 49
0.125
 49
-0.125
  0
LTYPE
  2
DASHDOT
 70
0
  3
Dash dot __ . __ . __ . __ . __ . __ . __ . __
 72
65
 73
4
 40
1.4
 49
1.0
 49
-0.2
 49
0.0
 49
-0.2
  0
LTYPE
  2
DASHDOTX2
 70
0
  3
Dash dot (2x) ____  .  ____  .  ____  .  ____
 72
65
 73
4
 40
2.4
 49
2.0
 49
-0.2
 49
0.0
 49
-0.2
  0
LTYPE
  2
DASHDOT2
 70
0
  3
Dash dot (.5x) _ . _ . _ . _ . _ . _ . _ . _
 72
65
 73
4
 40
0.7
 49
0.5
 49
-0.1
 49
0.0
 49
-0.1
  0
LTYPE
  2
DOT
 70
0
  3
Dot .  .  .  .  .  .  .  .  .  .  .  .  .  .  .  .
 72
65
 73
2
 40
0.2
 49
0.0
 49
-0.2
  0
LTYPE
  2
DOTX2
 70
0
  3
Dot (2x) .    .    .    .    .    .    .    . 
 72
65
 73
2
 40
0.4
 49
0.0
 49
-0.4
  0
LTYPE
  2
DOT2
 70
0
  3
Dot (.5) . . . . . . . . . . . . . . . . . . . 
 72
65
 73
2
 40
0.1
 49
0.0
 49
-0.1
  0
LTYPE
  2
DIVIDE
 70
0
  3
Divide __ . . __ . . __ . . __ . . __ . . __
 72
65
 73
6
 40
1.6
 49
1.0
 49
-0.2
 49
0.0
 49
-0.2
 49
0.0
 49
-0.2
  0
LTYPE
  2
DIVIDEX2
 70
0
  3
Divide (2x) ____  . .  ____  . .  ____  . .  ____
 72
65
 73
6
 40
2.6
 49
2.0
 49
-0.2
 49
0.0
 49
-0.2
 49
0.0
 49
-0.2
  0
LTYPE
  2
DIVIDE2
 70
0
  3
Divide(.5x) _ . _ . _ . _ . _ . _ . _ . _
 72
65
 73
6
 40
0.8
 49
0.5
 49
-0.1
 49
0.0
 49
-0.1
 49
0.0
 49
-0.1
  0
ENDTAB
  0
TABLE
  2
LAYER
 70
5
  0
LAYER
  2
DIMENSIONS
 70
0
 62
1
  6
CONTINUOUS
  0
LAYER
  2
TABLEBACKGROUND
 70
0
 62
1
  6
CONTINUOUS
  0
LAYER
  2
TABLECONTENT
 70
0
 62
1
  6
CONTINUOUS
  0
LAYER
  2
TABLEGRID
 70
0
 62
1
  6
CONTINUOUS
  0
LAYER
  2
VIEWPORTS
 70
0
 62
7
  6
CONTINUOUS
  0
ENDTAB
  0
TABLE
  2
STYLE
 70
12
  0
STYLE
  2
STANDARD
 70
0
 40
0.0
 41
1.0
 42
1.0
 50
0.0
 71
0
  3
arial.ttf
  4

  0
STYLE
  2
ARIAL
 70
0
 40
0.0
 41
1.0
 42
1.0
 50
0.0
 71
0
  3
arial.ttf
  4

  0
STYLE
  2
ARIAL_BOLD
 70
0
 40
0.0
 41
1.0
 42
1.0
 50
0.0
 71
0
  3
arialbd.ttf
  4

  0
STYLE
  2
ARIAL_ITALIC
 70
0
 40
0.0
 41
1.0
 42
1.0
 50
0.0
 71
0
  3
ariali.ttf
  4

  0
STYLE
  2
ARIAL_BOLD_ITALIC
 70
0
 40
0.0
 41
1.0
 42
1.0
 50
0.0
 71
0
  3
arialbi.ttf
  4

  0
STYLE
  2
ARIAL_BLACK
 70
0
 40
0.0
 41
1.0
 42
1.0
 50
0.0
 71
0
  3
ariblk.ttf
  4

  0
STYLE
  2
ISOCPEUR
 70
0
 40
0.0
 41
1.0
 42
1.0
 50
0.0
 71
0
  3
isocpeur.ttf
  4

  0
STYLE
  2
ISOCPEUR_ITALIC
 70
0
 40
0.0
 41
1.0
 42
1.0
 50
0.0
 71
0
  3
isocpeui.ttf
  4

  0
STYLE
  2
TIMES
 70
0
 40
0.0
 41
1.0
 42
1.0
 50
0.0
 71
0
  3
times.ttf
  4

  0
STYLE
  2
TIMES_BOLD
 70
0
 40
0.0
 41
1.0
 42
1.0
 50
0.0
 71
0
  3
timesbd.ttf
  4

  0
STYLE
  2
TIMES_ITALIC
 70
0
 40
0.0
 41
1.0
 42
1.0
 50
0.0
 71
0
  3
timesi.ttf
  4

  0
STYLE
  2
TIMES_BOLD_ITALIC
 70
0
 40
0.0
 41
1.0
 42
1.0
 50
0.0
 71
0
  3
timesbi.ttf
  4

  0
ENDTAB
  0
TABLE
  2
VIEW
 70
0
  0
ENDTAB
  0
TABLE
  2
APPID
 70
1
  0
APPID
  2
DXFWRITE
 70
0
  0
ENDTAB
  0
TABLE
  2
VPORT
 70
0
  0
ENDTAB
  0
TABLE
  2
UCS
 70
0
  0
ENDTAB
  0
ENDSEC
  0
SECTION
  2
BLOCKS
  0
ENDSEC
  0
SECTION
  2
ENTITIES
  0
VIEWPORT
  8
VIEWPORTS
 67
1
 10
0.0
 20
0.0
 30
0.0
 40
1.0
 41
1.0
 68
1
 69
1
1001
ACAD
1000
MVIEW
1002
{
1070
16
1010
0.0
1020
0.0
1030
0.0
1010
0.0
1020
0.0
1030
0.0
1040
0.0
1040
1.0
1040
0.0
1040
0.0
1040
50.0
1040
0.0
1040
0.0
1070
0
1070
100
1070
1
1070
3
1070
0
1070
0
1070
0
1070
0
1040
0.0
1040
0.0
1040
0.0
1040
0.1
1040
0.1
1040
0.1
1040
0.1
1070
0
1002
{
1002
}
1002
}
  0
LINE
  8
0
 10
0.0
 20
8.881784197001252e-16
 30
0.0
 11
0.0881373587019543
 21
0.08704330624890488
 31
0.0
  0
LINE
  8
0
 10
0.0881373587019543
 20
0.08704330624890488
 30
0.0
 11
0.1762747174039086
 21
0.17191642601379442
 31
0.0
  0
LINE
  8
0
 10
0.1762747174039086
 20
0.17191642601379442
 30
0.0
 11
0.26441207610586287
 21
0.2546457324119462
 31
0.0
  0
LINE
  8
0
 10
0.26441207610586287
 20
0.2546457324119462
 30
0.0
 11
0.3525494348078172
 21
0.3352569324010677
 31
0.0
  0
LINE
  8
0
 10
0.3525494348078172
 20
0.3352569324010677
 30
0.0
 11
0.44068679350977147
 21
0.41377507476735786
 31
0.0
  0
LINE
  8
0
 10
0.44068679350977147
 20
0.41377507476735786
 30
0.0
 11
0.5288241522117257
 21
0.4902245579090767
 31
0.0
  0
LINE
  8
0
 10
0.5288241522117257
 20
0.4902245579090767
 30
0.0
 11
0.6169615109136801
 21
0.5646291374179864
 31
0.0
  0
LINE
  8
0
 10
0.6169615109136801
 20
0.5646291374179864
 30
0.0
 11
0.7050988696156344
 21
0.6370119334610695
 31
0.0
  0
LINE
  8
0
 10
0.7050988696156344
 20
0.6370119334610695
 30
0.0
 11
0.7932362283175887
 21
0.7073954379648013
 31
0.0
  0
LINE
  8
0
 10
0.7932362283175887
 20
0.7073954379648013
 30
0.0
 11
0.8813735870195429
 21
0.7758015216041816
 31
0.0
  0
LINE
  8
0
 10
0.8813735870195429
 20
0.7758015216041816
 30
0.0
 11
0.9695109457214973
 21
0.842251440598746
 31
0.0
  0
LINE
  8
0
 10
0.9695109457214973
 20
0.842251440598746
 30
0.0
 11
1.0576483044234515
 21
0.9067658433176327
 31
0.0
  0
LINE
  8
0
 10
1.0576483044234515
 20
0.9067658433176327
 30
0.0
 11
1.145785663125406
 21
0.9693647766957749
 31
0.0
  0
LINE
  8
0
 10
1.145785663125406
 20
0.9693647766957749
 30
0.0
 11
1.2339230218273602
 21
1.0300676924631862
 31
0.0
  0
LINE
  8
0
 10
1.2339230218273602
 20
1.0300676924631862
 30
0.0
 11
1.3220603805293143
 21
1.0888934531893302
 31
0.0
  0
LINE
  8
0
 10
1.3220603805293143
 20
1.0888934531893302
 30
0.0
 11
1.4101977392312688
 21
1.1458603381443773
 31
0.0
  0
LINE
  8
0
 10
1.4101977392312688
 20
1.1458603381443773
 30
0.0
 11
1.4983350979332233
 21
1.2009860489792423
 31
0.0
  0
LINE
  8
0
 10
1.4983350979332233
 20
1.2009860489792423
 30
0.0
 11
1.5864724566351773
 21
1.2542877152261127
 31
0.0
  0
LINE
  8
0
 10
1.5864724566351773
 20
1.2542877152261127
 30
0.0
 11
1.6746098153371316
 21
1.3057818996212145
 31
0.0
  0
LINE
  8
0
 10
1.6746098153371316
 20
1.3057818996212145
 30
0.0
 11
1.7627471740390859
 21
1.3554846032514378
 31
0.0
  0
LINE
  8
0
 10
1.7627471740390859
 20
1.3554846032514378
 30
0.0
 11
1.8508845327410404
 21
1.4034112705264574
 31
0.0
  0
LINE
  8
0
 10
1.8508845327410404
 20
1.4034112705264574
 30
0.0
 11
1.9390218914429946
 21
1.4495767939778599
 31
0.0
  0
LINE
  8
0
 10
1.9390218914429946
 20
1.4495767939778599
 30
0.0
 11
2.027159250144949
 21
1.493995518886786
 31
0.0
  0
LINE
  8
0
 10
2.027159250144949
 20
1.493995518886786
 30
0.0
 11
2.115296608846903
 21
1.5366812477415204
 31
0.0
  0
LINE
  8
0
 10
2.115296608846903
 20
1.5366812477415204
 30
0.0
 11
2.2034339675488575
 21
1.5776472445264256
 31
0.0
  0
LINE
  8
0
 10
2.2034339675488575
 20
1.5776472445264256
 30
0.0
 11
2.291571326250812
 21
1.6169062388435318
 31
0.0
  0
LINE
  8
0
 10
2.291571326250812
 20
1.6169062388435318
 30
0.0
 11
2.379708684952766
 21
1.6544704298680806
 31
0.0
  0
LINE
  8
0
 10
2.379708684952766
 20
1.6544704298680806
 30
0.0
 11
2.4678460436547205
 21
1.6903514901392516
 31
0.0
  0
LINE
  8
0
 10
2.4678460436547205
 20
1.6903514901392516
 30
0.0
 11
2.555983402356675
 21
1.724560569187223
 31
0.0
  0
LINE
  8
0
 10
2.555983402356675
 20
1.724560569187223
 30
0.0
 11
2.6441207610586286
 21
1.7571082969977496
 31
0.0
  0
LINE
  8
0
 10
2.6441207610586286
 20
1.7571082969977496
 30
0.0
 11
2.732258119760583
 21
1.7880047873152662
 31
0.0
  0
LINE
  8
0
 10
2.732258119760583
 20
1.7880047873152662
 30
0.0
 11
2.8203954784625376
 21
1.8172596407855943
 31
0.0
  0
LINE
  8
0
 10
2.8203954784625376
 20
1.8172596407855943
 30
0.0
 11
2.908532837164492
 21
1.844881947939209
 31
0.0
  0
LINE
  8
0
 10
2.908532837164492
 20
1.844881947939209
 30
0.0
 11
2.9966701958664466
 21
1.8708802920159835
 31
0.0
  0
LINE
  8
0
 10
2.9966701958664466
 20
1.8708802920159835
 30
0.0
 11
3.0848075545684
 21
1.8952627516323233
 31
0.0
  0
LINE
  8
0
 10
3.0848075545684
 20
1.8952627516323233
 30
0.0
 11
3.1729449132703547
 21
1.91803690329147
 31
0.0
  0
LINE
  8
0
 10
3.1729449132703547
 20
1.91803690329147
 30
0.0
 11
3.261082271972309
 21
1.9392098237377953
 31
0.0
  0
LINE
  8
0
 10
3.261082271972309
 20
1.9392098237377953
 30
0.0
 11
3.349219630674263
 21
1.9587880921557979
 31
0.0
  0
LINE
  8
0
 10
3.349219630674263
 20
1.9587880921557979
 30
0.0
 11
3.4373569893762177
 21
1.9767777922144978
 31
0.0
  0
LINE
  8
0
 10
3.4373569893762177
 20
1.9767777922144978
 30
0.0
 11
3.5254943480781717
 21
1.993184513957841
 31
0.0
  0
LINE
  8
0
 10
3.5254943480781717
 20
1.993184513957841
 30
0.0
 11
3.6136317067801262
 21
2.008013355541733
 31
0.0
  0
LINE
  8
0
 10
3.6136317067801262
 20
2.008013355541733
 30
0.0
 11
3.7017690654820807
 21
2.0212689248182167
 31
0.0
  0
LINE
  8
0
 10
3.7017690654820807
 20
2.0212689248182167
 30
0.0
 11
3.789906424184035
 21
2.0329553407672947
 31
0.0
  0
LINE
  8
0
 10
3.789906424184035
 20
2.0329553407672947
 30
0.0
 11
3.8780437828859893
 21
2.043076234776847
 31
0.0
  0
LINE
  8
0
 10
3.8780437828859893
 20
2.043076234776847
 30
0.0
 11
3.9661811415879438
 21
2.051634751771031
 31
0.0
  0
LINE
  8
0
 10
3.9661811415879438
 20
2.051634751771031
 30
0.0
 11
4.054318500289898
 21
2.058633551187522
 31
0.0
  0
LINE
  8
0
 10
4.054318500289898
 20
2.058633551187522
 30
0.0
 11
4.142455858991852
 21
2.064074807803899
 31
0.0
  0
LINE
  8
0
 10
4.142455858991852
 20
2.064074807803899
 30
0.0
 11
4.230593217693806
 21
2.067960212413422
 31
0.0
  0
LINE
  8
0
 10
4.230593217693806
 20
2.067960212413422
 30
0.0
 11
4.318730576395761
 21
2.070290972350426
 31
0.0
  0
LINE
  8
0
 10
4.318730576395761
 20
2.070290972350426
 30
0.0
 11
4.406867935097715
 21
2.0710678118654755
 31
0.0
  0
LINE
  8
0
 10
4.406867935097715
 20
2.0710678118654755
 30
0.0
 11
4.495005293799669
 21
2.070290972350426
 31
0.0
  0
LINE
  8
0
 10
4.495005293799669
 20
2.070290972350426
 30
0.0
 11
4.583142652501624
 21
2.067960212413422
 31
0.0
  0
LINE
  8
0
 10
4.583142652501624
 20
2.067960212413422
 30
0.0
 11
4.671280011203578
 21
2.064074807803899
 31
0.0
  0
LINE
  8
0
 10
4.671280011203578
 20
2.064074807803899
 30
0.0
 11
4.759417369905532
 21
2.058633551187522
 31
0.0
  0
LINE
  8
0
 10
4.759417369905532
 20
2.058633551187522
 30
0.0
 11
4.847554728607486
 21
2.051634751771031
 31
0.0
  0
LINE
  8
0
 10
4.847554728607486
 20
2.051634751771031
 30
0.0
 11
4.935692087309441
 21
2.043076234776847
 31
0.0
  0
LINE
  8
0
 10
4.935692087309441
 20
2.043076234776847
 30
0.0
 11
5.023829446011395
 21
2.0329553407672947
 31
0.0
  0
LINE
  8
0
 10
5.023829446011395
 20
2.0329553407672947
 30
0.0
 11
5.11196680471335
 21
2.0212689248182167
 31
0.0
  0
LINE
  8
0
 10
5.11196680471335
 20
2.0212689248182167
 30
0.0
 11
5.200104163415303
 21
2.008013355541733
 31
0.0
  0
LINE
  8
0
 10
5.200104163415303
 20
2.008013355541733
 30
0.0
 11
5.288241522117257
 21
1.993184513957841
 31
0.0
  0
LINE
  8
0
 10
5.288241522117257
 20
1.993184513957841
 30
0.0
 11
5.376378880819212
 21
1.9767777922144978
 31
0.0
  0
LINE
  8
0
 10
5.376378880819212
 20
1.9767777922144978
 30
0.0
 11
5.464516239521166
 21
1.9587880921557987
 31
0.0
  0
LINE
  8
0
 10
5.464516239521166
 20
1.9587880921557987
 30
0.0
 11
5.552653598223121
 21
1.9392098237377953
 31
0.0
  0
LINE
  8
0
 10
5.552653598223121
 20
1.9392098237377953
 30
0.0
 11
5.640790956925075
 21
1.91803690329147
 31
0.0
  0
LINE
  8
0
 10
5.640790956925075
 20
1.91803690329147
 30
0.0
 11
5.728928315627029
 21
1.8952627516323233
 31
0.0
  0
LINE
  8
0
 10
5.728928315627029
 20
1.8952627516323233
 30
0.0
 11
5.817065674328984
 21
1.8708802920159835
 31
0.0
  0
LINE
  8
0
 10
5.817065674328984
 20
1.8708802920159835
 30
0.0
 11
5.905203033030938
 21
1.844881947939209
 31
0.0
  0
LINE
  8
0
 10
5.905203033030938
 20
1.844881947939209
 30
0.0
 11
5.993340391732893
 21
1.8172596407855943
 31
0.0
  0
LINE
  8
0
 10
5.993340391732893
 20
1.8172596407855943
 30
0.0
 11
6.081477750434846
 21
1.7880047873152662
 31
0.0
  0
LINE
  8
0
 10
6.081477750434846
 20
1.7880047873152662
 30
0.0
 11
6.1696151091368
 21
1.7571082969977496
 31
0.0
  0
LINE
  8
0
 10
6.1696151091368
 20
1.7571082969977496
 30
0.0
 11
6.257752467838755
 21
1.724560569187223
 31
0.0
  0
LINE
  8
0
 10
6.257752467838755
 20
1.724560569187223
 30
0.0
 11
6.345889826540709
 21
1.6903514901392516
 31
0.0
  0
LINE
  8
0
 10
6.345889826540709
 20
1.6903514901392516
 30
0.0
 11
6.434027185242663
 21
1.6544704298680823
 31
0.0
  0
LINE
  8
0
 10
6.434027185242663
 20
1.6544704298680823
 30
0.0
 11
6.522164543944618
 21
1.6169062388435318
 31
0.0
  0
LINE
  8
0
 10
6.522164543944618
 20
1.6169062388435318
 30
0.0
 11
6.610301902646572
 21
1.5776472445264256
 31
0.0
  0
LINE
  8
0
 10
6.610301902646572
 20
1.5776472445264256
 30
0.0
 11
6.698439261348526
 21
1.5366812477415213
 31
0.0
  0
LINE
  8
0
 10
6.698439261348526
 20
1.5366812477415213
 30
0.0
 11
6.786576620050481
 21
1.493995518886786
 31
0.0
  0
LINE
  8
0
 10
6.786576620050481
 20
1.493995518886786
 30
0.0
 11
6.874713978752435
 21
1.4495767939778599
 31
0.0
  0
LINE
  8
0
 10
6.874713978752435
 20
1.4495767939778599
 30
0.0
 11
6.96285133745439
 21
1.4034112705264574
 31
0.0
  0
LINE
  8
0
 10
6.96285133745439
 20
1.4034112705264574
 30
0.0
 11
7.0509886961563435
 21
1.3554846032514378
 31
0.0
  0
LINE
  8
0
 10
7.0509886961563435
 20
1.3554846032514378
 30
0.0
 11
7.1391260548582975
 21
1.3057818996212145
 31
0.0
  0
LINE
  8
0
 10
7.1391260548582975
 20
1.3057818996212145
 30
0.0
 11
7.2272634135602525
 21
1.2542877152261127
 31
0.0
  0
LINE
  8
0
 10
7.2272634135602525
 20
1.2542877152261127
 30
0.0
 11
7.3154007722622065
 21
1.2009860489792423
 31
0.0
  0
LINE
  8
0
 10
7.3154007722622065
 20
1.2009860489792423
 30
0.0
 11
7.4035381309641615
 21
1.1458603381443764
 31
0.0
  0
LINE
  8
0
 10
7.4035381309641615
 20
1.1458603381443764
 30
0.0
 11
7.4916754896661155
 21
1.0888934531893302
 31
0.0
  0
LINE
  8
0
 10
7.4916754896661155
 20
1.0888934531893302
 30
0.0
 11
7.57981284836807
 21
1.0300676924631862
 31
0.0
  0
LINE
  8
0
 10
7.57981284836807
 20
1.0300676924631862
 30
0.0
 11
7.6679502070700245
 21
0.9693647766957731
 31
0.0
  0
LINE
  8
0
 10
7.6679502070700245
 20
0.9693647766957731
 30
0.0
 11
7.7560875657719786
 21
0.9067658433176327
 31
0.0
  0
LINE
  8
0
 10
7.7560875657719786
 20
0.9067658433176327
 30
0.0
 11
7.844224924473932
 21
0.842251440598746
 31
0.0
  0
LINE
  8
0
 10
7.844224924473932
 20
0.842251440598746
 30
0.0
 11
7.9323622831758875
 21
0.7758015216041816
 31
0.0
  0
LINE
  8
0
 10
7.9323622831758875
 20
0.7758015216041816
 30
0.0
 11
8.02049964187784
 21
0.7073954379648013
 31
0.0
  0
LINE
  8
0
 10
8.02049964187784
 20
0.7073954379648013
 30
0.0
 11
8.108637000579796
 21
0.6370119334610695
 31
0.0
  0
LINE
  8
0
 10
8.108637000579796
 20
0.6370119334610695
 30
0.0
 11
8.19677435928175
 21
0.5646291374179855
 31
0.0
  0
LINE
  8
0
 10
8.19677435928175
 20
0.5646291374179855
 30
0.0
 11
8.284911717983704
 21
0.4902245579090776
 31
0.0
  0
LINE
  8
0
 10
8.284911717983704
 20
0.4902245579090776
 30
0.0
 11
8.373049076685659
 21
0.41377507476735786
 31
0.0
  0
LINE
  8
0
 10
8.373049076685659
 20
0.41377507476735786
 30
0.0
 11
8.461186435387612
 21
0.3352569324010677
 31
0.0
  0
LINE
  8
0
 10
8.461186435387612
 20
0.3352569324010677
 30
0.0
 11
8.549323794089567
 21
0.2546457324119462
 31
0.0
  0
LINE
  8
0
 10
8.549323794089567
 20
0.2546457324119462
 30
0.0
 11
8.637461152791522
 21
0.17191642601379442
 31
0.0
  0
LINE
  8
0
 10
8.637461152791522
 20
0.17191642601379442
 30
0.0
 11
8.725598511493475
 21
0.08704330624890666
 31
0.0
  0
ENDSEC
  0
EOF
