  0
SECTION
  2
HEADER
  9
$ACADVER
  1
AC1009
  9
$INSBASE
 10
0.0
 20
0.0
 30
0.0
  9
$EXTMIN
 10
0.0
 20
0.0
 30
0.0
  9
$EXTMAX
 10
100.0
 20
100.0
 30
0.0
  9
$UNITMODE
 70
0
  9
$AUNITS
 70
0
  9
$ANGBASE
 50
0.0
  9
$ANGDIR
 70
0
  0
ENDSEC
  0
SECTION
  2
TABLES
  0
TABLE
  2
LTYPE
 70
19
  0
LTYPE
  2
CONTINUOUS
 70
0
  3
Solid
 72
65
 73
0
 40
0.0
  0
LTYPE
  2
CENTER
 70
0
  3
Center ____ _ ____ _ ____ _ ____ _ ____ _ ____
 72
65
 73
4
 40
2.0
 49
1.25
 49
-0.25
 49
0.25
 49
-0.25
  0
LTYPE
  2
CENTERX2
 70
0
  3
Center (2x) ________  __  ________  __  ________
 72
65
 73
4
 40
3.5
 49
2.5
 49
-0.25
 49
0.5
 49
-0.25
  0
LTYPE
  2
CENTER2
 70
0
  3
Center (.5x) ____ _ ____ _ ____ _ ____ _ ____
 72
65
 73
4
 40
1.0
 49
0.625
 49
-0.125
 49
0.125
 49
-0.125
  0
LTYPE
  2
DASHED
 70
0
  3
Dashed __ __ __ __ __ __ __ __ __ __ __ __ __ _
 72
65
 73
2
 40
0.6
 49
0.5
 49
-0.1
  0
LTYPE
  2
DASHEDX2
 70
0
  3
Dashed (2x) ____  ____  ____  ____  ____  ____
 72
65
 73
2
 40
1.2
 49
1.0
 49
-0.2
  0
LTYPE
  2
DASHED2
 70
0
  3
Dashed (.5x) _ _ _ _ _ _ _ _ _ _ _ _ _ _
 72
65
 73
2
 40
0.3
 49
0.25
 49
-0.05
  0
LTYPE
  2
PHANTOM
 70
0
  3
Phantom ______  __  __  ______  __  __  ______
 72
65
 73
6
 40
2.5
 49
1.25
 49
-0.25
 49
0.25
 49
-0.25
 49
0.25
 49
-0.25
  0
LTYPE
  2
PHANTOMX2
 70
0
  3
Phantom (2x)____________    ____    ____    ____________
 72
65
 73
6
 40
4.25
 49
2.5
 49
-0.25
 49
0.5
 49
-0.25
 49
0.5
 49
-0.25
  0
LTYPE
  2
PHANTOM2
 70
0
  3
Phantom (.5x) ___ _ _ ___ _ _ ___ _ _ ___ _ _ ___
 72
65
 73
6
 40
1.25
 49
0.625
 49
-0.125
 49
0.125
 49
-0.125
 49
0.125
 49
-0.125
  0
LTYPE
  2
DASHDOT
 70
0
  3
Dash dot __ . __ . __ . __ . __ . __ . __ . __
 72
65
 73
4
 40
1.4
 49
1.0
 49
-0.2
 49
0.0
 49
-0.2
  0
LTYPE
  2
DASHDOTX2
 70
0
  3
Dash dot (2x) ____  .  ____  .  ____  .  ____
 72
65
 73
4
 40
2.4
 49
2.0
 49
-0.2
 49
0.0
 49
-0.2
  0
LTYPE
  2
DASHDOT2
 70
0
  3
Dash dot (.5x) _ . _ . _ . _ . _ . _ . _ . _
 72
65
 73
4
 40
0.7
 49
0.5
 49
-0.1
 49
0.0
 49
-0.1
  0
LTYPE
  2
DOT
 70
0
  3
Dot .  .  .  .  .  .  .  .  .  .  .  .  .  .  .  .
 72
65
 73
2
 40
0.2
 49
0.0
 49
-0.2
  0
LTYPE
  2
DOTX2
 70
0
  3
Dot (2x) .    .    .    .    .    .    .    . 
 72
65
 73
2
 40
0.4
 49
0.0
 49
-0.4
  0
LTYPE
  2
DOT2
 70
0
  3
Dot (.5) . . . . . . . . . . . . . . . . . . . 
 72
65
 73
2
 40
0.1
 49
0.0
 49
-0.1
  0
LTYPE
  2
DIVIDE
 70
0
  3
Divide __ . . __ . . __ . . __ . . __ . . __
 72
65
 73
6
 40
1.6
 49
1.0
 49
-0.2
 49
0.0
 49
-0.2
 49
0.0
 49
-0.2
  0
LTYPE
  2
DIVIDEX2
 70
0
  3
Divide (2x) ____  . .  ____  . .  ____  . .  ____
 72
65
 73
6
 40
2.6
 49
2.0
 49
-0.2
 49
0.0
 49
-0.2
 49
0.0
 49
-0.2
  0
LTYPE
  2
DIVIDE2
 70
0
  3
Divide(.5x) _ . _ . _ . _ . _ . _ . _ . _
 72
65
 73
6
 40
0.8
 49
0.5
 49
-0.1
 49
0.0
 49
-0.1
 49
0.0
 49
-0.1
  0
ENDTAB
  0
TABLE
  2
LAYER
 70
5
  0
LAYER
  2
DIMENSIONS
 70
0
 62
1
  6
CONTINUOUS
  0
LAYER
  2
TABLEBACKGROUND
 70
0
 62
1
  6
CONTINUOUS
  0
LAYER
  2
TABLECONTENT
 70
0
 62
1
  6
CONTINUOUS
  0
LAYER
  2
TABLEGRID
 70
0
 62
1
  6
CONTINUOUS
  0
LAYER
  2
VIEWPORTS
 70
0
 62
7
  6
CONTINUOUS
  0
ENDTAB
  0
TABLE
  2
STYLE
 70
12
  0
STYLE
  2
STANDARD
 70
0
 40
0.0
 41
1.0
 42
1.0
 50
0.0
 71
0
  3
arial.ttf
  4

  0
STYLE
  2
ARIAL
 70
0
 40
0.0
 41
1.0
 42
1.0
 50
0.0
 71
0
  3
arial.ttf
  4

  0
STYLE
  2
ARIAL_BOLD
 70
0
 40
0.0
 41
1.0
 42
1.0
 50
0.0
 71
0
  3
arialbd.ttf
  4

  0
STYLE
  2
ARIAL_ITALIC
 70
0
 40
0.0
 41
1.0
 42
1.0
 50
0.0
 71
0
  3
ariali.ttf
  4

  0
STYLE
  2
ARIAL_BOLD_ITALIC
 70
0
 40
0.0
 41
1.0
 42
1.0
 50
0.0
 71
0
  3
arialbi.ttf
  4

  0
STYLE
  2
ARIAL_BLACK
 70
0
 40
0.0
 41
1.0
 42
1.0
 50
0.0
 71
0
  3
ariblk.ttf
  4

  0
STYLE
  2
ISOCPEUR
 70
0
 40
0.0
 41
1.0
 42
1.0
 50
0.0
 71
0
  3
isocpeur.ttf
  4

  0
STYLE
  2
ISOCPEUR_ITALIC
 70
0
 40
0.0
 41
1.0
 42
1.0
 50
0.0
 71
0
  3
isocpeui.ttf
  4

  0
STYLE
  2
TIMES
 70
0
 40
0.0
 41
1.0
 42
1.0
 50
0.0
 71
0
  3
times.ttf
  4

  0
STYLE
  2
TIMES_BOLD
 70
0
 40
0.0
 41
1.0
 42
1.0
 50
0.0
 71
0
  3
timesbd.ttf
  4

  0
STYLE
  2
TIMES_ITALIC
 70
0
 40
0.0
 41
1.0
 42
1.0
 50
0.0
 71
0
  3
timesi.ttf
  4

  0
STYLE
  2
TIMES_BOLD_ITALIC
 70
0
 40
0.0
 41
1.0
 42
1.0
 50
0.0
 71
0
  3
timesbi.ttf
  4

  0
ENDTAB
  0
TABLE
  2
VIEW
 70
0
  0
ENDTAB
  0
TABLE
  2
APPID
 70
1
  0
APPID
  2
DXFWRITE
 70
0
  0
ENDTAB
  0
TABLE
  2
VPORT
 70
0
  0
ENDTAB
  0
TABLE
  2
UCS
 70
0
  0
ENDTAB
  0
ENDSEC
  0
SECTION
  2
BLOCKS
  0
ENDSEC
  0
SECTION
  2
ENTITIES
  0
VIEWPORT
  8
VIEWPORTS
 67
1
 10
0.0
 20
0.0
 30
0.0
 40
1.0
 41
1.0
 68
1
 69
1
1001
ACAD
1000
MVIEW
1002
{
1070
16
1010
0.0
1020
0.0
1030
0.0
1010
0.0
1020
0.0
1030
0.0
1040
0.0
1040
1.0
1040
0.0
1040
0.0
1040
50.0
1040
0.0
1040
0.0
1070
0
1070
100
1070
1
1070
3
1070
0
1070
0
1070
0
1070
0
1040
0.0
1040
0.0
1040
0.0
1040
0.1
1040
0.1
1040
0.1
1040
0.1
1070
0
1002
{
1002
}
1002
}
  0
LINE
  8
0
 10
0.0
 20
2.842170943040401e-14
 30
0.0
 11
2.238688911029639
 21
2.210899978722182
 31
0.0
  0
LINE
  8
0
 10
2.238688911029639
 20
2.210899978722182
 30
0.0
 11
4.477377822059278
 21
4.3666772207503755
 31
0.0
  0
LINE
  8
0
 10
4.477377822059278
 20
4.3666772207503755
 30
0.0
 11
6.716066733088917
 21
6.4680016032634455
 31
0.0
  0
LINE
  8
0
 10
6.716066733088917
 20
6.4680016032634455
 30
0.0
 11
8.954755644118556
 21
8.515526082987122
 31
0.0
  0
LINE
  8
0
 10
8.954755644118556
 20
8.515526082987122
 30
0.0
 11
11.193444555148197
 21
10.50988689909093
 31
0.0
  0
LINE
  8
0
 10
11.193444555148197
 20
10.50988689909093
 30
0.0
 11
13.432133466177834
 21
12.451703770890532
 31
0.0
  0
LINE
  8
0
 10
13.432133466177834
 20
12.451703770890532
 30
0.0
 11
15.670822377207474
 21
14.34158009041684
 31
0.0
  0
LINE
  8
0
 10
15.670822377207474
 20
14.34158009041684
 30
0.0
 11
17.909511288237113
 21
16.18010310991116
 31
0.0
  0
LINE
  8
0
 10
17.909511288237113
 20
16.18010310991116
 30
0.0
 11
20.148200199266753
 21
17.96784412430594
 31
0.0
  0
LINE
  8
0
 10
20.148200199266753
 20
17.96784412430594
 30
0.0
 11
22.386889110296394
 21
19.7053586487462
 31
0.0
  0
LINE
  8
0
 10
22.386889110296394
 20
19.7053586487462
 30
0.0
 11
24.62557802132603
 21
21.39318659120812
 31
0.0
  0
LINE
  8
0
 10
24.62557802132603
 20
21.39318659120812
 30
0.0
 11
26.86426693235567
 21
23.031852420267853
 31
0.0
  0
LINE
  8
0
 10
26.86426693235567
 20
23.031852420267853
 30
0.0
 11
29.102955843385306
 21
24.62186532807266
 31
0.0
  0
LINE
  8
0
 10
29.102955843385306
 20
24.62186532807266
 30
0.0
 11
31.341644754414947
 21
26.163719388564942
 31
0.0
  0
LINE
  8
0
 10
31.341644754414947
 20
26.163719388564942
 30
0.0
 11
33.580333665444584
 21
27.657893711008967
 31
0.0
  0
LINE
  8
0
 10
33.580333665444584
 20
27.657893711008967
 30
0.0
 11
35.819022576474225
 21
29.104852588867175
 31
0.0
  0
LINE
  8
0
 10
35.819022576474225
 20
29.104852588867175
 30
0.0
 11
38.057711487503866
 21
30.505045644072737
 31
0.0
  0
LINE
  8
0
 10
38.057711487503866
 20
30.505045644072737
 30
0.0
 11
40.29640039853351
 21
31.85890796674326
 31
0.0
  0
LINE
  8
0
 10
40.29640039853351
 20
31.85890796674326
 30
0.0
 11
42.53508930956315
 21
33.166860250378846
 31
0.0
  0
LINE
  8
0
 10
42.53508930956315
 20
33.166860250378846
 30
0.0
 11
44.77377822059279
 21
34.4293089225865
 31
0.0
  0
LINE
  8
0
 10
44.77377822059279
 20
34.4293089225865
 30
0.0
 11
47.01246713162242
 21
35.64664627137202
 31
0.0
  0
LINE
  8
0
 10
47.01246713162242
 20
35.64664627137202
 30
0.0
 11
49.25115604265206
 21
36.81925056703767
 31
0.0
  0
LINE
  8
0
 10
49.25115604265206
 20
36.81925056703767
 30
0.0
 11
51.489844953681704
 21
37.947486179724365
 31
0.0
  0
LINE
  8
0
 10
51.489844953681704
 20
37.947486179724365
 30
0.0
 11
53.72853386471134
 21
39.03170369263461
 31
0.0
  0
LINE
  8
0
 10
53.72853386471134
 20
39.03170369263461
 30
0.0
 11
55.96722277574097
 21
40.0722400109712
 31
0.0
  0
LINE
  8
0
 10
55.96722277574097
 20
40.0722400109712
 30
0.0
 11
58.20591168677061
 21
41.069418466625706
 31
0.0
  0
LINE
  8
0
 10
58.20591168677061
 20
41.069418466625706
 30
0.0
 11
60.44460059780025
 21
42.023548918649254
 31
0.0
  0
LINE
  8
0
 10
60.44460059780025
 20
42.023548918649254
 30
0.0
 11
62.683289508829894
 21
42.93492784953696
 31
0.0
  0
LINE
  8
0
 10
62.683289508829894
 20
42.93492784953696
 30
0.0
 11
64.92197841985953
 21
43.803838457355454
 31
0.0
  0
LINE
  8
0
 10
64.92197841985953
 20
43.803838457355454
 30
0.0
 11
67.16066733088917
 21
44.630550743742845
 31
0.0
  0
LINE
  8
0
 10
67.16066733088917
 20
44.630550743742845
 30
0.0
 11
69.39935624191881
 21
45.41532159780775
 31
0.0
  0
LINE
  8
0
 10
69.39935624191881
 20
45.41532159780775
 30
0.0
 11
71.63804515294845
 21
46.15839487595409
 31
0.0
  0
LINE
  8
0
 10
71.63804515294845
 20
46.15839487595409
 30
0.0
 11
73.87673406397809
 21
46.860001477655885
 31
0.0
  0
LINE
  8
0
 10
73.87673406397809
 20
46.860001477655885
 30
0.0
 11
76.11542297500773
 21
47.52035941720598
 31
0.0
  0
LINE
  8
0
 10
76.11542297500773
 20
47.52035941720598
 30
0.0
 11
78.35411188603737
 21
48.13967389146103
 31
0.0
  0
LINE
  8
0
 10
78.35411188603737
 20
48.13967389146103
 30
0.0
 11
80.59280079706701
 21
48.71813734360333
 31
0.0
  0
LINE
  8
0
 10
80.59280079706701
 20
48.71813734360333
 30
0.0
 11
82.83148970809665
 21
49.255929522939994
 31
0.0
  0
LINE
  8
0
 10
82.83148970809665
 20
49.255929522939994
 30
0.0
 11
85.0701786191263
 21
49.75321754075728
 31
0.0
  0
LINE
  8
0
 10
85.0701786191263
 20
49.75321754075728
 30
0.0
 11
87.30886753015594
 21
50.21015592224825
 31
0.0
  0
LINE
  8
0
 10
87.30886753015594
 20
50.21015592224825
 30
0.0
 11
89.54755644118558
 21
50.62688665452916
 31
0.0
  0
LINE
  8
0
 10
89.54755644118558
 20
50.62688665452916
 30
0.0
 11
91.7862453522152
 21
51.003539230760026
 31
0.0
  0
LINE
  8
0
 10
91.7862453522152
 20
51.003539230760026
 30
0.0
 11
94.02493426324484
 21
51.3402306903827
 31
0.0
  0
LINE
  8
0
 10
94.02493426324484
 20
51.3402306903827
 30
0.0
 11
96.26362317427449
 21
51.63706565548928
 31
0.0
  0
LINE
  8
0
 10
96.26362317427449
 20
51.63706565548928
 30
0.0
 11
98.50231208530413
 21
51.89413636333191
 31
0.0
  0
LINE
  8
0
 10
98.50231208530413
 20
51.89413636333191
 30
0.0
 11
100.74100099633377
 21
52.111522694984174
 31
0.0
  0
LINE
  8
0
 10
100.74100099633377
 20
52.111522694984174
 30
0.0
 11
102.97968990736341
 21
52.28929220016305
 31
0.0
  0
LINE
  8
0
 10
102.97968990736341
 20
52.28929220016305
 30
0.0
 11
105.21837881839305
 21
52.42750011821903
 31
0.0
  0
LINE
  8
0
 10
105.21837881839305
 20
52.42750011821903
 30
0.0
 11
107.45706772942268
 21
52.52618939530092
 31
0.0
  0
LINE
  8
0
 10
107.45706772942268
 20
52.52618939530092
 30
0.0
 11
109.69575664045232
 21
52.5853906977008
 31
0.0
  0
LINE
  8
0
 10
109.69575664045232
 20
52.5853906977008
 30
0.0
 11
111.93444555148194
 21
52.60512242138307
 31
0.0
  0
LINE
  8
0
 10
111.93444555148194
 20
52.60512242138307
 30
0.0
 11
114.17313446251158
 21
52.5853906977008
 31
0.0
  0
LINE
  8
0
 10
114.17313446251158
 20
52.5853906977008
 30
0.0
 11
116.41182337354122
 21
52.52618939530092
 31
0.0
  0
LINE
  8
0
 10
116.41182337354122
 20
52.52618939530092
 30
0.0
 11
118.65051228457087
 21
52.42750011821903
 31
0.0
  0
LINE
  8
0
 10
118.65051228457087
 20
52.42750011821903
 30
0.0
 11
120.8892011956005
 21
52.28929220016305
 31
0.0
  0
LINE
  8
0
 10
120.8892011956005
 20
52.28929220016305
 30
0.0
 11
123.12789010663015
 21
52.111522694984174
 31
0.0
  0
LINE
  8
0
 10
123.12789010663015
 20
52.111522694984174
 30
0.0
 11
125.36657901765979
 21
51.89413636333191
 31
0.0
  0
LINE
  8
0
 10
125.36657901765979
 20
51.89413636333191
 30
0.0
 11
127.60526792868943
 21
51.63706565548928
 31
0.0
  0
LINE
  8
0
 10
127.60526792868943
 20
51.63706565548928
 30
0.0
 11
129.84395683971906
 21
51.3402306903827
 31
0.0
  0
LINE
  8
0
 10
129.84395683971906
 20
51.3402306903827
 30
0.0
 11
132.0826457507487
 21
51.003539230760026
 31
0.0
  0
LINE
  8
0
 10
132.0826457507487
 20
51.003539230760026
 30
0.0
 11
134.32133466177834
 21
50.62688665452916
 31
0.0
  0
LINE
  8
0
 10
134.32133466177834
 20
50.62688665452916
 30
0.0
 11
136.56002357280798
 21
50.21015592224825
 31
0.0
  0
LINE
  8
0
 10
136.56002357280798
 20
50.21015592224825
 30
0.0
 11
138.79871248383762
 21
49.75321754075728
 31
0.0
  0
LINE
  8
0
 10
138.79871248383762
 20
49.75321754075728
 30
0.0
 11
141.03740139486726
 21
49.255929522939994
 31
0.0
  0
LINE
  8
0
 10
141.03740139486726
 20
49.255929522939994
 30
0.0
 11
143.2760903058969
 21
48.71813734360333
 31
0.0
  0
LINE
  8
0
 10
143.2760903058969
 20
48.71813734360333
 30
0.0
 11
145.51477921692654
 21
48.13967389146103
 31
0.0
  0
LINE
  8
0
 10
145.51477921692654
 20
48.13967389146103
 30
0.0
 11
147.75346812795618
 21
47.52035941720598
 31
0.0
  0
LINE
  8
0
 10
147.75346812795618
 20
47.52035941720598
 30
0.0
 11
149.99215703898582
 21
46.860001477655885
 31
0.0
  0
LINE
  8
0
 10
149.99215703898582
 20
46.860001477655885
 30
0.0
 11
152.23084595001546
 21
46.15839487595409
 31
0.0
  0
LINE
  8
0
 10
152.23084595001546
 20
46.15839487595409
 30
0.0
 11
154.4695348610451
 21
45.41532159780775
 31
0.0
  0
LINE
  8
0
 10
154.4695348610451
 20
45.41532159780775
 30
0.0
 11
156.70822377207475
 21
44.630550743742845
 31
0.0
  0
LINE
  8
0
 10
156.70822377207475
 20
44.630550743742845
 30
0.0
 11
158.9469126831044
 21
43.803838457355454
 31
0.0
  0
LINE
  8
0
 10
158.9469126831044
 20
43.803838457355454
 30
0.0
 11
161.18560159413403
 21
42.93492784953693
 31
0.0
  0
LINE
  8
0
 10
161.18560159413403
 20
42.93492784953693
 30
0.0
 11
163.42429050516367
 21
42.023548918649254
 31
0.0
  0
LINE
  8
0
 10
163.42429050516367
 20
42.023548918649254
 30
0.0
 11
165.6629794161933
 21
41.069418466625706
 31
0.0
  0
LINE
  8
0
 10
165.6629794161933
 20
41.069418466625706
 30
0.0
 11
167.90166832722295
 21
40.0722400109712
 31
0.0
  0
LINE
  8
0
 10
167.90166832722295
 20
40.0722400109712
 30
0.0
 11
170.1403572382526
 21
39.03170369263461
 31
0.0
  0
LINE
  8
0
 10
170.1403572382526
 20
39.03170369263461
 30
0.0
 11
172.37904614928223
 21
37.947486179724365
 31
0.0
  0
LINE
  8
0
 10
172.37904614928223
 20
37.947486179724365
 30
0.0
 11
174.61773506031187
 21
36.81925056703764
 31
0.0
  0
LINE
  8
0
 10
174.61773506031187
 20
36.81925056703764
 30
0.0
 11
176.8564239713415
 21
35.64664627137202
 31
0.0
  0
LINE
  8
0
 10
176.8564239713415
 20
35.64664627137202
 30
0.0
 11
179.09511288237115
 21
34.42930892258647
 31
0.0
  0
LINE
  8
0
 10
179.09511288237115
 20
34.42930892258647
 30
0.0
 11
181.33380179340077
 21
33.166860250378846
 31
0.0
  0
LINE
  8
0
 10
181.33380179340077
 20
33.166860250378846
 30
0.0
 11
183.5724907044304
 21
31.85890796674326
 31
0.0
  0
LINE
  8
0
 10
183.5724907044304
 20
31.85890796674326
 30
0.0
 11
185.81117961546005
 21
30.505045644072737
 31
0.0
  0
LINE
  8
0
 10
185.81117961546005
 20
30.505045644072737
 30
0.0
 11
188.0498685264897
 21
29.104852588867175
 31
0.0
  0
LINE
  8
0
 10
188.0498685264897
 20
29.104852588867175
 30
0.0
 11
190.28855743751933
 21
27.657893711008967
 31
0.0
  0
LINE
  8
0
 10
190.28855743751933
 20
27.657893711008967
 30
0.0
 11
192.52724634854897
 21
26.163719388564942
 31
0.0
  0
LINE
  8
0
 10
192.52724634854897
 20
26.163719388564942
 30
0.0
 11
194.7659352595786
 21
24.62186532807266
 31
0.0
  0
LINE
  8
0
 10
194.7659352595786
 20
24.62186532807266
 30
0.0
 11
197.00462417060825
 21
23.031852420267853
 31
0.0
  0
LINE
  8
0
 10
197.00462417060825
 20
23.031852420267853
 30
0.0
 11
199.2433130816379
 21
21.39318659120812
 31
0.0
  0
LINE
  8
0
 10
199.2433130816379
 20
21.39318659120812
 30
0.0
 11
201.48200199266753
 21
19.7053586487462
 31
0.0
  0
LINE
  8
0
 10
201.48200199266753
 20
19.7053586487462
 30
0.0
 11
203.72069090369718
 21
17.96784412430594
 31
0.0
  0
LINE
  8
0
 10
203.72069090369718
 20
17.96784412430594
 30
0.0
 11
205.95937981472682
 21
16.18010310991116
 31
0.0
  0
LINE
  8
0
 10
205.95937981472682
 20
16.18010310991116
 30
0.0
 11
208.19806872575646
 21
14.341580090416812
 31
0.0
  0
LINE
  8
0
 10
208.19806872575646
 20
14.341580090416812
 30
0.0
 11
210.4367576367861
 21
12.451703770890532
 31
0.0
  0
LINE
  8
0
 10
210.4367576367861
 20
12.451703770890532
 30
0.0
 11
212.67544654781574
 21
10.509886899090901
 31
0.0
  0
LINE
  8
0
 10
212.67544654781574
 20
10.509886899090901
 30
0.0
 11
214.91413545884535
 21
8.515526082987122
 31
0.0
  0
LINE
  8
0
 10
214.91413545884535
 20
8.515526082987122
 30
0.0
 11
217.152824369875
 21
6.4680016032634455
 31
0.0
  0
LINE
  8
0
 10
217.152824369875
 20
6.4680016032634455
 30
0.0
 11
219.39151328090463
 21
4.3666772207503755
 31
0.0
  0
LINE
  8
0
 10
219.39151328090463
 20
4.3666772207503755
 30
0.0
 11
221.63020219193425
 21
2.2108999787222388
 31
0.0
  0
ENDSEC
  0
EOF
